/* XPM */
static char *_641506346141[] = {
/* columns rows colors chars-per-pixel */
"80 80 256 2 ",
"   c #0B0504",
".  c #101113",
"X  c #271A07",
"o  c #302913",
"O  c #322D2E",
"+  c #14272B",
"@  c #443C37",
"#  c #6F6C1B",
"$  c #724E26",
"%  c #655C22",
"&  c #0E4D4A",
"*  c #316360",
"=  c #4A4D50",
"-  c #6B564F",
";  c #717050",
":  c #746F72",
">  c #4A6A62",
",  c #443B40",
"<  c #AB0E07",
"1  c #B51716",
"2  c #8C3709",
"3  c #B43209",
"4  c #B03128",
"5  c #90332C",
"6  c #D51906",
"7  c #C41C0F",
"8  c #CA3009",
"9  c #E82E15",
"0  c #E02017",
"q  c #8D4B0C",
"w  c #B1500B",
"e  c #9A6A07",
"r  c #AE6E10",
"t  c #AD632B",
"y  c #B5722A",
"u  c #966721",
"i  c #CC4E0C",
"p  c #EB5012",
"a  c #CD7413",
"s  c #F25324",
"d  c #ED7528",
"f  c #DA7522",
"g  c #897976",
"h  c #906C53",
"j  c #DC5B64",
"k  c #E45B68",
"l  c #D56B52",
"z  c #75A836",
"x  c #3AB972",
"c  c #388675",
"v  c #54BA53",
"b  c #6BB654",
"n  c #569373",
"m  c #708F75",
"M  c #4AB877",
"N  c #52B172",
"B  c #6FB570",
"V  c #608D53",
"C  c #71CB71",
"Z  c #64C45E",
"A  c #B78811",
"S  c #978F36",
"D  c #B2892F",
"F  c #8EB230",
"G  c #B4B132",
"H  c #A2A818",
"J  c #D88817",
"K  c #C59616",
"L  c #CD8F13",
"P  c #E28218",
"I  c #E89618",
"U  c #D6B619",
"Y  c #D1A913",
"T  c #E7B91D",
"R  c #CE9B35",
"E  c #D19938",
"W  c #CD932A",
"Q  c #F1942E",
"!  c #D8B838",
"~  c #D2AF2C",
"^  c #F2B233",
"/  c #B0D530",
"(  c #A1D02C",
")  c #D8C619",
"_  c #CBD014",
"`  c #E7C41C",
"'  c #E5D319",
"]  c #F2DE1D",
"[  c #E9EA1A",
"{  c #F5E91B",
"}  c #EDF41C",
"|  c #FBFC14",
" . c #FAF51B",
".. c #FBFB1B",
"X. c #F6F816",
"o. c #F0F10D",
"O. c #D9D827",
"+. c #D0CB2E",
"@. c #E6C827",
"#. c #E9D827",
"$. c #ECD838",
"%. c #F7D937",
"&. c #F1CE30",
"*. c #D5F033",
"=. c #E8E728",
"-. c #F9E927",
";. c #E8F627",
":. c #F8F727",
">. c #EAE735",
",. c #F9E838",
"<. c #E9F939",
"1. c #F8F737",
"2. c #DDE51B",
"3. c #938F50",
"4. c #B49349",
"5. c #8BB458",
"6. c #AFB14C",
"7. c #8D8D6B",
"8. c #B79268",
"9. c #90B26A",
"0. c #B5B170",
"q. c #CE974F",
"w. c #CCB34D",
"e. c #EEAE4B",
"r. c #C48967",
"t. c #CFB56B",
"y. c #F1BA72",
"u. c #E9994C",
"i. c #8FCD4E",
"p. c #ADCF51",
"a. c #AEE74A",
"s. c #85D271",
"d. c #B4D376",
"f. c #AAEE68",
"g. c #C7C75A",
"h. c #D4D051",
"j. c #F8DA49",
"k. c #F9DB52",
"l. c #F0CE48",
"z. c #D0EE4A",
"x. c #F9EB46",
"c. c #E8F748",
"v. c #F6F748",
"b. c #EAE958",
"n. c #F5F857",
"m. c #EEEA4F",
"M. c #C5C56C",
"N. c #D9DA7A",
"B. c #D3CE6E",
"V. c #EAD270",
"C. c #D7E272",
"Z. c #E7E967",
"A. c #EDF465",
"S. c #F8F966",
"D. c #E7E777",
"F. c #F9FC77",
"G. c #F4ED6F",
"H. c #697B85",
"J. c #927A83",
"K. c #A77D89",
"L. c #189188",
"P. c #38968D",
"I. c #36B98A",
"U. c #2AB999",
"Y. c #36B599",
"T. c #32AD94",
"R. c #1EBCAA",
"E. c #1DBCB6",
"W. c #37AAA7",
"Q. c #26B8A7",
"!. c #35B5A4",
"~. c #26B8B7",
"^. c #31AFB0",
"/. c #52948D",
"(. c #709190",
"). c #45B698",
"_. c #4DAE91",
"`. c #70B48E",
"'. c #4AACAA",
"]. c #5FA7AD",
"[. c #1BC2B9",
"{. c #1DC1AA",
"}. c #2AC39A",
"|. c #6EC789",
" X c #68C3AF",
".X c #48CA9B",
"XX c #1BBFC1",
"oX c #34BAC2",
"OX c #1AC3C3",
"+X c #1AC3C8",
"@X c #30C9C8",
"#X c #70CAC8",
"$X c #5CDCDB",
"%X c #5CBBC1",
"&X c #92918E",
"*X c #A89393",
"=X c #B2AF8E",
"-X c #92B3B0",
";X c #A6B9B9",
":X c #B6ADA9",
">X c #9FA39F",
",X c #D2B58D",
"<X c #EDB690",
"1X c #C8BAB8",
"2X c #C9B0AF",
"3X c #F7B9BB",
"4X c #C98C87",
"5X c #94D58F",
"6X c #ACD490",
"7X c #A9DAA3",
"8X c #DAD488",
"9X c #D2CC96",
"0X c #E9D490",
"qX c #D8ED94",
"wX c #E7E686",
"eX c #F9FA88",
"rX c #FBFC98",
"tX c #EEEB91",
"yX c #D3CCB1",
"uX c #EBD5AC",
"iX c #D4ECAD",
"pX c #E7E4A7",
"aX c #FBFCA6",
"sX c #FCFCB5",
"dX c #EBF1B2",
"fX c #A4BDC0",
"gX c #94BDC1",
"hX c #CABEC1",
"jX c #F9B8C0",
"kX c #B6CCCD",
"lX c #95E3E3",
"zX c #CAC5C7",
"xX c #D4CBC8",
"cX c #DBD5C5",
"vX c #D7D7D7",
"bX c #CCD2D4",
"nX c #EADAC7",
"mX c #E5DAD8",
"MX c #F1DAC9",
"NX c #D7E0D8",
"BX c #FAF9C7",
"VX c #E8E7D8",
"CX c #F5E9DA",
"ZX c #FAFAD8",
"AX c #F2EACB",
"SX c #D4EAEA",
"DX c #E7E9E8",
"FX c #F5EDE7",
"GX c #FAF7EA",
"HX c #ffF5F4F3",
"JX c #ffFBF5F2",
"KX c #ffFBFAF4",
"LX c #ffFFFFFF",
"PX c #F6F9F6",
"IX c #EBF4F3",
"UX c #D3DFE2",
/* pixels */
"JXLXLXLXLXLXLXLXLXLXLXLXLXKXKXJXLXLXLXLXKXJXKXLXLXLXLXLXLXLXLXKXLXLXLXLXLXLXLXLXLXLXLXLXLXLXLXLXLXLXLXLXLXLXLXLXLXLXLXLXLXKXLXLXLXLXLXLXKXJXFXJXJXJXJXJXKXLXLXLX",
"LXLXLXLXLXLXLXLXLXLXLXLXLXLXLXLXKXLXLXLXLXKXKXLXLXLXLXLXLXLXLXLXLXLXLXLXLXLXLXLXLXLXLXLXLXLXLXLXLXLXLXLXLXLXLXLXLXLXLXLXLXLXLXLXLXLXLXLXLXKXKXJXKXKXJXKXLXLXLXLX",
"LXLXLXLXLXLXLXLXLXLXLXLXLXLXLXLXLXLXLXLXLXLXLXLXLXLXLXKXLXLXLXLXLXLXLXLXLXLXLXLXLXLXLXLXLXLXLXLXLXLXLXLXLXLXLXLXLXLXLXLXLXLXLXLXLXLXLXLXLXLXLXLXLXLXLXLXLXLXLXLX",
"LXLXLXLXLXLXLXLXLXLXLXLXLXLXLXLXLXLXLXLXLXLXLXLXLXLXLXKXLXLXLXPXLXLXLXLXLXLXLXLXLXLXLXKXLXLXLXLXLXLXLXLXLXLXLXKXLXLXLXLXKXLXLXLXLXLXLXLXLXLXLXLXLXLXLXLXLXLXLXLX",
"LXLXLXLXLXLXLXLXLXLXLXLXLXLXLXLXLXLXLXLXLXLXLXLXLXLXLXLXLXLXPXPXIXIXDXHXDXDXDXUXbXkXkXfX;X;X-X-X;XkXkXkXkXSXFXHXKXLXLXLXKXLXLXLXLXLXLXLXLXLXLXLXLXLXLXLXLXLXLXLX",
"LXLXLXLXLXLXLXLXLXLXLXLXLXLXLXLXLXLXLXLXLXLXLXLXLXLXLXLXLXPXIXSXlX#X%XoXoXoXoXoXoX~.~.~.~.~.~.E.~.~.oXXXoXoX%XlXSXKXLXLXLXLXLXLXLXLXLXLXLXLXLXLXLXLXLXLXLXLXLXLX",
"LXLXLXLXLXLXLXLXLXLXLXLXLXLXLXLXLXLXLXLXLXLXLXLXLXLXLXPXIXSXlXlX$X@XXX+X+X+X+X+X+X+X+XOXOXOXOXOXXX+X+X+X+XXX~.^.gXKXLXLXLXLXLXLXLXLXLXLXLXLXLXLXLXLXLXLXLXLXLXLX",
"LXLXLXLXLXLXLXLXLXLXLXLXLXLXLXLXLXLXLXLXLXLXLXLXLXHXUXkXlXlXlX$X$X@XXXXX+XXXXXXXOXOXOX[.OXOXOXOX+X+X+X+X+XOX~.^.].DXLXLXLXLXLXLXLXLXLXLXLXLXLXLXLXLXLXLXLXLXLXLX",
"LXLXLXLXLXLXLXLXLXLXLXLXLXLXLXLXLXLXLXLXLXLXLXLXIXUXgX#X#X@X@XOX+XOX[.OXE.XXXXXXXXXXXXE.E.E.[.[.OXOXOXOXOX[.[.{.].zXKXLXLXLXLXLXLXLXLXLXLXLXLXLXLXLXLXLXLXLXLXLX",
"LXLXLXLXLXLXLXLXLXLXLXLXLXLXLXLXLXLXLXLXLXLXLXKXDXUX#XoX~.{.[.{.[.[.E.E.E.E.E.E.~.~.E.E.E.E.E.[.[.[.[.{.[.[.{.{.'.>XIXPXLXLXLXLXLXLXLXLXLXLXLXLXLXLXLXLXLXLXLXLX",
"KXLXLXLXLXLXLXLXLXLXLXLXLXLXLXLXLXLXKXKXLXLXLXDXfXlX$XoX[.[.{.{.{.Q.Q.^.Q.^.^.^.W.^.W.W.T.Q.U.R.{.{.{.{.Q.Q.{.{.'.&XbXLXLXLXLXLXLXLXLXLXLXLXLXLXLXLXLXLXLXLXLXLX",
"HXLXLXLXLXLXLXLXLXLXLXLXLXLXLXLXPXLXPXIXDXDXbX-X].%X@X@X[.[.{.{.{.!.!.Y.W./._./._.]./././._.T.T.I.I.I.U.I.}.}.}./.(.hXLXLXLXLXLXLXLXLXLXLXLXLXLXLXLXLXLXLXLXLXLX",
"PXLXLXLXLXLXLXLXJXIXDXUXUXbXkXkXfX-X-X>X(././.P.^.^.XX[.[.{.{.}.}.)._.N n m n m H.(.H.H.H.: N N M M Z M x }.}.}.).(.:XLXLXLXLXLXLXLXLXLXLXLXLXLXLXLXLXLXLXLXLXLX",
"LXLXLXLXLXLXLXLXIXgX(.].'.W.^.^.W.W.P.W.^.^.^.R.R.E.{.~.{.{.{.}.I.M `.9.m ; ; ; - - h g h ; V b b Z Z C C C .X.X.Xm &XLXLXLXLXLXLXLXLXLXLXLXLXLXLXLXLXLXLXLXLXLX",
"LXLXLXLXLXLXLXLXUX(.P.W.^.^.XX^.^.^.W.!.W.W.U.U.U.}.U.U.}.x x v Z C 9.5.3.# $ $ 5 5 5 5 5 $ # z i.i.i.i.i.C C C B 7.7.LXLXLXLXLXLXLXLXLXLXLXLXLXLXLXLXLXLXLXLXLX",
"KXLXLXLXLXLXLXLX;X/.P.L.E.~.XXXXQ.Q.Q.U.U.Y.x x x x x x x v v v b p.p.w.S u q q q 4 4 4 5 2 S H / / ( ( ( i.i.s.s.3.h FXLXLXLXLXLXLXLXLXLXLXLXLXLXLXLXLXLXLXLXLX",
"LXLXKXLXLXLXLXHXm /.P.T.{.Q.E.E.Q.}.I.I.I.).M N C C x Z Z Z z i.i.( p.! W W y y t 8 4 0 3 2 A H +.O./ / / a.a.a.i.6.S nXKXLXLXLXLXLXLXLXLXLXLXLXLXLXLXLXLXLXLXLX",
"LXPXHXLXLXLXLXKXvXkX;XgX#XgX#X X).)..XI.|.M C C s.|.C C C C i.i.p.h.l.l.+.! ^ Q Q f s 0 7 2 A ! z.z.z.*.*.z.z.z.h.6.4.,XLXLXLXLXLXLXLXLXLXLXLXLXLXLXLXLXLXLXLXLX",
"LXHXFXKXLXLXLXLXLXLXLXLXKXLXPXDX7X`.|.|.5X|.5X6X5X5X7X5Xf.f.qXC.b.b.m.,.x.%.,.j.e.Q s 9 7 3 y h.F.A.n.n.n.c.c.c.z.h.w.q.CXLXLXLXLXLXLXLXLXLXLXLXLXLXLXLXLXLXLXLX",
"LXLXLXLXLXLXLXLXLXLXLXLXLXLXLXLXDX7X7X6X7XiXiXqXqX6X7XiXiXiXqXqXD.b.v.1.-.1.-.,.j.^ Q 9 7 3 q.V.rXeXeXF.S.c.c.c.c.m.l.! y.KXLXLXLXLXLXLXLXLXLXLXLXLXLXLXLXLXLXLX",
"LXLXLXLXLXLXLXLXLXLXLXLXLXLXLXLXLXiXqXqXqXdXdXqXqX6XyXZXZXBXsXaXeXS.v.:.:.:.:.,.%.^ Q 9 7 4 r.0XBXsXaXrXeXS.c.<.<.x.>.! w.GXKXLXLXLXLXLXLXLXLXLXLXLXLXLXLXLXLXLX",
"LXLXLXLXLXLXLXLXLXLXLXLXLXLXLXLXKXpXZ.wXrXrXrXrX0X9XNXZXGXGXZXsXrXS.v.1.:.:.:.:.-.^ Q 9 4 4 4XMXGXZXBXaXrXF.n.v.v.,.>.) U uXKXLXLXLXLXLXLXLXLXLXLXLXLXLXLXLXLXKX",
"LXLXLXLXLXLXLXLXLXLXLXLXLXLXLXLXZXwXwXtXtXwXwXwX0XyXAXGXKXKXZXBXsXrXS.n.v.,.,.x.&.I P d y l ,XnXGXGXZXBXsXrXF.S.n.v.>.+.U e.AXLXLXLXLXLXLXLXLXLXLXLXLXLXLXLXLXLX",
"LXLXLXLXLXLXLXLXLXLXLXLXLXLXLXKXdXrXrXrXN.M.M.M.qXAXZXKXKXKXKXGXZXsXaXeXF.G.k.l.Q a a J R q.yXAXGXKXGXZXBXsXrXeXF.n.c.+.) Y V.JXLXLXLXLXLXLXLXLXLXLXLXLXLXLXLXLX",
"LXLXLXLXLXLXLXLXLXLXLXLXLXLXKXAXtXrXrXrXC.g.0.M.pXBXGXGXJXJXKXJXKXZXsXrXeXG.k.k.Q r r Y h.t.yXCXGXPXGXGXGXBXsXrXF.Z.m.+.U U ! dXLXLXLXLXLXLXLXLXLXLXLXLXLXLXLXLX",
"LXLXLXLXLXLXLXLXLXLXLXLXLXLXdXwXeXrXrXeXB.g.p.M.pXAXmXxXvXxXvXvXVXBXsXrXeXG.k.k.W L K w.M.M.yXyXxXxXcXxXAXBXsXrXF.A.c.O._ ) T 0XKXLXLXLXLXLXLXLXLXLXLXLXLXLXLXLX",
"LXLXLXLXLXLXLXLXLXLXLXLXLXCXC.D.eXeXeXeXB.g.g.d.pXdX2X7.: H.m m :XAXsXaXF.S.k.k.&.! w.N.pXpX:X7.: : : 7.>XuXsXaXeXA.c.>.2.#.@.w.CXLXLXLXLXLXLXLXLXLXLXLXLXLXLXLX",
"LXLXLXLXLXLXLXLXLXLXLXLXGXN.Z.D.F.F.F.F.z.h.g.M.0XyXg @ X . . @ 7.iXaXrXF.S.n.k.k.G.G.aXBXAX*X= X X . O - 9XsXrXeXS.n.<.;.,.>.! B.GXLXLXLXLXLXLXLXLXLXLXLXLXLXLX",
"LXLXLXLXLXLXLXLXLXLXLXGXeXj.S.S.S.S.S.n.m.h.h.8XpXpX: o       o ; pXsXrXF.S.v.x.n.G.eXsXZXZX&X@       X - 9XsXrXF.S.v.<.:.;.=.+.! 9XLXLXLXLXLXLXLXLXLXLXLXLXLXLX",
"LXLXLXLXLXLXLXLXLXLXKXAX,.1.n.S.n.n.v.c.c.b.Z.wXpXpXh O     . o ; iXaXrXF.S.n.n.n.S.eXBXZXZX7.O       X - 9XaXrXF.n.v.1.:.;.;.+.~ w.GXLXLXLXLXLXLXLXLXLXLXLXLXLX",
"LXLXLXLXLXLXLXLXLXLXGXeX:.1.v.n.v.1.1.1.:.<.m.F.eXqX3.% X X X o V wXrXeXF.S.A.n.A.A.eXrXsXsX0.% X X X o # 8XrXF.n.v.v.:.;.} =.+.G ~ 0XLXLXLXLXLXLXLXLXLXLXLXLXLX",
"LXLXLXLXLXLXLXLXLXLXGXb.:.1.1.v.1.:...:.} :.<.n.A.wX6.# # % # # 4.D.eXeXF.D.Z.Z.Z.Z.D.eXrXtX0.h % $ # # S Z.F.S.v.1.:.;.X.} ;._ +.! e.KXLXLXLXLXLXLXLXLXLXLXLXLX",
"LXLXLXLXLXLXLXLXLXLXZXm...1.,.,.-.:.:.| { :.:.v.n.A.C.g.M.w.p.g.B.D.wXwXwXN.8XN.N.N.wXwXtXeXwXB.t.t.g.h.h.A.n.v.1.1.1.-.-.-.%.@.~ ~ e.AXLXLXLXLXLXLXLXLXLXLXLXLX",
"LXLXLXLXLXLXLXLXLXLXdX>.:.%.^ Q I I I Y ' [ :.:.1.1.c.n.b.Z.D.Z.C.wXwXpXpXpXpXdXpX9XyXpXpX0XD.Z.b.m.m.m.v.v.1.1.1.x.%.I I I J L W W w.9XLXKXLXLXLXLXLXLXLXLXLXLX",
"LXLXLXLXLXLXLXLXLXLXdX>.:.%.d p i i r r Y [ { ..X.:.:.<.v.v.A.D.wX8XuXyXnXAXCXCXMXxXhXxXyX8Xb.x.1.1.1.1.:.1.:...,.%.^ d i i i i y q.q.9XJXLXLXLXLXLXLXLXLXLXLXLX",
"LXLXLXLXLXLXLXLXLXLXwX,.-.^ s 0 6 1 3 w K ' { | ..X.:.:.1.v.A.G.D.9XyXcXVXFXKXKXCXcX1XyX9XB.l.<.1.:.....:...X.X.-.j.Q p 6 6 3 w a y w.,XJXLXLXLXLXLXLXLXLXLXLXLX",
"LXLXLXLXLXLXLXLXLXKXwX=.-.^ s 9 6 1 3 w Y ' { | | X.| } 1.v.n.D.wXyXyXxXmXFXJXJXmXzXyX1X9XB.>.;.....| | | | | | -.%.Q p 6 6 8 3 w f t.t.FXLXLXLXLXLXLXLXLXLXLXLX",
"LXLXLXLXLXLXLXLXLXLX0X#.{ ^ s 9 6 7 8 w L ] { | | X.| X.:.1.n.Z.wX9XyXxXxXvXmXmXzX:X=X=Xd.h.2.o...| | | | | | | -.l.u.p 6 6 7 w w E u.u.FXLXLXLXLXLXLXLXLXLXLXLX",
"LXLXLXLXLXLXLXLXLXLXwX#.{ ^ p 9 6 7 3 w L ' { X...| | X.:.1.m.A.D.9X1X1XxXxXhXxX:X0.0.w.~ / 2.o.| | | | | | | | -.l.^ p 6 6 7 3 w f Q y.LXLXLXLXLXLXLXLXLXLXLXLX",
"LXLXLXLXLXLXLXLXLXLX0X] { &.p 9 6 6 7 w L ` { X.| | | X.:.1.v.A.D.8XyXhXhXhXhX1X=X7.6.H _ _ o.o.| | | | | | ....,.^ Q p 6 6 8 3 i f Q 0XLXLXLXLXLXLXLXLXLXLXLXLX",
"LXLXLXLXLXLXLXLXLXLXpX]  .&.P p i 8 w w L U ` ' o.X. . . . .1.m.Z.D.8X9X9X9X,X9X0.4.G _ _ _ o.o.| | | X.:.:.:.1.%.^ I p i 8 i i a W Q uXLXLXLXLXLXLXLXLXLXLXLXLX",
"LXLXLXLXLXLXLXLXLXLXAX%.-.%.^ Q I J a a A r A A U o. . . .X.:.:.1.m.b.Z.C.h.g.g.G / _ _ [ o.o.o..... .-.-.,.x.%.T L L a P J J Y ^ Q u.JXLXLXLXLXLXLXLXLXLXLXLXLX",
"LXLXLXLXLXLXLXLXLXLXKXwX=.-.] ] @.@.~ ~ A r e r K U ' { .. .X. ...1.-.>.=.O.' O.O.2.2.o.o.o.X. ...:.:.-.%.^ ~ Q L A A Y T T @.@.! ~ 0XLXLXLXLXLXLXLXLXLXLXLXLXLX",
"LXLXLXLXLXLXLXLXLXLXLXKXtX%.-.-.-.%.%.&.~ K A A e A Y -.:.:. .:.1.1.1.,.,.,.=.>.>.>.=.:.:.-.-.-.1.1.,.l.l.A r e r K K ' %.%.%.+.! t.JXLXLXLXLXLXLXLXLXLXLXLXLXLX",
"LXLXLXLXLXLXLXLXLXLXLXLXKXl.{  .:.1.,.,.&.! ~ L e e A #.x.,.,.,.1.v.x.x.x.x.v.x.x.x.j.x.x.,.,.,.,.x.k.l.u.e 2 q e A U %.,.,.j.@.w.CXLXLXLXLXLXLXLXLXLXLXLXLXLXLX",
"LXLXLXLXLXLXLXLXLXLXLXLXLXV.o.|  .:.:.-.@.T T W e e A $.x.x.%.j.j.j.x.k.k.k.k.k.j.k.l.k.k.k.j.j.j.k.k.y.q.t 2 2 e K @.>.1.,.m.e.uXLXLXLXLXLXLXLXLXLXLXLXLXLXLXLX",
"LXLXLXLXLXLXLXLXLXLXLXLXLXuX' } :.:.:.:.] #.@.~ K r A K W ~ ~ R E E E q.q.R R W E E E E E W W W W R E E W w w r L Y ` #.-.#.l.V.CXLXLXLXLXLXLXLXLXLXLXLXLXLXLXLX",
"LXLXLXLXLXLXLXLXLXLXLXLXLXGX+.[ :.:.:. .{ -.%.&.! W L r r w t t y y y t y t t t t t t t t t t r r t w r a J L J Y ' #.#.O.@.! ,XGXLXLXLXLXLXLXLXLXLXLXLXLXLXLXLX",
"LXLXLXLXLXLXLXLXLXLXLXLXLXLXg./ *.;.;.X...:.:.,.&.@.K A r y D 4.8.r.8.8.r.8.r.8.r.r.r.r.r.8.l q.D y r r J T ^ ^ &.] #.' _ +.! ,XJXKXLXLXLXLXLXLXLXLXLXLXLXLXLXLX",
"LXLXLXLXLXLXLXLXLXLXLXLXLXLXd.F a.*.<.;. .X... .-.-.` ~ D G y.uXMXMXnXnXuXnXnXnXuXMXMXMXuXpX0X0XV.w.~ U T ] -.-.{ -.-.) U ~ 6.=XHXKXLXLXLXLXLXLXLXLXLXLXLXLXLXLX",
"LXLXLXLXLXLXLXLXLXLXLXLXPXPXB b f.f.c.;.;.| | |  .X.[ ) +.w.0XAXGXHXPXHXPXPXPXGXJXJXGXGXGXBXsXtXD.h./ U ' {  .|  .{ =.) +.6.0.7.:XmXLXLXLXLXLXLXLXLXLXLXLXLXLXLX",
"LXLXLXLXLXLXLXLXLXLXLXLXLXbXn M C f.f.a.*.;.} | | X.o.) @.e.y.0X3X3X3X3X3X3X3X3X3XjX3X3X3X3X0X0Xt.+.~ ) ` { | | { *.h.p.i.C &X`./.&XDXLXLXLXLXLXLXLXLXLXLXLXLXLX",
"LXLXLXLXLXLXLXLXLXLXLXLXUX].T.U..XC s.i.a.*.;.X.| | o.{ &.l.u.l k k k k j j j k k k k k l l y y W Y U ` ' {  .o.*.z.p.C B .X).'.'./.>XHXLXLXLXLXLXLXLXLXLXLXLXLX",
"LXLXLXLXLXLXLXLXLXLXHXkX].^.T.U.I.N Z i.a.z.*.X.......-.%.j.d i 7 1 1 1 1 1 1 1 1 1 1 1 1 < 2 q e K Y ) ) {  . .*.a.s.N Y.!..XoX'./.(.:XGXLXLXLXLXLXLXLXLXLXLXLX",
"LXLXLXLXLXLXLXLXLXxX&X/.'.!.W.T._.N b 5.f.z.z.1.:... .:.,.%.P 3 < < 1 < < < < 1 < < 1 < < 2 2 q e L U ) ' -.,.,.h.d.s.`.).!.!.!.)._.m 7.=XmXLXLXLXLXLXLXLXLXLXLX",
"LXLXLXLXLXLXLXKXyX7.m `. X X X`.n V V V 9.p.+.) #.-.:.-.,.%.I f i i 8 7 3 i 8 8 8 8 8 8 8 3 2 r r ~ @.@.' #.$.z.p.b n c P.L.T.). X|.9.9.7.0.CXLXLXLXLXLXLXLXLXLX",
"LXLXLXLXLXLXJX,X8.,X=X7X5X7X7X5X7.; 7.yXNXcX9X0.~ $.=.:.-.,.&.T Q P J f P P P P P P P f J L K K ~ &.%.l.+.! ! 6.8.=X;XbX;Xn * |.5X5Xd.d.0.t.<XCXLXLXLXLXLXLXLXLX",
"LXLXLXLXLXDX,X6.t.8XN.M.0.M.B.t.0.nXPXLXLXLXLXCXw.+.O.[ =.[ -.;.-.@.` T T ` ` ` T ` ` ` ` ` _ ) O.O.l.+.w.4.9.=XDXPXLXLXKXNXV 5.C.9.3.3.6.h.V.0XCXLXLXLXLXLXLXLX",
"LXLXLXLXFX8.S D t.V.w.4.w.u.y.y.MXLXLXLXLXLXLXKX9XH H _ _ _ 2.} ;.-.;.[ [ [ { { } } [ [ [ } *.*.O.O.+.6.4.yXFXLXLXLXLXLXLXDXh 6.6.S 7.3.# ~ Z.V.,XKXLXLXLXLXLXLX",
"LXLXLXKXcX3.S 4.t.B.t.uXFXCX<Xy.CXLXLXLXLXLXLXKX0.3.F ( ( ( / *.;.;.:.:.:.:. .:.;.:.:.:.;.<.<.<.z./ p.6.7.IXLXLXLXLXLXLXLXGX7.3.0.9XHXIX=X6.V.wXt.FXLXLXLXLXLXLX",
"LXLXLXLX,X3.S 6.t.V.<XJXLXLXFX<XuXJXKXLXLXLXJXDX&X7.b i.i.( ( *.*.*.;.:.} } } } ;.} ;.} ;.*.z.z.z.i.p.9.V VXLXLXLXLXLXLXLXPX*X3.=XGXLXLXHXM.D.8X0.VXLXLXLXLXLXLX",
"LXLXLXLX1X3.D 4.t.<XnXLXLXLXLXGXCXLXLXLXLXLXJXfXm n B b b b i.( / +.O.O.O.O.O.O.O.O.O.O.O.z.z.a.p.i.b B n n -XNXKXLXLXLXLXKXbX7.xXLXLXLXLX9X8X8X=XDXLXLXLXLXLXLX",
"LXLXLXLXJXnX8.l r.<XFXLXLXLXLXLXLXLXLXLXLXHXhXH.n /.M N N b b z F G 6.G G p.6.w.w.8XB.p.6.6.5.5.5.b B N _.P.P./.-XvXLXLXLXLXPXPXPXLXLXLXLXVX9X=X7.PXLXLXLXLXLXLX",
"LXLXLXLXLXLXKXMXMXMXKXLXLXLXLXLXLXLXLXLXLXbX(.P.P.T.Y.x x N V 7.6XNXVXVXCXDXFXGXHXKXLXGXVXNXyX=XzX`._.T.!.Y.!.T.P.(.kXPXLXLXLXLXLXLXLXLXLXLXFXVXDXLXLXPXLXLXLXLX",
"LXLXLXLXLXLXLXLXLXLXLXLXLXLXLXLXLXLXLXLXUX&X].W.W.W.U.Y.I.M -XIXLXLXLXLXLXLXLXLXLXLXKXLXLXLXLXLXHX`._.T.Q.U.Q.W.W.H./.bXPXKXLXLXLXLXLXLXLXLXLXLXLXLXLXLXLXLXLXLX",
"LXLXLXLXLXLXLXLXLXLXLXLXLXLXLXLXLXLXLXDXH.H./.W.^.^.~.^.W./.;XKXLXLXLXLXLXKXLXLXLXLXLXLXLXLXLXLXLX-XT.Y.Q.R.Q.Q.^.H.c H.PXLXLXLXLXLXKXLXLXLXLXLXLXLXLXLXLXLXLXLX",
"LXLXLXLXLXLXLXLXLXLXLXLXLXLXLXLXLXLXHX*X> * c L.L.L.L.^.'./.-XKXLXLXLXLXLXLXLXLXLXLXLXLXLXPXPXPXPX-XW.W.R.L.c L.L.c H.& fXLXLXLXLXLXLXLXLXLXLXLXLXLXLXLXLXLXLXLX",
"LXLXLXLXLXLXLXLXLXLXLXLXLXLXLXLXLXHX1X: = O & & & & * /././.fXLXLXLXLXLXLXLXLXLXLXLXLXLXLXLXLXLXLX-X/./.* & & & + & & = : xXKXLXLXLXLXLXLXLXLXLXLXLXLXLXLXLXLXLX",
"LXLXLXLXLXLXLXLXLXLXLXLXLXLXLXLXKXhXK.: , . . . . . = : : >XDXLXLXLXLXLXLXLXLXLXLXLXLXLXLXLXLXLXKXUX:X(.* + . . . . + > H.J.hXKXLXLXLXLXLXLXLXLXLXLXLXLXLXLXLXLX",
"LXLXLXLXLXLXLXLXLXLXLXLXLXLXLXLXmXK.J.H., . . .   O &X:X:XGXLXLXLXLXLXLXLXLXLXLXLXLXLXLXLXLXLXLXLXLXIXvX&XO     . + , : g g : DXLXLXLXLXLXLXLXLXLXLXLXLXLXLXLXLX",
"LXLXLXLXLXLXLXLXLXLXLXLXLXLXLXmX*XK.*XK.: - - - *XDXLXLXLXLXLXLXLXLXLXLXLXLXLXLXLXLXLXLXLXLXLXLXLXLXLXLXLXvXH., , = : J.*X&Xg :XLXLXLXLXLXLXLXLXLXLXLXLXLXLXLXLX",
"LXLXLXLXLXLXLXLXLXLXLXLXLXLXHX2XK.:X:X:X*XK.K.hXPXLXLXLXLXLXLXLXLXLXLXLXLXLXLXLXLXLXLXLXLXLXLXLXKXLXLXLXLXLXHXzX&X&X>X:X:X*X*XzXLXLXLXLXLXLXLXLXLXLXLXLXLXLXLXLX",
"LXLXLXLXLXLXLXLXLXLXLXLXLXLXKX1X*X*X*X:X*X:XmXKXLXLXLXLXLXLXLXLXLXLXLXLXLXLXLXLXLXLXLXLXLXLXLXLXLXLXLXLXLXLXLXLXHXxX;X:X*X*XhXKXLXLXLXLXLXLXLXLXLXLXLXLXLXLXLXLX",
"LXLXLXLXLXLXLXLXLXLXLXLXLXLXLXxXg J.J.g *XmXPXLXLXLXLXLXLXLXLXLXLXLXLXLXLXLXLXLXLXLXLXLXLXLXLXLXLXLXLXLXLXLXLXLXLXKXPXJXvXmXKXLXLXLXLXLXLXLXLXLXLXLXLXLXLXLXLXLX",
"LXLXLXLXLXLXLXLXLXLXLXLXLXLXLXHX1X2X:X*XhXKXLXLXLXLXLXLXLXKXLXLXLXLXLXLXLXLXLXLXLXLXLXLXLXLXLXLXLXLXLXLXLXLXLXLXLXLXLXLXLXLXLXLXLXLXLXLXLXLXLXLXLXLXLXLXLXLXLXKX",
"LXLXLXLXLXLXLXLXLXLXLXLXLXLXLXLXLXJXLXKXLXLXLXLXLXKXLXLXLXLXLXLXLXLXLXLXLXLXLXLXLXLXLXLXLXLXLXLXLXLXLXLXLXLXLXLXLXLXLXLXLXLXLXLXLXLXLXLXLXLXLXLXLXLXLXLXLXLXLXLX",
"LXLXLXLXLXLXLXLXLXLXLXLXLXLXLXLXLXLXLXLXLXLXLXLXLXLXLXLXLXLXLXLXLXLXLXLXLXLXLXLXLXLXLXLXLXLXLXLXLXLXLXLXLXLXLXLXLXLXLXLXLXLXLXLXLXLXLXLXLXLXLXLXLXLXLXLXLXLXLXLX",
"LXLXLXLXLXLXLXLXLXLXLXLXLXLXLXLXLXLXLXLXLXLXLXLXLXLXLXLXLXLXLXLXLXLXLXLXLXLXLXLXLXLXLXLXLXLXLXLXLXLXLXLXLXLXLXLXLXLXLXLXLXLXLXLXLXLXLXLXLXLXLXLXLXLXLXLXLXLXLXLX",
"LXLXLXLXLXLXLXLXLXLXLXLXLXLXLXLXLXLXLXLXLXLXLXLXLXLXLXLXLXLXLXLXLXLXLXLXLXLXLXLXLXLXLXLXLXLXLXLXLXLXLXLXLXLXLXLXLXLXLXLXLXLXLXLXLXLXLXLXLXLXLXLXLXLXLXLXLXLXLXLX",
"LXLXLXLXLXLXLXLXLXLXLXLXLXLXLXLXLXLXLXLXLXLXLXLXLXLXLXLXLXLXLXLXLXLXLXLXLXLXLXLXLXLXLXLXLXLXLXLXLXLXLXLXLXLXLXLXLXLXLXLXLXLXLXLXLXLXLXLXLXLXLXLXLXLXLXLXLXLXLXLX"
};
