/* XPM */
static char *_641506420491[] = {
/* columns rows colors chars-per-pixel */
"80 80 250 2 ",
"   c #314C4E",
".  c #346A6B",
"X  c #51755D",
"o  c #50696C",
"O  c #687476",
"+  c #747879",
"@  c #676F6C",
"#  c #404D4E",
"$  c #71AA35",
"%  c #34BA73",
"&  c #779B4B",
"*  c #6E9650",
"=  c #56AC4E",
"-  c #77B758",
";  c #6CAD50",
":  c #599978",
">  c #498076",
",  c #6C8A78",
"<  c #669976",
"1  c #74916F",
"2  c #55A879",
"3  c #48BC78",
"4  c #59B876",
"5  c #57B367",
"6  c #6AA66C",
"7  c #67B566",
"8  c #6FB66E",
"9  c #5F925B",
"0  c #3AC47C",
"q  c #79C559",
"w  c #71C557",
"e  c #4CC17B",
"r  c #58C771",
"t  c #67C668",
"y  c #69C378",
"u  c #79D97A",
"i  c #71CB6D",
"p  c #BBBD0D",
"a  c #B6BA0F",
"s  c #BCBD12",
"d  c #B8BC19",
"f  c #AEB417",
"g  c #949732",
"h  c #AF993B",
"j  c #91B331",
"k  c #A8BD29",
"l  c #BBBB23",
"z  c #B8B928",
"x  c #B9AC39",
"c  c #A8BA35",
"v  c #BBB635",
"b  c #A9A62E",
"n  c #C4BE0C",
"m  c #C9BA0E",
"M  c #C3BB12",
"N  c #C7BC19",
"B  c #D8B11B",
"V  c #C6B826",
"C  c #C7B835",
"Z  c #D1B031",
"A  c #BCC30A",
"S  c #BDC607",
"D  c #BBC115",
"F  c #B8D21B",
"G  c #9BC536",
"H  c #9FD733",
"J  c #B3C427",
"K  c #AAC438",
"L  c #B1CF32",
"P  c #BEED3E",
"I  c #C4C20A",
"U  c #CAC30D",
"Y  c #CCCC0B",
"T  c #C4C809",
"R  c #CAD10C",
"E  c #C8C715",
"W  c #D3CA14",
"Q  c #CCD418",
"!  c #D9D818",
"~  c #D4D10D",
"^  c #E4DC19",
"/  c #E5D70E",
"(  c #DBE215",
")  c #CDE91D",
"_  c #F2EE0B",
"`  c #EEF50B",
"'  c #EEF80D",
"]  c #F4F50D",
"[  c #F9F60D",
"{  c #F5F90E",
"}  c #F9F90E",
"|  c #E3E414",
" . c #E8E917",
".. c #F2EE1C",
"X. c #EDF413",
"o. c #EDFA14",
"O. c #ECF41B",
"+. c #EEF91C",
"@. c #E6F014",
"#. c #F4F513",
"$. c #F9F712",
"%. c #F5F912",
"&. c #F9FA12",
"*. c #F2F51B",
"=. c #F4F91A",
"-. c #F9FA1A",
";. c #FAF71D",
":. c #EDE70D",
">. c #C8CD2E",
",. c #DBEB28",
"<. c #D9F737",
"1. c #D0EC32",
"2. c #E9F827",
"3. c #F4FA22",
"4. c #F5F927",
"5. c #E8FA36",
"6. c #F0F02D",
"7. c #EADF23",
"8. c #8E974B",
"9. c #B3974F",
"0. c #94B74B",
"q. c #8EB152",
"w. c #B6A746",
"e. c #B9B446",
"r. c #B0B052",
"t. c #86936E",
"y. c #92AD67",
"u. c #AFB272",
"i. c #A19D6C",
"p. c #CAB24D",
"a. c #E3B348",
"s. c #CEB56B",
"d. c #8AC849",
"f. c #97C247",
"g. c #93C857",
"h. c #90CE53",
"j. c #AFCA49",
"k. c #99E25A",
"l. c #BBEA49",
"z. c #B8F257",
"x. c #A9E757",
"c. c #89CF6F",
"v. c #B4C766",
"b. c #95E86F",
"n. c #B3F372",
"m. c #D1D050",
"M. c #D5FA49",
"N. c #C4F553",
"B. c #D2F151",
"V. c #EEF54C",
"C. c #D4D46B",
"Z. c #E5CE6B",
"A. c #D2F06C",
"S. c #EDF46F",
"D. c #7A7D84",
"F. c #757C84",
"G. c #677C80",
"H. c #3D9C9C",
"J. c #1DBE94",
"K. c #2BBD8B",
"L. c #32BB8C",
"P. c #27BB99",
"I. c #38B89A",
"U. c #3AA893",
"Y. c #1EBFAA",
"T. c #1DBEB5",
"R. c #23BDA3",
"E. c #26BDAA",
"W. c #24BCB5",
"Q. c #34AFA8",
"!. c #588C89",
"~. c #529E87",
"^. c #499899",
"/. c #508E8F",
"(. c #69868D",
"). c #788189",
"_. c #6C8B92",
"`. c #49A487",
"'. c #46BB89",
"]. c #4DAE8E",
"[. c #6CAD89",
"{. c #49B0AB",
"}. c #1FC29C",
"|. c #26C199",
" X c #38C28F",
".X c #1BC2AA",
"XX c #1AC2A4",
"oX c #1BC2B4",
"OX c #1AC3BD",
"+X c #15C7B7",
"@X c #29C3A7",
"#X c #3AC5A6",
"$X c #37C5BC",
"%X c #22C4B8",
"&X c #49C489",
"*X c #50CE8F",
"=X c #7AD984",
"-X c #67CE8D",
";X c #69DE9E",
":X c #1CBDC5",
">X c #1CBCC9",
",X c #22BBC3",
"<X c #17C4C3",
"1X c #19C3C2",
"2X c #19C2C8",
"3X c #26C6C3",
"4X c #34C9C4",
"5X c #36C8C6",
"6X c #46CCC6",
"7X c #59CECF",
"8X c #75D6D4",
"9X c #86878A",
"0X c #909097",
"qX c #B4B790",
"wX c #B1B5B6",
"eX c #9AAA9D",
"rX c #C8B988",
"tX c #D5B8A0",
"yX c #AFC190",
"uX c #90F28C",
"iX c #AAF08D",
"pX c #B3D6BE",
"aX c #8EF6A0",
"sX c #D7CC92",
"dX c #E8DC9B",
"fX c #D4CDAE",
"gX c #E8D6B1",
"hX c #DAE3B5",
"jX c #EEEDB4",
"kX c #F4ED9C",
"lX c #87DDDB",
"zX c #8BD5CC",
"xX c #B1D4CF",
"cX c #97E3DD",
"vX c #B4EAE8",
"bX c #C7C7C8",
"nX c #D7D8CE",
"mX c #E9E9D9",
"MX c #F3EFD4",
"NX c #C4ECEB",
"BX c #DAF4F3",
"VX c #D1EEEA",
"CX c #F8F6EB",
"ZX c #E3F5F4",
"AX c #EAF8F8",
"SX c #F4F5F2",
"DX c #ffFFFFFF",
"FX c #F8F9F6",
"GX c #EAE9E6",
"HX c #E3E3D1",
/* pixels */
"DXDXDXDXDXDXDXDXDXDXDXDXDXDXDXDXDXDXDXDXDXDXDXDXDXDXDXDXDXDXDXDXDXDXDXDXDXDXDXDXDXDXDXDXDXDXDXDXDXDXDXDXDXDXDXDXDXDXDXDXDXDXDXDXDXDXDXDXDXDXDXDXDXDXDXDXDXDXDXDX",
"DXDXDXDXDXDXDXDXDXDXDXDXDXDXDXDXDXDXDXDXDXDXDXDXDXDXDXDXDXDXDXDXDXDXDXDXDXDXDXDXDXDXDXDXDXDXDXDXDXDXDXDXDXDXDXDXDXDXDXDXDXDXDXDXDXDXDXDXDXDXDXDXDXDXDXDXDXDXDXDX",
"DXDXDXDXDXDXDXDXDXDXDXDXDXDXDXDXDXDXDXDXDXDXDXDXDXDXDXDXDXDXDXDXDXDXDXDXDXDXDXDXDXDXDXDXDXDXDXDXDXDXDXDXDXDXDXDXDXDXDXDXDXDXDXDXDXDXDXDXDXDXDXDXDXDXDXDXDXDXDXDX",
"DXDXDXDXDXDXDXDXDXDXDXDXDXDXDXDXDXDXDXDXDXDXDXDXDXDXDXDXDXDXDXDXDXDXDXDXDXDXDXDXDXDXDXDXDXDXDXDXDXDXDXDXDXDXDXDXDXDXDXDXDXDXDXDXDXDXDXDXDXDXDXDXDXDXDXDXDXDXDXDX",
"DXDXDXDXDXDXDXDXDXDXDXDXDXDXDXDXDXDXDXDXDXDXDXDXDXDXDXDXDXDXDXDXDXDXDXDXDXDXDXDXDXDXDXDXDXDXDXDXDXDXDXDXDXDXDXDXDXDXDXDXDXDXDXDXDXDXDXDXDXDXDXDXDXDXDXDXDXDXDXDX",
"DXDXDXDXDXDXDXDXDXDXDXDXDXDXDXDXDXDXDXDXDXDXDXDXDXDXDXDXDXDXDXDXDXDXDXDXDXDXDXDXDXDXDXDXDXDXDXDXDXDXDXDXDXDXDXDXDXDXDXDXDXDXDXDXDXDXDXDXDXDXDXDXDXDXDXDXDXDXDXDX",
"DXDXDXDXDXDXDXDXDXDXDXDXDXDXDXDXDXDXDXDXDXDXDXDXDXDXDXDXDXDXDXDXDXDXDXDXDXDXDXDXDXDXDXDXDXDXDXDXDXDXDXDXDXDXDXDXDXDXDXDXDXDXDXDXDXDXDXDXDXDXDXDXDXDXDXDXDXDXDXDX",
"DXDXDXDXDXDXDXDXDXDXDXDXDXDXDXDXDXDXDXDXDXDXDXDXDXDXDXDXDXDXDXDXDXDXDXDXDXDXDXDXDXDXDXDXDXDXDXDXDXDXDXDXDXDXDXDXDXDXDXDXDXDXDXDXDXDXDXDXDXDXDXDXDXDXDXDXDXDXDXDX",
"DXDXDXDXDXDXDXDXDXDXDXDXDXDXDXDXDXDXDXDXDXDXDXDXDXDXDXDXDXDXDXDXDXDXDXDXDXDXDXDXDXDXDXDXDXDXDXDXDXDXDXDXDXDXDXDXDXDXDXDXDXDXDXDXDXDXDXDXDXDXDXDXDXDXDXDXDXDXDXDX",
"DXDXDXDXDXDXDXDXDXDXDXDXDXDXDXDXDXDXDXDXDXDXDXDXDXFXAXZXBXZXZXBXZXZXZXBXAXBXVXNXNXvXvXNXvXVXBXBXAXFXDXDXDXDXDXDXDXDXDXDXDXDXDXDXDXDXDXDXDXDXDXDXDXDXDXDXDXDXDXDX",
"DXDXDXDXDXDXDXDXDXDXDXDXDXDXDXDXDXDXDXDXDXDXDXDXDXZX8X6X$X$X$X4X4X4X5X5X5X5X3X3X3X1X3X3X1X3X3X4X5X7XlXvXNXBXFXDXDXDXDXDXDXDXDXDXDXDXDXDXDXDXDXDXDXDXDXDXDXDXDXDX",
"DXDXDXDXDXDXDXDXDXDXDXDXDXDXDXDXDXDXDXDXDXDXDXDXDXVX{.W.W.oXoXOXOXOX1X1X1X1X1XOX1XOX1X2XOX<X1X1X1X1X1X1X3X4X6X8XDXDXDXDXDXDXDXDXDXDXDXDXDXDXDXDXDXDXDXDXDXDXDXDX",
"DXDXDXDXDXDXDXDXDXDXDXDXDXDXDXDXDXDXDXDXDXDXDXDXDXNXQ.,XT.OXOXOXOXOX1XOX1X1X1X1X1XOX1X1X1XOX1XOX1X1XOX1XOX1X1X4XAXDXDXDXDXDXDXDXDXDXDXDXDXDXDXDXDXDXDXDXDXDXDXDX",
"DXDXDXDXDXDXDXDXDXDXDXDXDXDXDXDXDXDXDXDXDXDXDXFXAX8X,X,X:X:X1X1XOX+X+XOX+XOX1X1X1X1X1X1X<X1X1XOX1XOX1XOX1XOXOX1XBXDXDXDXDXDXDXDXDXDXDXDXDXDXDXDXDXDXDXDXDXDXDXDX",
"DXDXDXDXDXDXDXDXDXDXDXDXDXAXNXvXcXcXlX8X8X8X8X8X7X,X>X>X>X:X2X1XOX+X+X+XOXOX1X1X1X1X1X1X1X1X1X1XOX1X1X+X1X1X1X1XvXDXDXDXDXDXDXDXDXDXDXDXDXDXDXDXDXDXDXDXDXDXDXDX",
"DXDXDXDXDXDXDXDXDXDXDXDXNX7X4X%X+X<X+XOXOX2XT.:X:X>X>X>X:X2X1XOXOXOXOXOX1X1X1X1X1X1X1X1X1X1X1XOX1X1X1X1XOX1XOXOXlXDXDXDXDXDXDXDXDXDXDXDXDXDXDXDXDXDXDXDXDXDXDXDX",
"DXDXDXDXDXDXDXDXDXDXDXDX6X+X+X+X+X+X+X+X+X+X+X<X2X2X1X1X1X2X2X1X1XOX1XOX<X1X1X1X1X1X1X<X1X1X1X1XOX1X1X1XOX<XOX:X7XAXDXDXDXDXDXDXDXDXDXDXDXDXDXDXDXDXDXDXDXDXDXDX",
"DXDXDXDXDXDXDXDXDXDXDXFX$X+X+X+X+X+X+X+X.X+X+XT.OX1X1X1X1X2X1X1X<X1X2X1X1X1X1X1X2X1X1X1X1X1X1X1X1X+X1XOX:XOXOX+XW.VXDXDXDXDXDXDXDXDXDXDXDXDXDXDXDXDXDXDXDXDXDXDX",
"DXDXDXDXDXDXDXDXDXDXDXzXoXoX.XXXXXXXXXXXY.Y.T.Y.T.OX2X3X2X2X2X2X2X2X<X2X1X1X1X2X<X1X1X1X<X<X<X1X1XOXOX1X<XOXT.T.Q.[.SXDXDXDXDXDXDXDXDXDXDXDXDXDXDXDXDXDXDXDXDXDX",
"DXDXDXDXDXDXDXDXDXDXDX{..X.X.XY.XX}.}.}.P.R.R.Y.Y.W.:X,X,X2X>X2X1X<X2X<X<X1X1X1X1X1X1X<X<X<X<X<X1X1XOXOX:XT.Y.Y.I.< fXDXDXDXDXDXDXDXDXDXDXDXDXDXDXDXDXDXDXDXDXDX",
"DXDXDXDXDXDXDXDXDXDXDXZX{.E.P.K.P.P.P.K.K.I.L.K.K.E.W.W.,X:X3X2X2X2X2X<X<X1X1X1X1X1X<X<X<X<X<X<X1X1X1XOX1XOXY.I.: 9 u.FXDXDXDXDXDXDXDXDXDXDXDXDXDXDXDXDXDXDXDXDX",
"DXDXDXDXDXDXDXDXDXDXDXDXFXcX].U.'.'.&X'.3 3 3 e &XL.Q.%XW.:X2X1X2X2X2X<X<X<X<X<X<X<X<X1X<X2X2X2X1X1XOX1X1XOXE.].: * & u.sXs.MXDXDXDXDXDXDXDXDXDXDXDXDXDXDXDXDXDX",
"DXDXDXDXDXDXDXDXDXDXDXDXDXDXAXpX[.-X-Xr y t i t t &X{.I.W.%XOX1X2X2X2X<X1X1X1X<X1X1X1X1X1X1X1X1X2XOXOXOXoXoXI.[.6 * g j x Z Z gXDXDXDXDXDXDXDXDXDXDXDXDXDXDXDXDX",
"DXDXDXDXDXDXDXDXDXDXDXDXDXDXDXFXeX8 yXc.g.g.h.h.q i r &XI.R.@X+X1X3X1X1X1X1X1X1X1X1X1X1X1X1X:X:XOXoXoX.X@XP.L.4 ; $ j c C C Z a.MXDXDXDXDXDXDXDXDXDXDXDXDXDXDXDX",
"DXDXDXDXDXDXDXDXDXDXDXDXDXDXFXmXy.g.v.j.L L L K G h.q t e  X|.%XOXOX1X2X1X1X1X1X1X1X1X<X1X1XOXoX+XXXXXXX}.% e t ; j G J d V C p.s.GXDXDXDXDXDXDXDXDXDXDXDXDXDXDX",
"DXDXDXDXDXDXDXDXDXDXDXDXDXDXDXhXv.v.C.m.m.>.>.1.L H h.c.u *X*X@X%XW.T.1X:X1X1X1X1X1X2X1X1XOXOX.XXXXXXX0 % 0 r w d.G L J d V V x 9.fXDXDXDXDXDXDXDXDXDXDXDXDXDXDX",
"DXDXDXDXDXDXDXDXDXDXDXDXDXDXCXhXC.S.A.S.5.,.,.,.,.1.l.z.n.uX;X*X@XE.T.1X1X1X1X1X1X<X<X2X1XOX@X@X}.}.|.% 0 t b.k.l.L L F d N V C w.p.GXDXDXDXDXDXDXDXDXDXDXDXDXDX",
"DXDXDXDXDXDXDXDXDXDXDXDXDXCXsXsXkXS.S.V.V.6.2.3.2.6.M.M.N.n.uX=X*X@X.X1X1X1X2X1X1X1X1X2X1XoXP.K.0 0 r t i k.z.N.<.1.1.Q E m m x Z h gXDXDXDXDXDXDXDXDXDXDXDXDXDX",
"DXDXDXDXDXDXDXDXDXDXDXDXDXMXZ.S.S.V.V.V.5.3.O.#.-.3.4.5.M.A.n.uX-X*XR.oXOXOXOXOXT.1XT.T.OXR.% e r u u b.x.z.M.<.<.2.,.! E n N N V C s.MXDXDXDXDXDXDXDXDXDXDXDXDX",
"DXDXDXDXDXDXDXDXDXDXDXDXFXdXS.S.S.V.V.4.=.%.#.%.=.=.3.4.M.M.n.n.u *XL.Y.E.T.E.W.W.Y.T.R.P.K.% 5 w k.n.z.N.<.<.+.+.3.O.! U U m N N C Z gXDXDXDXDXDXDXDXDXDXDXDXDX",
"DXDXDXDXDXDXDXDXDXDXDXDXjXC.m.S.V.V.4.3.=.{ } $.[ $.&.=.4.M.M.z.b.i e  X#X#X#X#X#X#X#X X X&Xt w q x.z.M.<.+.o.o.%.%.] / Y U n n N V Z Z.DXDXDXDXDXDXDXDXDXDXDXDX",
"DXDXDXDXDXDXDXDXDXDXDXDXA.7.5.V.V.5.4.-.{ { { [ { [ &.&.3.5.5.M.l.x.c.u =X=X=X=XuX=X=Xc.u c.h.H P 1.<.5.2.o.' ' { { _ :.Y T n I E B Z Z.DXDXDXDXDXDXDXDXDXDXDXDX",
"DXDXDXDXDXDXDXDXDXDXFXCX2.+.6.4.4.3.-.%.{ { } %.} &.&.&.-.3.4.5.5.<.N.N.l.N.N.N.N.N.N.N.z.M.1.,.,.2.2.2.=.o.%.%.o.%.X.| Y I S I U m B a.DXDXDXDXDXDXDXDXDXDXDXDX",
"DXDXDXDXDXDXDXDXDXDXFXMXo.-.3.-.-.-.&.%.{ { { { } } } } &.&.&.-.=.o.=.3.*.=.=.=.-.-.=.+.O.@.#.] *.-.#.-.-.%.=.o.%.o.o.| R T I I m m B a.FXDXDXDXDXDXDXDXDXDXDXDX",
"DXDXDXDXDXDXDXDXDXDXDXjXo.%.&.&.&.&.&.{ { { { { { } } } } } &.&.-.-.&.&.-.&.} } &.} } { { [ [ [ [ $.$.;.-.-.%.%.o.%.o.| T I I I n m B a.DXDXDXDXDXDXDXDXDXDXDXDX",
"DXDXDXDXDXDXDXDXDXDXDXjXo.o.[ [ &.&.} &.{ ' { { { { } } } &.&.&.&.&.&.&.} &.&.&.} } } } } [ [ [ [ [ [ $.-.%.%.%.%.-.*.| R I I I m m B a.DXDXDXDXDXDXDXDXDXDXDXDX",
"DXDXDXDXDXDXDXDXDXDXDXjXo.o.{ [ } &.&.&.&.&.&.&.{ { { &.} } &.} } } } %.&.&.&.} } } } } } } } } [ } } &.&.&.%.%.=.*.3.^ Y I I n m m B a.DXDXDXDXDXDXDXDXDXDXDXDX",
"DXDXDXDXDXDXDXDXDXDXDXjXo.%.&.[ } } &.&.&.&.&.&.&.&.%.&.$.&.&.} { { { { { &.%.%.{ { } &.} [ [ } } } } &.&.&.%.-.=.4...^ Y I n I m m B a.FXDXDXDXDXDXDXDXDXDXDXDX",
"DXDXDXDXDXDXDXDXDXDXDXMXo.=.&.[ } } } } &.&.&.&.&.&.} &.&.} &.&.{ { ' { { %.{ %.{ %.{ } } } } } } } } } &.%.%.=.-.4...! T I n n m m B a.DXDXDXDXDXDXDXDXDXDXDXDX",
"DXDXDXDXDXDXDXDXDXDXDXCX+.X.&.} } &.&.&.&.&.&.&.%.&.&.&.$.&.&.&.%.{ { { { { %.%.%.{ { } } } } } } } } } &.%.%.=.3.3. .! T n I n m N B a.DXDXDXDXDXDXDXDXDXDXDXDX",
"DXDXDXDXDXDXDXDXDXDXDXFX6...[ &.&.&.&.} } &.&.&.&.&.&.&.&.&.&.&.%.%.%.&.{ %.&.&.%.&.&.{ &.{ } } } } } { { %.{ =.=.O.( ! T n I n m N B a.FXDXDXDXDXDXDXDXDXDXDXDX",
"DXDXDXDXDXDXDXDXDXDXDXDXkX7.:.[ &.} } } } } } } &.&.&.} &.&.&.&.&.} &.&.&.&.} } } &.} } } } } } } { [ [ { %.{ #.o.| ! W I I n I E N Z a.DXDXDXDXDXDXDXDXDXDXDXDX",
"DXDXDXDXDXDXDXDXDXDXDXDXCXZ./ [ } [ } { } } } &.&.&.$.$.&.-.&.&.&.&.&.} &.} { { } &.} } { } [ [ } } ] ] %.%.#.#.#.| ! Y I I p M C C a.s.DXDXDXDXDXDXDXDXDXDXDXDX",
"DXDXDXDXDXDXDXDXDXDXDXDXDXgXB :.] [ { &.&.} &.&.} $.$.$.&.&.-.$.} &.%.&.} } { { { } { } &.} $.%.$.$.$.] %.%.$._ X.^ W U n p s l Z h 9.rXDXDXDXDXDXDXDXDXDXDXDXDX",
"DXDXDXDXDXDXDXDXDXDXDXDXDXCXZ ^ _ ] { { { { } } $.[ $.&.%.%.&.&.%.&.%.{ { } { { } { { } %.&.%.%.&.$.-.-.#.;.;.;.;.^ W U n p s v r.r.9.tXDXDXDXDXDXDXDXDXDXDXDXDX",
"DXDXDXDXDXDXDXDXDXDXDXDXDXDXa./ _ ` o.%.' ' { } $.$.$.$.$.&.%.{ %.%.%.{ { { { { { } } { &.%.&.&.&.-.$.-.-.-.;.4...7.W m n p E z e.w.9.fXDXDXDXDXDXDXDXDXDXDXDXDX",
"DXDXDXDXDXDXDXDXDXDXDXDXDXFXm./ :.' o.' ' ` [ [ [ $.$.%.$.&.%.o.{ %.' %.{ { { { } } &.} &.&.&.&.-.&.;.-.-.#.....7.7.W n n p s l v x 9.fXDXDXDXDXDXDXDXDXDXDXDXDX",
"DXDXDXDXDXDXDXDXDXDXDXDXDXCXC ~ | ` o.#.' ' [ %.$.$.$.&.{ %.%.' { ' %.' { %.{ { { %.&.%.{ &.&.{ $.$.-.*.#.:.^ / W W m M M M s l v x w.sXDXDXDXDXDXDXDXDXDXDXDXDX",
"DXDXDXDXDXDXDXDXDXDXDXDXGXrXf E ) ' ' o.' o.=.&.&.$.&.&.&.%.o.%.{ { o.{ { ' { { %.[ &.} &.%.&.#.=.=.+.*.` ( ~ Y U m M M M d D l z v x s.FXDXDXDXDXDXDXDXDXDXDXDX",
"DXDXDXDXDXDXDXDXDXDXFXnXi.g f d ) ) @.@.@.o.%.%.[ &.&.$.&.&.&.] { { { %.{ { { { &.%.&.} &.&.%.$.*.=.2. . .! Y n m U M M N N V l d z v s.DXDXDXDXDXDXDXDXDXDXDXDX",
"DXDXDXDXDXDXDXDXDXDXGX8.& & $ j H F F F ) 2.o.o.[ { [ [ { [ } { %.[ &.[ &.{ { { ] { { { { &.#.` @.O.| ( ! ~ n m m N d z V K K c G k c sXDXDXDXDXDXDXDXDXDXDXDXDX",
"DXDXDXDXDXDXDXDXDXmXeX* ; 7 = ; $ $ j j H P <.@.X.#.[ [ [ } { [ { [ [ } { [ [ [ [ { [ { { #.O... .! ~ E E U n M N D J K f.0.g.d.- - r.sXDXDXDXDXDXDXDXDXDXDXDXDX",
"DXDXDXDXDXDXDXDXCXu.8.- t r -X*Xe = = = q x.l.,. .` [ [ ] [ [ [ [ [ [ [ [ } [ [ ] [ ] ] ] #.*. .( Q n a p p N N V J K d.g.- i 8 5 7 v.HXDXDXDXDXDXDXDXDXDXDXDXDX",
"DXDXDXDXDXDXFXCXsXu.v.x.b.uXaX;X-X5 = = - g.L Q ! @._ [ [ %.{ { [ [ } [ { [ { { { { } ] ] #. .^ W I M p M p a N E K j 0.- 7 4 4 3 [.VXFXDXDXDXDXDXDXDXDXDXDXDXDX",
"DXDXDXDXDXDXFXrXs.C.A.A.A.iXiXaX=X7 = * q.f.c >.!  ._ [ $.#.{ ] } } ] } [ %.' #.#.$.} { %.*. .! E n M p n m a m V K 0.- 7 `.`.2 4 fXDXDXDXDXDXDXDXDXDXDXDXDXDXDX",
"DXDXDXDXDXDXHX9.p.C.A.S.M.A.iXuXc.7 * * q.0.c d W ^ _ [ &.[ { { [ [ { } { %.o.o.=.$.#.%...O.7.W U m M m m p M m N j.0.; 2 `.`.: < VXDXDXDXDXDXDXDXDXDXDXDXDXDXDX",
"DXDXDXDXDXDXfXh w.C.C.V.B.A.n.yXy.& * * 8.8.h b V W  ._ =.&.{ { [ { { =.=.#.o.*.o.@.@. .| | ^ W U n p s d N l z v r.q.6 : : ~.: 0XCXFXDXDXDXDXDXDXDXDXDXDXDXDXDX",
"DXDXDXDXDXDXgXh p.m.m.>.>.>.v.u.y.qXwXsXqXu.g b b V ^  .#.X.' { ` ` ` X.*.o.X.O.@.! ~ Y Y Y W U E p s d z k c c 0.q.y.6 < < : X ).FXDXDXDXDXDXDXDXDXDXDXDXDXDXDX",
"DXDXDXDXDXDXmXh e.B.m.C M x p.fXmXDXDXDXDXDXnX8.g b M Y ! | ( ( | ( ( ( ( ( ( ( ! R T I n n n I p a d J G j 0.q.y.t.* 1 1 , , X 1 SXDXDXDXDXDXDXDXDXDXDXDXDXDXDX",
"DXDXDXDXDXDXSXr.p.m.>.>.V sXCXDXDXDXDXDXDXDXDXnX8.g f s E R ~ R R R R R Q R T S S S A a a n p p a d J K f.- 6 6 < < , )., , O X O GXDXDXDXDXDXDXDXDXDXDXDXDXDXDX",
"DXDXDXDXDXDXFXs.m.Z.m.>.sXCXDXDXDXDXDXDXDXDXDXDXHXi.f f d I I S S S S S A A A A s D a a a a A a a f k f.- 4 ~.`.^./.(._.F.F.+ O + wXDXDXDXDXDXDXDXDXDXDXDXDXDXDX",
"DXDXDXDXDXDXDXmXsXdXjXMXDXDXDXDXDXDXDXDXDXDXDXDXFXmXu.b z l d D S S A A A a A A A A A a a D f D k G j c.y &X].].H.^.G._.F.F.).+ + 9XFXDXDXDXDXDXDXDXDXDXDXDXDXDX",
"DXDXDXDXDXDXDXDXCXDXDXDXDXDXDXDXDXDXDXDXDXDXDXDXDXDXmXqX8.b b z s p A a p p a A A p p a a D k G G w w 3 I.I.Q.{.{.G.o o G.F.D.+ F.wXDXDXDXDXDXDXDXDXDXDXDXDXDXDX",
"DXDXDXDXDXDXDXDXDXDXDXDXDXDXDXDXDXDXDXDXDXDXDXDXDXDXDXDXCXmXfXm.V D D D a a p A n A A A a k G d.w t e L.Q.W.Q.Q.H..     O F.D.D.).GXDXDXDXDXDXDXDXDXDXDXDXDXDXDX",
"DXDXDXDXDXDXDXDXDXDXDXDXDXDXDXDXDXDXDXDXDXDXDXDXDXDXDXDXDXDXDXDXCXMXMXjXhXC.m.z z z z v v e.g.c.8 4 '.L.Q.Y.H.H.G..     o F.D.+ wXFXDXDXDXDXDXDXDXDXDXDXDXDXDXDX",
"DXDXDXDXDXDXDXDXDXDXDXDXDXDXDXDXDXDXDXDXDXDXDXDXDXDXDXDXDXDXDXDXDXDXDXDXDXSXmXsXr.w.h w.p.q.- y y '.'.U.U.H.H.^.G..     @ F.D.D.GXDXDXDXDXDXDXDXDXDXDXDXDXDXDXDX",
"DXDXDXDXDXDXDXDXDXDXDXDXDXDXDXDXDXDXDXDXDXDXDXDXDXDXDXDXDXDXDXDXDXDXDXDXDXDXDXDXSXmXfXqXu.t.6 [.].].].].H.H.^.!.O o o o + D.D.bXDXDXDXDXDXDXDXDXDXDXDXDXDXDXDXDX",
"DXDXDXDXDXDXDXDXDXDXDXDXDXDXDXDXDXDXDXDXDXDXDXDXDXDXDXDXDXDXDXDXDXDXDXDXDXDXDXDXDXDXDXFXSXfX< ~.~.~.^./.^.^._.G.F.O @ @ @ 9XbXFXDXDXDXDXDXDXDXDXDXDXDXDXDXDXDXDX",
"DXDXDXDXDXDXDXDXDXDXDXDXDXDXDXDXDXDXDXDXDXDXDXDXDXDXDXDXDXDXDXDXDXDXDXDXDXDXDXDXDXDXDXDXDXDXwX> /.^._.^.G._._.F.D.D.F.D.bXSXDXDXDXDXDXDXDXDXDXDXDXDXDXDXDXDXDXDX",
"DXDXDXDXDXDXDXDXDXDXDXDXDXDXDXDXDXDXDXDXDXDXDXDXDXDXDXDXDXDXDXDXDXDXDXDXDXDXDXDXDXDXDXDXDXDXFXxX_.G._._._.D.D.F.D.D.eXGXDXDXDXDXDXDXDXDXDXDXDXDXDXDXDXDXDXDXDXDX",
"DXDXDXDXDXDXDXDXDXDXDXDXDXDXDXDXDXDXDXDXDXDXDXDXDXDXDXDXDXDXDXDXDXDXDXDXDXDXDXDXDXDXDXDXDXDXDXDXnX0XF.F.D.F.D.).0XbXFXDXDXDXDXDXDXDXDXDXDXDXDXDXDXDXDXDXDXDXDXDX",
"DXDXDXDXDXDXDXDXDXDXDXDXDXDXDXDXDXDXDXDXDXDXDXDXDXDXDXDXDXDXDXDXDXDXDXDXDXDXDXDXDXDXDXDXDXDXDXDXFXnX0X0X0X0XwXnXSXDXDXDXDXDXDXDXDXDXDXDXDXDXDXDXDXDXDXDXDXDXDXDX",
"DXDXDXDXDXDXDXDXDXDXDXDXDXDXDXDXDXDXDXDXDXDXDXDXDXDXDXDXDXDXDXDXDXDXDXDXDXDXDXDXDXDXDXDXDXDXDXDXDXDXFXGXGXSXFXDXDXDXDXDXDXDXDXDXDXDXDXDXDXDXDXDXDXDXDXDXDXDXDXDX",
"DXDXDXDXDXDXDXDXDXDXDXDXDXDXDXDXDXDXDXDXDXDXDXDXDXDXDXDXDXDXDXDXDXDXDXDXDXDXDXDXDXDXDXDXDXDXDXDXDXDXDXDXDXDXDXDXDXDXDXDXDXDXDXDXDXDXDXDXDXDXDXDXDXDXDXDXDXDXDXDX",
"DXDXDXDXDXDXDXDXDXDXDXDXDXDXDXDXDXDXDXDXDXDXDXDXDXDXDXDXDXDXDXDXDXDXDXDXDXDXDXDXDXDXDXDXDXDXDXDXDXDXDXDXDXDXDXDXDXDXDXDXDXDXDXDXDXDXDXDXDXDXDXDXDXDXDXDXDXDXDXDX",
"DXDXDXDXDXDXDXDXDXDXDXDXDXDXDXDXDXDXDXDXDXDXDXDXDXDXDXDXDXDXDXDXDXDXDXDXDXDXDXDXDXDXDXDXDXDXDXDXDXDXDXDXDXDXDXDXDXDXDXDXDXDXDXDXDXDXDXDXDXDXDXDXDXDXDXDXDXDXDXDX",
"DXDXDXDXDXDXDXDXDXDXDXDXDXDXDXDXDXDXDXDXDXDXDXDXDXDXDXDXDXDXDXDXDXDXDXDXDXDXDXDXDXDXDXDXDXDXDXDXDXDXDXDXDXDXDXDXDXDXDXDXDXDXDXDXDXDXDXDXDXDXDXDXDXDXDXDXDXDXDXDX",
"DXDXDXDXDXDXDXDXDXDXDXDXDXDXDXDXDXDXDXDXDXDXDXDXDXDXDXDXDXDXDXDXDXDXDXDXDXDXDXDXDXDXDXDXDXDXDXDXDXDXDXDXDXDXDXDXDXDXDXDXDXDXDXDXDXDXDXDXDXDXDXDXDXDXDXDXDXDXDXDX",
"DXDXDXDXDXDXDXDXDXDXDXDXDXDXDXDXDXDXDXDXDXDXDXDXDXDXDXDXDXDXDXDXDXDXDXDXDXDXDXDXDXDXDXDXDXDXDXDXDXDXDXDXDXDXDXDXDXDXDXDXDXDXDXDXDXDXDXDXDXDXDXDXDXDXDXDXDXDXDXDX",
"DXDXDXDXDXDXDXDXDXDXDXDXDXDXDXDXDXDXDXDXDXDXDXDXDXDXDXDXDXDXDXDXDXDXDXDXDXDXDXDXDXDXDXDXDXDXDXDXDXDXDXDXDXDXDXDXDXDXDXDXDXDXDXDXDXDXDXDXDXDXDXDXDXDXDXDXDXDXDXDX"
};
