/* XPM */
static char *_641506373659[] = {
/* columns rows colors chars-per-pixel */
"80 80 256 2 ",
"   c #08080D",
".  c #112F34",
"X  c #342F33",
"o  c #261818",
"O  c #47382A",
"+  c #62382E",
"@  c #64572A",
"#  c #354D52",
"$  c #365964",
"%  c #197377",
"&  c #2F7270",
"*  c #1C6059",
"=  c #504D4E",
"-  c #715D59",
";  c #716B50",
":  c #4C736E",
">  c #797778",
",  c #6D6B6D",
"<  c #57625D",
"1  c #3D3A40",
"2  c #991905",
"3  c #AB130D",
"4  c #932D0F",
"5  c #B62810",
"6  c #90362E",
"7  c #A8292E",
"8  c #B91C28",
"9  c #CB1608",
"0  c #C92C09",
"q  c #D11420",
"w  c #8E4E09",
"e  c #9A6707",
"r  c #B07314",
"t  c #8C4C31",
"y  c #B3752A",
"u  c #AF7633",
"i  c #A6591A",
"p  c #CD510E",
"a  c #D16E08",
"s  c #CD6F32",
"d  c #D94E24",
"f  c #8C6D54",
"g  c #B5734D",
"h  c #B3734C",
"j  c #877B68",
"k  c #89797A",
"l  c #967877",
"z  c #947267",
"x  c #B37773",
"c  c #97564D",
"v  c #D6474F",
"b  c #D05D69",
"n  c #63892F",
"m  c #39B879",
"M  c #2F9069",
"N  c #468D53",
"B  c #568F79",
"V  c #768C75",
"C  c #54B575",
"Z  c #69B270",
"A  c #6FA056",
"S  c #7ACB55",
"D  c #59C467",
"F  c #58C578",
"G  c #6EC96C",
"H  c #74E57E",
"J  c #3BC07D",
"K  c #B98F11",
"L  c #939532",
"P  c #B1902E",
"I  c #B2B334",
"U  c #9DA624",
"Y  c #D79917",
"T  c #CF9011",
"R  c #D9BC18",
"E  c #CFB211",
"W  c #E2B10B",
"Q  c #D09032",
"!  c #FC9A34",
"~  c #D3B827",
"^  c #CCB630",
"/  c #EBB934",
"(  c #EC8D18",
")  c #BACF19",
"_  c #A3CC36",
"`  c #B6CC31",
"'  c #AFDE37",
"]  c #C9C60C",
"[  c #CBC717",
"{  c #D4CA17",
"}  c #DAD818",
"|  c #D1CF12",
" . c #E6D919",
".. c #F1CE17",
"X. c #DAE91C",
"o. c #F9F80E",
"O. c #E9E818",
"+. c #F6EA17",
"@. c #EBF419",
"#. c #F5F514",
"$. c #FBF613",
"%. c #F5FB13",
"&. c #FCFC14",
"*. c #F4FB1B",
"=. c #FBFB1A",
"-. c #F8F41A",
";. c #EEED0E",
":. c #C6C729",
">. c #C5D526",
",. c #D9DA27",
"<. c #C8D937",
"1. c #D3CC35",
"2. c #E8D727",
"3. c #F3CC38",
"4. c #D8E626",
"5. c #D3F138",
"6. c #E6E526",
"7. c #F6E726",
"8. c #EBF92A",
"9. c #FBF524",
"0. c #FBFB23",
"q. c #F7F927",
"w. c #F7E837",
"e. c #F9F536",
"r. c #E7F137",
"t. c #8B8957",
"y. c #958A59",
"u. c #949249",
"i. c #AD9550",
"p. c #91B44C",
"a. c #B1B04E",
"s. c #888869",
"d. c #888679",
"f. c #979675",
"g. c #938C74",
"h. c #AD9670",
"j. c #AFAA6E",
"k. c #90AB69",
"l. c #CF954E",
"z. c #CEB050",
"x. c #CFB76B",
"c. c #E0A861",
"v. c #99C749",
"b. c #85CB56",
"n. c #91D050",
"m. c #ABD046",
"M. c #B4EA4E",
"N. c #85CB64",
"B. c #ABF66C",
"V. c #98F172",
"C. c #D2CE4E",
"Z. c #EAC756",
"A. c #EACF4A",
"S. c #D2F74C",
"D. c #F9E849",
"F. c #F7F548",
"G. c #F6E856",
"H. c #EDED4F",
"J. c #CAC769",
"K. c #D5CE6F",
"L. c #E9D674",
"P. c #F1EA71",
"I. c #C6FC67",
"U. c #787B83",
"Y. c #417482",
"T. c #1B7484",
"R. c #847D84",
"E. c #329392",
"W. c #38BB86",
"Q. c #26BB98",
"!. c #35AE94",
"~. c #1DBCB8",
"^. c #1CB6B0",
"/. c #38ABA8",
"(. c #27B9A8",
"). c #35ABB2",
"_. c #25B8B8",
"`. c #2FAFB0",
"'. c #1B9CA0",
"]. c #519591",
"[. c #6E8E8C",
"{. c #4CAB91",
"}. c #6CA598",
"|. c #4CACAA",
" X c #70B2AF",
".X c #4F98A5",
"XX c #2BC292",
"oX c #1BC2BC",
"OX c #1CC1B3",
"+X c #1BC2AC",
"@X c #24C2AA",
"#X c #4AC688",
"$X c #5AC5BC",
"%X c #1CBDC8",
"&X c #1ABDD4",
"*X c #26BCC5",
"=X c #2FB7CA",
"-X c #1AC3C4",
";X c #1AC5CB",
":X c #19C1D3",
">X c #2CC8CD",
",X c #4DCDCC",
"<X c #73E5E2",
"1X c #63BDC2",
"2X c #878587",
"3X c #958A86",
"4X c #9A978A",
"5X c #969896",
"6X c #A8958E",
"7X c #94A594",
"8X c #A9A499",
"9X c #B6B299",
"0X c #90AFAC",
"qX c #B4B3B0",
"wX c #9C99A0",
"eX c #D3AE9B",
"rX c #CDAF96",
"tX c #EEAC92",
"yX c #C9B4AC",
"uX c #EFA7AF",
"iX c #C2948E",
"pX c #B3C6B6",
"aX c #8ED2AA",
"sX c #D2CD8E",
"dX c #E8D690",
"fX c #DEE393",
"gX c #E9E589",
"hX c #E4E599",
"jX c #F7EF8F",
"kX c #D3CBAF",
"lX c #E8CFAE",
"zX c #FBFBB7",
"xX c #F5ECB1",
"cX c #C7BEC5",
"vX c #AFD0CE",
"bX c #B6F5F1",
"nX c #96E4DC",
"mX c #CAC4C6",
"MX c #DBD4C9",
"NX c #D2D1D2",
"BX c #E7D5CF",
"VX c #D9E8DA",
"CX c #E9E6D9",
"ZX c #F9F5D8",
"AX c #F5EDCA",
"SX c #DAE7E8",
"DX c #CEF1F1",
"FX c #E9E9E8",
"GX c #F2EAE8",
"HX c #F9F7E9",
"JX c #F4F4F3",
"KX c #ffFFFFFF",
"LX c #F9F8F6",
"PX c #EEF2F3",
"IX c #DEDBEA",
"UX c #B9B9C2",
/* pixels */
"KXKXKXKXKXKXKXKXKXKXKXKXKXKXKXKXKXKXKXKXKXKXKXKXKXKXKXKXKXKXKXKXKXKXKXKXKXKXKXKXKXKXKXKXKXKXKXKXKXKXKXKXKXKXKXKXKXKXKXKXKXKXKXKXKXKXKXKXKXKXKXKXKXKXKXKXKXKXKXKX",
"KXKXKXKXKXKXKXKXKXKXKXKXKXKXKXKXKXKXKXKXKXKXKXKXKXKXKXKXKXKXKXKXKXKXKXKXKXKXKXKXKXKXKXKXKXKXKXKXKXKXKXKXKXKXKXKXKXKXKXKXKXKXKXKXKXKXKXKXKXKXKXKXKXKXKXKXKXKXKXKX",
"KXKXKXKXKXKXKXKXKXKXKXKXKXKXKXKXKXKXKXKXKXKXKXKXKXKXKXKXKXKXKXDXNXSXSXFXSXSXSXSXSXvXVXDXPXKXKXKXKXKXKXKXKXKXKXKXKXKXKXKXKXKXKXKXKXKXKXKXKXKXKXKXKXKXKXKXKXKXKXKX",
"KXKXKXKXKXKXKXKXKXKXKXKXKXKXKXKXKXKXKXKXKXKXKXKXKXKXKXLXPXPXbXbX>X>X=X&X=X=X=X*X~.%X%X-X>X|.1XvXbXDXKXKXKXKXKXKXKXKXKXKXKXKXKXKXKXKXKXKXKXKXKXKXKXKXKXKXKXKXKXKX",
"KXKXKXKXKXKXKXKXKXKXKXKXKXKXKXKXKXKXKXKXKXKXKXKXKXLXFXDXDXbXbX<X>X:X&X&X:X:X;X;X-X-X-X;X;X_._.`.).*X=X XvXSXLXKXKXKXKXKXKXKXKXKXKXKXKXKXKXKXKXKXKXKXKXKXKXKXKXKX",
"KXKXKXKXKXKXKXKXKXKXKXKXKXKXKXKXKXKXKXKXKXKXKXLXkX7XaXnXnXnX<X<X>X%X%X&X:X:X;X-X-X-X-X-X-X~._.~._.~.%X_.)..XVXKXKXKXKXKXKXKXKXKXKXKXKXKXKXKXKXKXKXKXKXKXKXKXKXKX",
"KXKXKXKXKXKXKXKXKXKXKXKXKXKXKXKXKXKXKXKXKXKXLXMXvX0X$X$X,X,X>X>X;X;X;X%X%X-X-X~.oXoXoXoXoXoXoXoX%X%X~.~._./. XFXKXKXKXKXKXKXKXKXKXKXKXKXKXKXKXKXKXKXKXKXKXKXKXKX",
"KXKXKXKXKXKXKXKXKXKXKXKXKXKXKXKXKXKXKXKXKXKXZXVXbXnX$X@X;X>X>XoX_.-X~.oXoXoX~.~.OXOXOXOXOXoXoXoX~.~.~.~._.`.}.vXKXKXKXKXKXKXKXKXKXKXKXKXKXKXKXKXKXKXKXKXKXKXKXKX",
"KXKXKXKXKXKXKXKXKXKXKXKXKXKXKXKXKXKXKXKXKXPXVXbXnX<X,X>X>X-XoXoX_.(.@XOX+X^.+XQ.^.+XQ.+X^.+X+X+X+X_.~._._._./. XSXKXKXKXKXKXKXKXKXKXKXKXKXKXKXKXKXKXKXKXKXKXKXKX",
"KXKXKXKXKXKXKXKXKXKXKXLXKXKXKXKXKXKXKXKXIX7X0X<X<X,X>X>X;X-X>X_.(.Q.XXXXXXQ.Q.Q.Q.Q.Q.Q.Q.Q.@XQ.(.Q.(.(.@X(.!.{.}.SXLXKXKXKXKXKXKXKXKXKXKXKXKXKXKXKXKXKXKXKXKXKX",
"KXKXKXKXKXKXKXKXKXKXKXPXKXKXKXLXPXPXDX0X].].|.$XoX>X;X;X-X-XOXXXW.W.XXJ m m m m m J m m W.W.W.W.XXW.{.XXXXQ.{.{.].7XSXKXKXKXKXKXKXKXKXKXKXKXKXKXKXKXKXKXKXKXKXKX",
"KXKXKXKXKXKXKXFXqXqXpXvXvXvX1X|..X).).`.(.(.`._.oX>X;X;X-X>X(.XXJ D G D S D D D D D D D G D F F C F #X#X#X#X{.{.{.[.pXKXKXKXKXKXKXKXKXKXKXKXKXKXKXKXKXKXKXKXKXKX",
"KXKXKXKXKXKXKXqX< & ].E.'./.).).).).)././.{./.).|.).`.>X(.|.{.C G S S b.b.b.b.S S S S S b.N.N.N.N.S G G #XG }.{.Z B [.KXKXKXKXKXKXKXKXKXKXKXKXKXKXKXKXKXKXKXKXKX",
"KXKXKXKXKXKXKX5X$ Y.E.`._._._._._.`.).|.{.{.].[.}..X|.}.}.[.Z k.p.v._ _ _ _ _ _ _ _ _ _ ' m.v._ m.v.v.n.N.N.N.k.V V , JXKXKXKXKXKXKXKXKXKXKXKXKXKXKXKXKXKXKXKXKX",
"KXKXKXKXKXKXKXwX: M /.`.~.^._.*X*X).|.|.}.V V > k R.[.V V V t.L I ` ) [ ) >.>.) ) ) ) >.' >.>.:.) ` ` m.m.v.k.k.k.t.j GXKXKXKXKXKXKXKXKXKXKXKXKXKXKXKXKXKXKXKXKX",
"KXKXKXKXKXKXKXIX> U.]..X/././.).).|. X}.f.V j - f - f - ; ; f L I I ` >.} 4.X.X.X.X.X.@.6.4.6.4.4.,.>.>.` ` a.p.j.i.y.PXKXKXKXKXKXKXKXKXKXKXKXKXKXKXKXKXKXKXKXKX",
"KXKXKXKXKXKXKXKXJXIXNXpX}.{.|.|. X X0X0Xf.y.c t 6 + 6 + + - f L a.C.1.r.r.8.8.8.q.q.0.q.q.q.q.q.9.8.O.} >.` ` a.a.j.i.HXKXKXKXKXKXKXKXKXKXKXKXKXKXKXKXKXKXKXKXKX",
"KXKXKXKXKXKXKXKXKXKXKXKXSX[.0XaXvXbXNXkXj.g t 4 4 7 6 6 6 f 6XsXfXjXP.F.2. .@.*.*.=.=.=.=.=.$.=.=.*.*.X.X.>.<.1.C.z.z.AXKXKXKXKXKXKXKXKXKXKXKXKXKXKXKXKXKXKXKXKX",
"KXKXKXKXKXKXKXKXKXKXKXKXKXFX8XpXVXCXCXlXc.g i 0 5 8 8 7 6 x eXAXAXzXjXP.1.} @.*.%.%.%.#.$.$.o.%.*.%.*.*.8.8.,.,.:.^ ^ lXKXKXKXKXKXKXKXKXKXKXKXKXKXKXKXKXKXKXKXKX",
"KXKXKXKXKXKXKXKXKXKXKXKXKXKXrXdXzXAXAXlXc.s d 0 0 0 q 8 7 iXlXGXHXZXzXP.A.} O.;.%.%.o.o.$.&.o.%.%.%.%.*.0.q.6.,.{ [ :.K.KXKXKXKXKXKXKXKXKXKXKXKXKXKXKXKXKXKXKXKX",
"KXKXKXKXKXKXKXKXKXKXKXKXKXKXeXkXAXZXAXxXtX! s 0 p 0 q 8 7 x uXGXHXHXzXjXP.,.4.O.X.;.;.o.&.&.&.&.&.%.%.=.=.*.;.O.} { { E lXKXKXKXKXKXKXKXKXKXKXKXKXKXKXKXKXKXKXKX",
"KXKXKXKXKXKXKXKXKXKXKXKXKXHXlXAXZXHXZXZXxXdXl.l.s d 5 7 6 x BXGXLXHXZXzXjXP.H.>.} ;.;.o.&.&.&.&.&.&.%.&.=.%.%.;.@.6.2.{ R AXLXKXKXKXKXKXKXKXKXKXKXKXKXKXKXKXKXKX",
"KXKXKXKXKXKXKXKXKXKXKXKXKXCXlXFXHXHXHXZXzXdXc.l.Q s i 4 6 R.BXGXLXHXZXAXzXjXK.1.|  .;.o.&.&.&.&.&.&.&.&.&.%.%.%.$.-.O.| ) 1.AXKXKXKXKXKXKXKXKXKXKXKXKXKXKXKXKXKX",
"KXKXKXKXKXKXKXKXKXKXKXKXKXyXyXMXZXHXZXAXzXhXZ.z.Q Q 7 4 t x yXBXCXZXAXzXzXjXS.<.| } O.;.&.&.&.&.&.&.&.&.&.&.&.*.*.-.O.| E ] L.KXKXKXKXKXKXKXKXKXKXKXKXKXKXKXKXKX",
"KXKXKXKXKXKXKXKXKXKXKXKXmXl 3X8XqXkXkXAXxXfXJ.l.l.Q t 6 6 c k 6XqXkXkXfXxXjXS.1.[ } O.#.&.&.&.&.&.&.&.&.&.&.&.=.=.#.O.| ] ] :.ZXKXKXKXKXKXKXKXKXKXKXKXKXKXKXKXKX",
"KXKXKXKXKXKXKXKXKXKXKXBXyXj = + ; 3X6XsXhXfXJ.z.l.P i t @ + O = > [.f.9XfXgXK.` { } O.*.&.&.&.&.&.&.&.&.&.&.&.&.$.#.O.} ] ] E dXKXKXKXKXKXKXKXKXKXKXKXKXKXKXKXKX",
"KXKXKXKXKXKXKXKXKXKXKXAXkXj O O - s.4XsXfXfXK.a.z.l.j.h.h.- O O - > t.j.gXjXC.1.[ } O.#.=.=.&.&.&.&.&.&.&.&.&.&.&.%.#.O. .} :.Z.JXKXKXKXKXKXKXKXKXKXKXKXKXKXKXKX",
"KXKXKXKXKXKXKXKXKXKXLXZXxXA O O ; s.f.9XhXfXJ.C.J.x.dXdXsXf @ O ; t.u.a.L.gXC.:.[ } ;.#.&.&.&.&.&.&.&.&.&.&.&.&.&.=.=.-.7.6.,.^ xXKXKXKXKXKXKXKXKXKXKXKXKXKXKXKX",
"KXKXKXKXKXKXKXKXKXKXLXZXAXy.@ @ @ y.f.sXfXfXsXJ.J.J.jXzXhXh.@ O ; y.L a.K.P.C.>.] } ;.o.&.&.&.&.&.&.&.&.&.&.&.&.&.$.=.-.@.7.2.~ Z.HXKXKXKXKXKXKXKXKXKXKXKXKXKXKX",
"KXKXKXKXKXKXKXKXKXKXLXxXxXi.@ @ u.a.j.sXhXfXK.J.J.K.jXjXjXj.e @ L P I C.H.H.r.} }  .;.o.&.&.&.&.o.o.&.%.&.&.&.&.&.&.=.$.+.7.2.~ ~ dXKXKXKXKXKXKXKXKXKXKXKXKXKXKX",
"KXKXKXKXKXKXKXKXKXKXGXjXjXK.a.i.a.J.J.sXfXsXJ.j.K.K.P.jXjXsXJ.a.C.C.1.1.D.r.6.6.O.;.#.$.&.=.0.=.&.$.&.&.&.&.%.&.&.&.&.$.+.7...R ~ z.LXKXKXKXKXKXKXKXKXKXKXKXKXKX",
"KXKXKXKXKXKXKXKXKXKXxXP.P.P.L.L.fXdXkXfXkXkX9XsXsXsXL.P.P.P.P.G.G.w.r.w.8.e.q.q.@.#.$.-.9.7.....W .... .;.&.&.&.&.&.$.$.+.7. .R E ~ HXKXKXKXKXKXKXKXKXKXKXKXKXKX",
"KXKXKXKXKXKXKXKXKXKXjXF.F.G.P.gXfXsXlXBXAXBXkXkXsX9Xj.a.a.C.G.D.e.9.q.q.0.9.q.0.*.*.q.e.w.3.( a a a a ( ..o.$.&.%.o.&.&.$.7. .E ] :.ZXKXKXKXKXKXKXKXKXKXKXKXKXKX",
"KXKXKXKXKXKXKXKXKXKXP.F.e.F.P.fXsXkXMXGXFXFXNXmXqXqXf.t.i.a.C.F.9.$.*.=.*.=.=.*.*.*.*.w.3.! a 9 9 0 p a W ;.$.&.o.&.o.&.=.7. .| E ) CXKXKXKXKXKXKXKXKXKXKXKXKXKX",
"KXKXKXKXKXKXKXKXKXLXP.F.0.F.P.fXkXkXNXFXFXFXNXmXqX9Xg.t.L a.r.e.$.o.&.%.=.=.=.=.%.%.=.e.3.! p 9 3 9 0 a W +.$.&.o.&.o.&.#.7.} [ ) ^ ZXKXKXKXKXKXKXKXKXKXKXKXKXKX",
"KXKXKXKXKXKXKXKXKXKXP.e.q.F.gXlXkXmXNXIXIXNXvXqXqX8X3Xt.u.:.1.q.&.o.&.&.&.&.=.&.%.%.=.w.3.! d 9 9 9 5 p W +.$.&.&.&.o.&.-.7. .] [ :.CXKXKXKXKXKXKXKXKXKXKXKXKXKX",
"KXKXKXKXKXKXKXKXKXKXP.r.-.F.gXdXyXmXNXNXmXUXqXwX5X3Xs.t.L C.,.q.&.o.&.&.&.&.=.=.%.%.=.w.3.! d 9 9 9 0 a W ;.$.&.&.&.&.&.=.O.} | R ^ ZXKXKXKXKXKXKXKXKXKXKXKXKXKX",
"KXKXKXKXKXKXKXKXKXKXgX7.=.F.P.lXlXcXcXcXUXqXwX2XV d.s.y.u.I r.e.%.&.&.&.=.&.$.&.%.%.q.w.3.! d 9 9 9 0 a W +.$.&.&.&.&.&.*.8.} [ [ :.PXKXKXKXKXKXKXKXKXKXKXKXKXKX",
"KXKXKXKXKXKXKXKXKXKXjX7.-.F.P.dXdXkXcXyXyXqX4Xd.s.s.t.u.U ^ ,.q.%.&.&.&.=.$.$.&.&.#.-.3./ ! p 0 0 0 a a W ;.o.&.&.&.&.&.*.@.} { :.z.KXKXKXKXKXKXKXKXKXKXKXKXKXKX",
"KXKXKXKXKXKXKXKXKXKXjXw.9.e.G.P.L.L.sXrXj.k.u.t.u.L L U U :.6.9.%.&.=.=.=.-.-.e.w.2.R ~ Y T a a a a ( W ..o.o.o.&.&.&.&.@.X.X.:.^ K.KXKXKXKXKXKXKXKXKXKXKXKXKXKX",
"KXKXKXKXKXKXKXKXKXKXjX7.O.9.e.e.D.G.S.C.I L L L U U U ) ] } O.=.%.&.=.*.0.9.7.3.A./ r e e e E E ......+.o.o.&.&.&.&.o.o.;.X.X.) z.hXKXKXKXKXKXKXKXKXKXKXKXKXKXKX",
"KXKXKXKXKXKXKXKXKXKXxX3. .@.9.q.e.F.H.A.C.I I I ^ 1. .} 2.O.@.-.&.%.=.q.e.2.~ E K y r r K K E X.+.$.o.o.&.&.&.&.&.o.o.;.X.} [ ` K.JXKXKXKXKXKXKXKXKXKXKXKXKXKXKX",
"KXKXKXKXKXKXKXKXKXKXGXA.{ 4.w.e.F.F.G.G.H.C.r.A.A.D.D.D.w.w.e.7.9.7.e.w.D.3.T e w e K T E E  .;.o.o.&.&.&.&.=.=.=.#.;.} | | E ^ AXKXKXKXKXKXKXKXKXKXKXKXKXKXKXKX",
"KXKXKXKXKXKXKXKXKXKXKXLXhXA.w.D.D.D.G.G.P.G.G.G.G.G.D.A.D.w.w.w.D.w.w.w.G.c.i w @ e K E ] ..;.;.o.o.&.&.&.&.=.=.=.@.} ] ] E ~ K.LXKXKXKXKXKXKXKXKXKXKXKXKXKXKXKX",
"KXKXKXKXKXKXKXKXKXKXKXKXKXhXA.A.A.Z.Z.C.Z.C.Z.Z.Z.Z.Z.Z.A.Z./ Z./ A./ Z.Z.Q r e w e T E  .;.;.o.o.o.&.&.&.=.=.0.=.+...] E { / AXKXKXKXKXKXKXKXKXKXKXKXKXKXKXKXKX",
"KXKXKXKXKXKXKXKXKXKXKXKXKXlXQ P P P u P u u u u y s y y y u y y y r r r r a r r T E R  .+.;.#.o.&.&.&.&.&.=.0.0.9.#...| W { dXKXKXKXKXKXKXKXKXKXKXKXKXKXKXKXKXKX",
"KXKXKXKXKXKXKXKXKXKXKXKXKXGXi.u h h h h g g g g g g g g g g g s h u u y i r Y E W { ..+.+.-.$.$.&.&.&.&.=.=.9.9.9.+...R W z.CXKXKXKXKXKXKXKXKXKXKXKXKXKXKXKXKXKX",
"KXKXKXKXKXKXKXKXKXKXKXKXKXKXrXh j.rXrXrXrXrXeXeXeXeXeXeXeXeXeXrXrXc.c.h.P Y ~ 2.O.+.$.$.=.=.=.$.o.o.o.&.&.=.=.-.+.+...{ Y AXKXKXKXKXKXKXKXKXKXKXKXKXKXKXKXKXKXKX",
"KXKXKXKXKXKXKXKXKXKXKXKXKXKXCX6XlXGXHXPXHXLXJXJXLXJXLXJXJXJXHXHXZXzXxXhXC.:.2.+.=.&.o.$.$.=.&.&.&.%.%.%.&.o.&.$.$.+.2.3.c.LXKXKXKXKXKXKXKXKXKXKXKXKXKXKXKXKXKXKX",
"KXKXKXKXKXKXKXKXKXKXKXKXKXKXKXyXBXJXLXLXLXLXPXPXJXJXJXJXGXGXGXHXZXAXzXgXC.,.6.-.=.&.&.&.&.&.&.&.%.%.%.o.&.$.o.o.+.7.,.^ z.GXKXKXKXKXKXKXKXKXKXKXKXKXKXKXKXKXKXKX",
"KXKXKXKXKXKXKXKXKXKXKXKXKXKXKXFXeXMXMXBXuXuXuXuXuXuXuXuXtXuXtXtXtXtXc.x.z.,.6.#.$.=.=.&.&.&.=.&.o.o.o.o.&.=.@.6.4.' m.a.j.yXGXKXKXKXKXKXKXKXKXKXKXKXKXKXKXKXKXKX",
"KXKXKXKXKXKXKXKXKXKXKXKXKXKXKXLXiXiXiXb b b v v v v v v v v v v v s s s Q 2.O.#.$.=.$.$.$.=.=.=.&.&.&.&.=.8.5.' m.n.n.S Z }.wXJXKXKXKXKXKXKXKXKXKXKXKXKXKXKXKXKX",
"KXKXKXKXKXKXKXKXKXKXKXKXKXKXKXKX9Xl z c 6 3 3 3 q 3 3 3 3 3 3 2 2 2 4 e T R O.+.=.$.$.$.$.=.=.=.=.&.*.8.e.r.' ' n.n.S Z B ].[.qXKXKXKXKXKXKXKXKXKXKXKXKXKXKXKXKX",
"KXKXKXKXKXKXKXKXKXKXKXKXKXKXKXKXMXl z t 7 3 7 3 9 3 3 3 3 3 2 2 2 + 4 e T { 2.-.-.o.$.$.&.&.0.q.8.8.8.r.H.H.' _ b.Z C C W.|.}.f.BXKXKXKXKXKXKXKXKXKXKXKXKXKXKXKX",
"KXKXKXKXKXKXKXKXKXKXKXKXKXKXKXKXGXg.k c h d d p p p 0 p p p p i p e r K R 2.7.9.-.$.$.$.=.0.*.@.5.5.M.<.<.I L n @ N M !.!./.{.y.l.BXKXKXKXKXKXKXKXKXKXKXKXKXKXKX",
"KXKXKXKXKXKXKXKXKXKXKXKXKXKXKXKXKX4Xg.h.i.s Q T T T Y Y T ( Y Y T E E ]  .7.9.0.0.=.=.9.0.8.8.5.M.M.n.v.u.A 9XMXkX}.& M E.E.B t.Q c.L.dXHXKXKXKXKXKXKXKXKXKXKXKX",
"KXKXKXKXKXKXKXKXKXKXKXKXKXKXKXKXKX8XA y.a.I ^ ] ] ] { }  . . . .} } X.O.;.*.*.0.q.0.q.q.e.8.X.' n.S Z A ; NXKXKXKXLXNX].& & < @ P A.G.D.P.xXKXKXKXKXKXKXKXKXKXKX",
"KXKXKXKXKXKXKXKXKXKXKXKXKXKXKXKXKXyXs.u.u.P U ) ) >.X.X.@.@.8.*.*.%.*.*.*.8.8.8.8.r.e.F.S.S.' _ S C m M : KXKXKXKXKXKXPXIXPXPXj.K 1.D.F.G.Z.xXKXKXKXKXKXKXKXKXKX",
"KXKXKXKXKXKXKXKXKXKXKXKXKXKXKXKXKXpXs.y.i.a.I I ) 5.r.r.8.8.*.*.*.q.q.8.8.5.5.S.S.S.I.I.I.B.B.H D XX!.* B LXKXKXKXKXKXKXKXKXKXVXi.C.P.G.P.G.lXKXKXKXGXLXKXKXKXKX",
"KXKXKXKXKXKXKXKXGXMXGXKXKXKXKXKXPX8Xd.t.y.y.u.a.` ` 5.5.8.@.@.@.@.@.8.8.5.5.M.B.M.B.B.B.V.aXH D XXXXQ.E.& JXKXKXKXKXKXKXKXKXKXFXh.P m.<.A.C.K.CXJXBXR.yXKXKXKXKX",
"KXKXKXKXKXKXKXCXiX6XiXMXJXKXKXJXqXR.k , ; ; A u.n.v.m.M.S.' <.>.<.<.<.<.S.m.m.n.n.N.N.G G F F W.XX@X(.!.B 0XKXKXKXKXKXKXKXKXKXKXFX9Xu.L a.K.J.x.9X6Xz l GXKXKXKX",
"KXKXKXKXKXKXKXGXeXrXyXyX8X8X6XR.> > > : M N N C Z G G S b.n.v.p.U L U L L n L n n N N N M M m Q.Q.Q.Q./.].: FXKXKXKXKXKXKXKXKXKXKXKXLXf.y.k.j.j.h.j l cXLXKXKXKX",
"KXKXKXKXKXKXKXLXcXR.g.6X4X6X4X3XU.[.U.].].m W.m J {.C F D C Z A @ N s.k.f.f.s.V 2X7XV N * M M Q.Q.+X(./.].: qXKXKXKXKXKXKXKXKXKXKXKXKXKXLXCX4X; @ - GXKXKXKXKXKX",
"KXKXKXKXKXKXKXKXLXiXz k g.8X6XwXU.[.[.]./.`.(.@XQ.Q.Q.W.#X{.N V MXLXLXKXKXKXKXKXKXKXKXVXB . % /.(._.(.{..X: [.PXKXKXKXKXKXKXKXKXKXKXKXKXKXKXKXLXPXLXKXKXKXKXKXKX",
"KXKXKXKXKXKXKXKXKXMXj j s.4X8X8X2XU.[..X).&X&X&X'.&X~._.(.{.].FXKXKXKXKXKXKXKXKXKXKXKXKXUX* T.'.).`.^.E.].& # 0XLXKXLXLXLXKXKXKXKXKXKXKXKXKXKXKXKXKXKXKXKXKXKXKX",
"KXKXKXKXKXKXKXKXKXLXqXj s.4X6X4X2X[.U..X'.'.&X&X&X&X%X^.`.!.}.LXKXKXKXKXKXKXKXKXKXKXKXKXNX$ * T.T.% M % % $ # = R.wXR.wXcXJXKXKXKXKXKXKXKXKXKXKXKXKXKXKXKXKXKXKX",
"KXKXKXKXKXKXKXKXKXKXLXmX3X6Xg.3XR.U.Y.Y.T.'.'.&X&X&X%X`.E.].mXKXKXKXKXKXKXKXKXKXKXKXKXKXLXqXo . . . . . . . # = < , R.R.R.> qXKXKXKXKXKXKXKXKXKXKXKXKXKXKXKXKXKX",
"KXKXKXKXKXKXKXKXKXKXKXKXGXyX8X3XR.R.U.Y.* T.'.&X&X%X~.).].vXKXKXKXKXKXKXKXKXKXKXKXKXKXKXLXPXo             . = , U.R.R.2XR.- = NXKXKXKXKXJXKXKXKXKXKXKXKXKXKXKXKX",
"KXKXKXKXKXKXKXKXKXKXKXKXKXKXKXJXIXyX[.$ # * '.'._.)./..X0XLXKXKXKXKXKXKXKXKXKXKXKXKXKXKXKXFXo             X < U.R.R.> > > < X 3XKXKXKXKXJXKXKXKXKXKXKXKXKXKXKXKX",
"KXKXKXKXKXKXKXKXKXKXKXKXKXKXKXKXKXKXPXwX$ * * * % * * : JXKXKXKXKXKXKXKXKXKXKXKXKXKXKXKXJXqX= O = 1 X X 1 = , U.U., < = O = 4XGXKXKXKXKXKXKXKXKXKXKXKXKXKXKXKXKX",
"KXKXKXKXKXKXKXKXKXKXKXKXKXKXKXKXKXKXKXKXIX5X: # . . . 5XKXKXKXKXKXKXKXKXKXKXKXKXKXLXGXmX8X2X> , , , - , , - , , , < # = wXFXKXKXKXKXKXKXKXKXKXKXKXKXKXKXKXKXKXKX",
"KXKXKXKXKXKXKXKXKXKXKXKXKXKXKXKXKXKXKXKXKXKXKXFXUXwX> GXKXKXKXKXKXKXKXKXKXKXKXKXKXqX8X8X6X4Xd.k R.R.R.R.R.U.- = = k qXLXKXKXKXKXKXKXKXKXKXKXKXKXKXKXKXKXKXKXKXKX",
"KXKXKXKXKXKXKXKXKXKXKXKXKXKXKXKXKXKXKXKXKXKXKXKXLXLXKXKXKXKXKXKXKXKXKXKXKXKXKXKXCX2Xd.2X2Xd.R.l R.l l R.l - - R.mXKXKXKXKXKXKXKXKXKXKXKXKXKXKXKXKXKXKXKXKXKXKXKX",
"KXKXKXKXKXKXKXKXKXKXKXKXKXKXKXKXKXKXKXKXKXKXKXKXKXKXKXKXKXKXKXKXKXKXKXKXKXKXKXKXFX4Xd.d.k l l l z R.x R.6XcXKXKXKXKXKXKXKXKXKXKXKXKXKXKXKXKXKXKXKXKXKXKXKXKXKXKX",
"KXKXKXKXKXKXKXKXKXKXKXKXKXKXKXKXKXKXKXKXKXKXKXKXKXKXKXKXKXKXKXKXKXKXKXKXKXKXKXKXKXLXNX8X8XyXMXGXLXLXLXLXKXKXKXKXKXKXKXKXKXKXKXKXKXKXKXKXKXKXKXKXKXKXKXKXKXKXKXKX",
"KXKXKXKXKXKXKXKXKXKXKXKXKXKXKXKXKXKXKXKXKXKXKXKXKXKXKXKXKXKXKXKXKXKXKXKXKXKXKXKXKXKXKXKXKXKXKXKXKXKXKXLXKXKXKXKXKXKXKXKXKXKXKXKXKXKXKXKXKXKXKXKXKXKXKXKXKXKXKXKX",
"KXKXKXKXKXKXKXKXKXKXKXKXKXKXKXKXKXKXKXKXKXKXKXKXKXKXKXKXKXKXKXKXKXKXKXKXKXKXKXKXKXKXKXKXKXKXKXKXKXKXKXKXKXKXKXKXKXKXKXKXKXKXKXKXKXKXKXKXKXKXKXKXKXKXKXKXKXKXKXKX",
"KXKXKXKXKXKXKXKXKXKXKXKXKXKXKXKXKXKXKXKXKXKXKXKXKXKXKXKXKXKXKXKXKXKXKXKXKXKXKXKXKXKXKXKXKXKXKXKXKXKXKXKXKXKXKXKXKXKXKXKXKXKXKXKXKXKXKXKXKXKXKXKXKXKXKXKXKXKXKXKX",
"KXKXKXKXKXKXKXKXKXKXKXKXKXKXKXKXKXKXKXKXKXKXKXKXKXKXKXKXKXKXKXKXKXKXKXKXKXKXKXKXKXKXKXKXKXKXKXKXKXKXKXKXKXKXKXKXKXKXKXKXKXKXKXKXKXKXKXKXKXKXKXKXKXKXKXKXKXKXKXKX",
"KXKXKXKXKXKXKXKXKXKXKXKXKXKXKXKXKXKXKXKXKXKXKXKXKXKXKXKXKXKXKXKXKXKXKXKXKXKXKXKXKXKXKXKXKXKXKXKXKXKXKXKXKXKXKXKXKXKXKXKXKXKXKXKXKXKXKXKXKXKXKXKXKXKXKXKXKXKXKXKX"
};
