/* XPM */
static char *_641506391877[] = {
/* columns rows colors chars-per-pixel */
"80 80 256 2 ",
"   c #090302",
".  c #160705",
"X  c #15111B",
"o  c #23110B",
"O  c #2F290D",
"+  c #2C2F37",
"@  c #4E3732",
"#  c #733C2E",
"$  c #43340B",
"%  c #1B433B",
"&  c #744C30",
"*  c #5E5D2A",
"=  c #29374B",
"-  c #334F51",
";  c #2F5964",
":  c #2A696A",
">  c #1D6762",
",  c #514C54",
"<  c #70504E",
"1  c #6F7056",
"2  c #557172",
"3  c #6B6869",
"4  c #776969",
"5  c #6A6A74",
"6  c #776C73",
"7  c #797477",
"8  c #757370",
"9  c #5A6A63",
"0  c #413F59",
"q  c #B61A0B",
"w  c #AF1B10",
"e  c #992B08",
"r  c #B0310C",
"t  c #9C2723",
"y  c #C63315",
"u  c #C81508",
"i  c #91520E",
"p  c #AF540D",
"a  c #916D17",
"s  c #B27012",
"d  c #8F512C",
"f  c #8F6F2B",
"g  c #AB7628",
"h  c #B6742C",
"j  c #BA5B2F",
"k  c #C75615",
"l  c #C97014",
"z  c #C8762F",
"x  c #CA5730",
"c  c #847655",
"v  c #867878",
"b  c #8C766B",
"n  c #AC7269",
"m  c #CB7E6B",
"M  c #769A35",
"N  c #38A878",
"B  c #2F907E",
"V  c #708C4C",
"C  c #71B050",
"Z  c #4F8E72",
"A  c #6D926D",
"S  c #4FAD70",
"D  c #6CAE6B",
"F  c #5A9E58",
"G  c #72C564",
"H  c #A69B15",
"J  c #B88F0F",
"K  c #B7B516",
"L  c #B2B116",
"P  c #928E33",
"I  c #AD942B",
"U  c #8FAF30",
"Y  c #B9B628",
"T  c #B4B637",
"R  c #ADAD2F",
"E  c #989F1A",
"W  c #CC9414",
"Q  c #C4BA17",
"!  c #D6B61A",
"~  c #CDAF11",
"^  c #D0902E",
"/  c #D9A628",
"(  c #D6B528",
")  c #CFB332",
"_  c #E8B32F",
"`  c #E49D29",
"'  c #B4C515",
"]  c #B6D335",
"[  c #B8E436",
"{  c #95C33E",
"}  c #C7C719",
"|  c #D7C917",
" . c #CDD418",
".. c #D8D819",
"X. c #D4C10D",
"o. c #E5DB1A",
"O. c #E4C91B",
"+. c #DBE61B",
"@. c #C8E41F",
"#. c #E5ED0E",
"$. c #ECEC0D",
"%. c #E5E513",
"&. c #EBE614",
"*. c #E5EA12",
"=. c #EBEA12",
"-. c #E4E41C",
";. c #EBE51B",
":. c #EBE91A",
">. c #E5EB1A",
",. c #F0EC10",
"<. c #D7CA28",
"1. c #D9D82A",
"2. c #C7C838",
"3. c #D7D737",
"4. c #CCCF31",
"5. c #EAC929",
"6. c #E8DA27",
"7. c #E8C936",
"8. c #E8D936",
"9. c #C9E729",
"0. c #D7E426",
"q. c #DBE334",
"w. c #EAE322",
"e. c #E7E826",
"r. c #E7E738",
"t. c #8B8459",
"y. c #96924F",
"u. c #AE904D",
"i. c #91AF57",
"p. c #B9B945",
"a. c #B9B859",
"s. c #AEAE4D",
"d. c #948F70",
"f. c #AB9B71",
"g. c #92A96B",
"h. c #B1B26E",
"j. c #CC924C",
"k. c #CAB54F",
"l. c #CC936C",
"z. c #CAB76C",
"x. c #E3AA78",
"c. c #8ECC51",
"v. c #B1C74C",
"b. c #89D164",
"n. c #B8CB68",
"m. c #D5D748",
"M. c #C7C457",
"N. c #D0CE4C",
"B. c #E6DA46",
"V. c #E5D154",
"C. c #D7E34C",
"Z. c #E9E847",
"A. c #ECEB55",
"S. c #D0CD6F",
"D. c #E9E76A",
"F. c #EAE878",
"G. c #E4D577",
"H. c #767584",
"J. c #497F85",
"K. c #397182",
"L. c #85798A",
"P. c #BF7D85",
"I. c #C47A88",
"U. c #329292",
"Y. c #29A898",
"T. c #34A99A",
"R. c #30B18F",
"E. c #1CACA9",
"W. c #19B4AC",
"Q. c #1BACB4",
"!. c #1AB3B3",
"~. c #18B4B9",
"^. c #26A9A9",
"/. c #35A7A6",
"(. c #26ACB3",
"). c #25B4BA",
"_. c #32AFB0",
"`. c #23A29F",
"'. c #479899",
"]. c #518F89",
"[. c #70928D",
"{. c #4AAE89",
"}. c #4E9BA7",
"|. c #6B99A1",
" X c #45A5A7",
".X c #4FAEB0",
"XX c #70ABAF",
"oX c #72AA8C",
"OX c #3BC498",
"+X c #5CC1B7",
"@X c #19B1C3",
"#X c #33B5C5",
"$X c #71BDC2",
"%X c #56B9C2",
"&X c #6CC6C8",
"*X c #5AC5D2",
"=X c #8D8789",
"-X c #989898",
";X c #918E91",
":X c #AB9393",
">X c #98A49C",
",X c #B2AD94",
"<X c #A597A8",
"1X c #90B0AE",
"2X c #ABA6A7",
"3X c #B5A9A8",
"4X c #B8B5B6",
"5X c #B4B0B2",
"6X c #9C91A4",
"7X c #C99B88",
"8X c #C9908D",
"9X c #CCB68F",
"0X c #C7BBB8",
"qX c #D3B2AF",
"wX c #E7B5BC",
"eX c #E8BAAB",
"rX c #E1B29B",
"tX c #94C6BD",
"yX c #D9D58A",
"uX c #D2CC92",
"iX c #E9D494",
"pX c #EAE989",
"aX c #EBE897",
"sX c #C9C8B5",
"dX c #D3CEB0",
"fX c #E8D9B7",
"gX c #E8CDB0",
"hX c #DCE1B0",
"jX c #EAE7AA",
"kX c #E8E6B7",
"lX c #F2ECBC",
"zX c #DDE198",
"xX c #D8BEC3",
"cX c #B3CBCB",
"vX c #A3D9DD",
"bX c #C8C7C6",
"nX c #D8D7C5",
"mX c #D7D8D8",
"MX c #CFD3D0",
"NX c #E9C7CA",
"BX c #E7D9D7",
"VX c #E5D5CB",
"CX c #D6E4D9",
"ZX c #E9E7D8",
"AX c #F2EED0",
"SX c #D5E7E7",
"DX c #CCEAEC",
"FX c #E9E9E8",
"GX c #F5EBEA",
"HX c #F6F4EA",
"JX c #F4F4F4",
"KX c #ffFFFFFF",
"LX c #F8F8F6",
"PX c #EAF2F1",
"IX c #DBDFE1",
"UX c #AFBEC6",
/* pixels */
"KXKXKXKXKXKXKXKXKXKXKXKXKXKXKXKXKXKXKXKXKXKXKXKXKXKXKXKXKXKXKXKXKXKXKXKXKXKXKXKXKXKXKXKXKXKXKXKXKXKXKXKXKXKXKXKXKXKXKXKXKXKXKXKXKXKXKXKXKXKXKXKXKXKXKXKXKXKXKXKX",
"KXKXKXKXKXKXKXKXKXKXKXKXKXKXKXKXKXKXKXKXKXKXKXKXKXKXKXKXKXKXKXKXKXKXKXKXKXKXKXKXKXKXKXKXKXKXKXKXKXKXKXKXKXKXKXKXKXKXKXKXKXKXKXKXKXKXKXKXKXKXKXKXKXKXKXKXKXKXKXKX",
"KXKXKXKXKXKXKXKXKXKXKXKXKXKXKXKXKXKXKXKXKXKXKXKXKXKXKXKXKXKXKXKXKXKXKXKXKXKXKXKXKXKXKXKXKXKXKXKXKXKXKXKXKXKXKXKXKXKXKXKXKXKXKXKXKXKXKXKXKXKXKXKXKXKXKXKXKXKXKXKX",
"KXKXKXKXKXKXKXKXKXKXKXKXKXKXKXKXKXKXKXKXKXKXKXKXKXKXKXKXKXKXKXKXKXKXKXKXKXKXKXKXKXKXKXKXKXKXKXKXKXKXKXKXKXKXKXKXKXKXKXKXKXKXKXKXKXKXKXKXKXKXKXKXKXKXKXKXKXKXKXKX",
"KXKXKXKXKXKXKXKXKXKXKXKXKXKXKXKXKXKXKXKXKXKXKXKXKXKXKXKXKXKXKXKXKXKXKXKXKXKXKXKXKXKXKXKXKXKXKXKXKXKXKXKXKXKXKXKXKXKXKXKXKXKXKXKXKXKXKXKXKXKXKXKXKXKXKXKXKXKXKXKX",
"KXKXKXKXKXKXKXKXKXKXKXKXKXKXKXKXKXKXKXKXKXKXKXKXKXKXKXKXKXKXKXKXKXKXKXKXKXKXKXKXKXKXKXKXKXKXKXKXKXKXKXKXKXKXKXKXKXKXKXKXKXKXKXKXKXKXKXKXKXKXKXKXKXKXKXKXKXKXKXKX",
"KXKXKXKXKXKXKXKXKXKXKXKXKXKXKXKXKXKXKXKXKXKXKXKXKXKXKXKXKXKXKXKXKXJXPXSXSXSXSXSXDXSXSXDXDXSXSXCXSXSXSXPXJXLXKXKXKXKXKXKXKXKXKXKXKXKXKXKXKXKXKXKXKXKXKXKXKXKXKXKX",
"KXKXKXKXKXKXKXKXKXKXKXKXKXKXKXKXKXKXKXKXKXKXKXKXKXKXKXKXKXPXDXvXvX&X%X/./.^.^.^.^.^.^.(.^.^.^.^.`./.^./._..X+XtXMXJXKXKXKXKXKXKXKXKXKXKXKXKXKXKXKXKXKXKXKXKXKXKX",
"KXKXKXKXKXKXKXKXKXKXKXKXKXKXKXKXKXKXKXKXKXKXKXKXKXKXKXDXvX$X$X$X*X#X@X@X~.~.~.~.~.~.~.W.Q.!.W.W.W.W.~.~.W.W.W.E.Y..X1XFXLXKXKXKXKXKXKXKXKXKXKXKXKXKXKXKXKXKXKXKX",
"KXKXKXKXKXKXKXKXKXKXKXKXKXKXKXKXKXKXKXKXKXKXKXKXKXLXtX.X X X X/.#X#X@X@X~.~.~.~.~.~.~.~.~.!.W.W.W.~.~.~.W.W.W.E.^. X}.}.UXLXKXKXKXKXKXKXKXKXKXKXKXKXKXKXKXKXKXKX",
"KXKXKXKXKXKXKXKXKXKXKXKXKXKXKXKXKXKXKXKXKXKXKXKXvX&X_.#XQ.Q.^.E.Q.~.@X@X~.~.~.@X@X~.~.~.~.!.~.~.W.~.~.~.~.~.~.!.~.).#X.X}.1XFXKXKXKXKXKXKXKXKXKXKXKXKXKXKXKXKXKX",
"KXKXKXKXKXKXKXKXKXKXKXKXKXKXKXKXKXKXKXKXKXKXKXPX%X(.#X).!.Q.(.Q.!.!.!.).).W.!.).E.Q.Q.Q.(.(.^.(.W.W._.W._.).(.Q.).#X#X.X#X}.cXLXKXKXKXKXKXKXKXKXKXKXKXKXKXKXKXKX",
"KXKXKXKXKXKXKXKXKXKXKXKXKXKXKXKXKXKXKXKXKXKXKXKX$XQ.@XQ.!.W.E.E.^.^.Y.R.R.R.R.T.T.T. XT. X X'.U. X'.'. X}.}./._.(.#X_.#X}.}.|.JXKXKXKXKXKXKXKXKXKXKXKXKXKXKXKXKX",
"KXKXKXKXKXKXKXKXKXKXKXKXKXKXKXKXKXKXKXKXKXKXKXPX.XQ.~.Q.!.!.E.W.W.R.OXN S N S {.{.{.{.{.oXoX[.J.Z 2 Z 2 J.H.J.K.U.(.).(.(.U.].IXKXKXKXKXKXKXKXKXKXKXKXKXKXKXKXKX",
"KXKXKXKXKXKXKXKXKXKXKXKXKXKXKXKXLXLXLXKXKXPXPX&X(.W.Q.!.W.W.!.W.R.S G D G C i.C i.C g.g.g.f.c d < d d # < < < : U.`./.^./.].J.mXKXKXKXKXKXKXKXKXKXKXKXKXKXKXKXKX",
"KXKXKXKXKXKXKXKXKXKXKXKXJXPXDXvXvX&X%X+X&X+XOXW.!.).).!.W.W.).OX{.S G c.U ' ' R Y R T s.j.j.x t t t w w w w # @ > U././.'.J.;XJXKXKXKXKXKXKXKXKXKXKXKXKXKXKXKXKX",
"KXKXKXKXKXKXKXKXKXLXSXcXXX_.(.^.(.E.R.R.R.R.OXOXOXOXOXOXOXOX{.{.G C { U ' Q Q Q ~ Q K / ` ^ x k y u u u q u e # : Z {.}.].8 3XKXKXKXKXKXKXKXKXKXKXKXKXKXKXKXKXKX",
"KXKXKXKXKXKXKXKXJX4X[.Z '.T.Y.U.U.N N F G G G c.G b.b.b.G b.b.c.c.] [  . .|  .| <.<.2.) ^ j.z z x x y y q q e i 1 D D A A 1 5XKXKXKXKXKXKXKXKXKXKXKXKXKXKXKXKXKX",
"KXKXKXKXKXKXKXKXFX5X>X-X[.[.J.Z Z F F { [ [ @.@.[ 9.9.9.9.9.q.q.+.0.0.+.#.+.+.0.1.4.2.v.k.z.j.l.l.m x r r r p a P y.y.y.u.c qXKXKXKXKXKXKXKXKXKXKXKXKXKXKXKXKXKX",
"KXKXKXKXKXKXKXKXKXKXLXLXLXIX-X9 * M M ] 9.@.#.@.#.+.*.%.$.,.,.:.:.*.:.*.*.:.e.q.4.N.N.D.S.yXuXiXrXrXj p p l l ^ I s.s.h.9X,XsXKXKXKXKXKXKXKXKXKXKXKXKXKXKXKXKXKX",
"KXKXKXKXKXKXKXKXKXKXKXKXKXKXLX0X* M R B.e.>.:.,.$.$.$.&.&.,.,.,.:.&.&.;.;.e.e.3.4.M.M.pXjXjXkXkXgXiXz j g / _ k.k.a.n.yXgXdXNXLXKXKXKXKXKXKXKXKXKXKXKXKXKXKXKXKX",
"KXKXKXKXKXKXKXKXKXKXKXKXKXKXKXJXt.a T B.e.:.,.,.$.$.&.$.,.,.,.,.,.,.,.;.w.e.r.3.] z.S.jXkXkXAXZXVXeXn f I _ B.V.k.z.uXkXAXVX0XGXKXKXKXKXKXKXKXKXKXKXKXKXKXKXKXKX",
"KXKXKXKXKXKXKXKXKXKXKXKXKXKXKXLXf.H k.r.r.:.,.,.,.,.,.,.,.,.$.$.,.,.:.;.;.6.1.m.M.S.zXkXAXZXZXFXBXgXl.u.) 3.B.V.S.uXuXkXZXZXxXwXJXKXKXKXKXKXKXKXKXKXKXKXKXKXKXKX",
"KXKXKXKXKXKXKXKXKXKXKXKXKXKXKXAXz.k.m.Z.e.:.,.,.,.,.&.$.&.$.$.$.$.,.,.;.| } 4.N.S.zXhXZXZXSXZXBXBXgXiXz.M.8.r.V.G.iXhXZXZXBXMX0XNXGXKXKXKXKXKXKXKXKXKXKXKXKXKXKX",
"KXKXKXKXKXKXKXKXKXKXKXKXKXKXLXjXG.D.D.A.r.:.,.,.,.=.$.,.$.$.$.$.$.#.>.-.| } Q M.yXjXnXCXbXcX5X>X-X,XuXyXD.Z.C.A.aXfXnXbXbXcX4X<XP.3XLXKXKXKXKXKXKXKXKXKXKXKXKXKX",
"KXKXKXKXKXKXKXKXKXKXKXKXKXLXAXfXjXaXpXF.Z.:.:.,.=.,.,.$.$.$.$.$.$.#.*.o.| K T M.zXnXbX4X>X-X5 , @ , f.zXF.Z.Z.D.jXfXnX4X2X;XH., @ # xXLXKXKXKXKXKXKXKXKXKXKXKXKX",
"KXKXKXKXKXKXKXKXKXKXKXKXAXgXjXAXAXlXaXF.A.>.,.>.$.$.$.$.$.$.#.#.#.#.#.+.<.Y T n.zXnXUX>X;XH.= X   O t.yXF.A.A.F.jXnX0X<XL.H.0 X . o < GXKXKXKXKXKXKXKXKXKXKXKXKX",
"KXKXKXKXKXKXKXKXKXKXKXLX9XuXjXlXlXjXaXF.Z.e.>.,.$.$.#.$.#.#.#.$.#.#.*.0.} Y p.n.hXMX4X;XH.H.=     O t.yXF.A.A.pXkXnX0X6XL.H.0 X   . @ 3XKXKXKXKXKXKXKXKXKXKXKXKX",
"KXKXKXKXKXKXKXKXKXKXKXAXS.iXaXlXjXpXF.A.r.:.,.#.#.$.#.=.#.$.$.$.$.$.*.1.<.] p.h.hXsX5X;X[.7 + .   O V yXF.A.Z.F.jXdX0X6XL.0 0 X   . @ b FXKXKXKXKXKXKXKXKXKXKXKX",
"KXKXKXKXKXKXKXKXKXKXLXiXD.G.aXaXaXF.A.r.e.:.#.,.#.#.#.*.,.,.,.,.=.$.:.e.1.2.p.S.uXsX2X;Xv 7 +     O c yXF.A.C.F.fXVX0X6XL.H., X . . @ c 2XLXKXKXKXKXKXKXKXKXKXKX",
"KXKXKXKXKXKXKXKXKXKXAXV.V.D.F.F.F.A.r.e.,.,.,.#.$.*.=.&.:.:.:.:.=.=.;.w.1.2.M.v.zXdX,Xd.d.1 O .   O y.jXpXD.F.pXlXfX0X:Xv 4 , o . o * 1 f.FXKXKXKXKXKXKXKXKXKXKX",
"KXKXKXKXKXKXKXKXKXKXaXV.A.A.A.A.A.r.e.,.:.,.,.>.=.$.&.:.:.;.;.;.;.;.;.0.1.2.N.k.S.zXuXh.d.b * O O * f.iXaXpXF.aXVXdXqX,Xf.c < $ O $ * t.d.mXKXKXKXKXKXKXKXKXKXKX",
"KXKXKXKXKXKXKXKXKXKXaXB.A.Z.Z.r.r.e.=.,.,.,.,.,.;.;.6.6.6.5.5.5.5.6.w.6.w.1.3.m.V.D.M.n.a.a.y.P P y.n.zXuXS.uXuXsXsXsX,Xh.h.u.y.P P P d.g.dXKXKXKXKXKXKXKXKXKXKX",
"KXKXKXKXKXKXKXKXKXKXlXZ.r.r.e.:.=.&.$.$.$.,.,.&.w.5.5./ / / / / / O.O.o.w.e.e.e.r.8.3.3.3.3.3.N.m.v.S.uXuXuX,XuXsXdX9XuXS.M.M.N.N.N.v.a.g.sXKXKXKXKXKXKXKXKXKXKX",
"KXKXKXKXKXKXKXKXKXKXHXA.r.,.,.,.$.$.$.$.$.$.,.;.8.5.W l j p p s s W ~ %.=.=.,.:.$.&.%.%.=.*.>.e.Z.C.a.s.h.3X0X4XbXhXuXS.M.N.B.B.Z.q.N.c.g.sXKXKXKXKXKXKXKXKXKXKX",
"KXKXKXKXKXKXKXKXKXKXHXA.e.,.$.$.$.$.$.$.$.$.,.w.5._ s p r e e e e s ~ O.:.=.,.,.=.$.=.*.*.#.*.e.q.C.a.y.f.3X4X0XnXVXhXyXS.k.3.B.q.q.N.v.i.sXKXKXKXKXKXKXKXKXKXKX",
"KXKXKXKXKXKXKXKXKXKXHXZ.>.#.$.$.$.$.$.$.,.,.,.o.7._ x y q q q q r s W O.&.=.$.=.$.=.=.#.#.#.>.e.q.C.s.g.d.2X4X0XMXhXdXuXS.M.N.B.q.q.2.s.i.nXKXKXKXKXKXKXKXKXKXKX",
"KXKXKXKXKXKXKXKXKXKXHX8.;.*.#.$.$.$.$.$.,.,.,.5._ _ l y u q q q r k ` O.;.=.$.$.$.=.#.$.,.#.>.>.q.N.s.t.d.6X<X3XsXdXsXuXz.z.N.m.Z.r.3.s.h.HXKXKXKXKXKXKXKXKXKXKX",
"KXKXKXKXKXKXKXKXKXKXAXr.;.*.#.#.#.$.$.$.,.&.,.;.5._ l k y y r q r p W ! o.&.,.$.,.#.$.>.>.>.>.e.q.N.s.y.d.=X;X;X,X,X9XuXS.k.k.8.8.6.2.s.,XKXKXKXKXKXKXKXKXKXKXKX",
"KXKXKXKXKXKXKXKXKXKXAX8.-.%.#.#.#.$.$.$.,.,.&.&.5.O.W l l l k k p s s W | o.&.=.>.#.#.#.$.$.>.e.q.N.s.y.c v L.v d.f.h.h.M.k.N.7.1.| 2.p.dXKXKXKXKXKXKXKXKXKXKXKX",
"KXKXKXKXKXKXKXKXKXKXAX8.w.,.#.%.#.#.=.=.=.&.=.;.6.6.5._ _ _ ` ` W s p a J ..$.#.#.#.%.*.*.*.*.0.q.m.p.y.y.d.b c t.i.s.a.M.V.7.Q Q Q Y s.GXLXKXKXKXKXKXKXKXKXKXKX",
"KXKXKXKXKXKXKXKXKXKXAX6.6.&.=.#.#.#.&.=.&.=.&.;.;.;.6.6.5._ ! / ` l i i W X.o.%.%.=.*.#.#.*.*.e.e.3.2.R y.b c c P y.s.T m.A.3.Q Q K R h.KXKXKXKXKXKXKXKXKXKXKXKX",
"KXKXKXKXKXKXKXKXKXKXAX7.6.&.,.#.#.#.+.&.;.&.&.&.&.&.-.-.6.6.| ! / ^ s i J ~ X. ...%.%.$.*.$.*.>.e.0.2.R I y.t.y.P R R 2.B.B.7.Q Q L T ZXKXKXKXKXKXKXKXKXKXKXKXKX",
"KXKXKXKXKXKXKXKXKXKXKXiXO.o.o.,.+.#.#.&.&.&.,.;.&.&.%.o.;.w.o.| ( W J s l s J J X.o.%.=.$.$.=.=.>.0.@.} ) p.p.T T ) ) <.8.Z.<.Q K Y dXKXKXKXKXKXKXKXKXKXKXKXKXKX",
"KXKXKXKXKXKXKXKXKXKXKXHX( X.o.&.$.%.&.&.:.&.&.,.&.&.o.&.*.:.e.w.r.7./ z k r e a W ..#.$.=.=.,.=.*.*.*.>.-.e.3.6.6.6.6.8.r.6.<.} Y a.LXKXKXKXKXKXKXKXKXKXKXKXKXKX",
"KXKXKXKXKXKXKXKXKXKXKXKXiX~ o.:.=.$.&.&.,.&.$.&.&.&.$.$.&.&.:.e.e.6./ ^ y w e i W X.-.>.:.;.w.:.:.:.&.*.&.;.w.;.-.6.r.B.8.5.<.) k.fXKXKXKXKXKXKXKXKXKXKXKXKXKXKX",
"KXKXKXKXKXKXKXKXKXKXKXKXHX) 5.6.w.;.&.&.&.$.&.&.%.&.=.=.&.&.w.e.e.1.O.` k p e p J ~ ~ ! ( ) ) ) ( Q ( ! ! ( / ( ( ( / _ _ k.R ^ 9XKXKXKXKXKXKXKXKXKXKXKXKXKXKXKX",
"KXKXKXKXKXKXKXKXKXKXKXKXKXAX) 7.6.6.&.&.&.&.&.&.&.=.=.=.=.:.:.:.w.w.5.! W l s s s s s g g h h g g I s g g s g s h h h h h h h f.HXKXKXKXKXKXKXKXKXKXKXKXKXKXKXKX",
"KXKXKXKXKXKXKXKXKXKXKXKXKXKXAXG.<.<...&.%.&.&.&.&.&.&.$.=.;.=.=.:.:.w.6._ / / W s i i i d d d d d d a d d d d j d d j d d d j xXKXKXKXKXKXKXKXKXKXKXKXKXKXKXKXKX",
"KXKXKXKXKXKXKXKXKXKXKXKXKXKXKXGXu.H Q +.:.&.&.&.%.%.%.o.;.;.=.&.*.&.:.w.o.7.7.) ^ u.u.l.7X7X7X8X:Xl.7X7X9X7X7X7X7X7X8XrXrXI.n BXKXKXKXKXKXKXKXKXKXKXKXKXKXKXKXKX",
"KXKXKXKXKXKXKXKXKXKXKXKXKXKXKXLXf.a E q.e.e.&.&.%.%.%.&.;.&.=.*.*.*.*.:.;.w.8.7.k.l.rXiXgXNXwXNXNXNXNXVXNXNXNXNXNXNXBXBXwXwXI.BXKXKXKXKXKXKXKXKXKXKXKXKXKXKXKXKX",
"KXKXKXKXKXKXKXKXKXKXKXKXKXKXKXGXt.* R 3.r.6.6.o.o.o.&.&.&.%.=.$.#.*.&.=.:.w.r.8.) z.7XrXeXwXwXwXwXwXwXwXwXwXwXwXgXwXNXNXNXqXI.BXKXKXKXKXKXKXKXKXKXKXKXKXKXKXKXKX",
"KXKXKXKXKXKXKXKXKXKXKXKXKXKXHX,X* * U T 4.<.O.O...&.o.;.;.&.%.=.=.%.#.=.&.;.e.1.7.k.l.f.m m m I.I.I.I.I.m P.m :X8X8X8XqXqXI.P.IXKXKXKXKXKXKXKXKXKXKXKXKXKXKXKXKX",
"KXKXKXKXKXKXKXGX8XeXVXZXBX0Xf.1 1 V M P T k.) ( | O.o.o.o.o.&.%.=.$.$.=.=.&.;.6.<.I g i # i d # # d # & # & # & # < d c n P.P.FXKXKXKXKXKXKXKXKXKXKXKXKXKXKXKXKX",
"KXKXKXKXKXKXJXl.k l ^ u.u.V V F Z V V 7XBXAXfXI J Q ( | | ..o.%.%.$.%.$.*.=.%.-.1.) I H a a a a d a a a a a f d f d < < qXFXFXLXKXKXKXKXKXKXKXKXKXKXKXKXKXKXKXKX",
"KXKXKXKXKXKXrXs L <.2.M.v.i.F Z U.A ,XLXKXKXKXgXP H R K Q X...%.=.=.=.=.$.=.=.#.+.<.! H H J H H H H H H H H E P P y.& :XJXKXKXLXKXKXKXKXKXKXKXKXKXKXKXKXKXKXKXKX",
"KXKXKXKXKXKXqXJ Q 8.C.C.n.b.D ].{.1XKXKXKXKXKXFXy.P P E L '  .@.%.=.#.%.%.#.%.#.-... .Q K L K K L L L L R L I R u.y.1 ZXKXKXKXKXKXKXKXKXKXKXKXKXKXKXKXKXKXKXKXKX",
"KXKXKXKXKXKX9XH } 1.C.C.n.b.D D }.SXKXKXKXKXKXJXd.V P U E ' ' @...o.%.%.%.%.#.%.>.+...} X.K ' K ' K L L L R T s.y.t.sXKXKXKXKXKXKXKXKXKXKXKXKXKXKXKXKXKXKXKXKXKX",
"KXKXKXKXLXZXP H ' 3.C.C.n.n.A [.1XLXKXKXKXKXKXJX;XF V y.U U ' '  . ...#.%.%.%.%.+.%.+... . . . . . .} ' Y R T y.f bXKXKXKXKXKXKXKXKXKXKXKXKXKXKXKXKXKXKXKXKXKXKX",
"KXKXKXJXqXd.f H 4.3.C.C.S.h.g.A mXKXKXKXKXKXKXJX>XZ F F V U U ' ' '  .+.+.%.+.+.>.w.-...@.+.@.+.+.@.9.4.2.T s.y.t.PXKXKXKXKXKXKXKXKXKXKXKXKXKXKXKXKXKXKXKXKXKXKX",
"FXFXmX2XL.b P R v.V.N.S.M.s.d.sXKXKXKXKXKXKXKXJXXX'.Z F F C { U U ' ' 9.9.9.1...0.e.w.+.+.@.@.@.9.9.9.0.C.v.s.g.;XLXKXKXKXKXKXKXKXKXKXKXKXKXKXKXKXKXKXKXKXKXKXKX",
"mX0XL.b d.n y.s.k.k.k.z.uX9XVXHXKXKXKXKXKXKXKXJX}.U.T.R.S S S C C U c.v.] ] ] 4.4.3.3.3.9.9.[ [ [ [ [ ] v.g.g.A ,XKXKXKXKXKXKXKXKXKXKXKXLXFXFXKXKXKXKXKXKXKXKXKX",
"KXLXBX8X8Xl.x.x.iXgXAXJXKXKXKXKXKXKXKXKXKXKXKXFXU.`.`.Y.Y.R.R.N N S D D D g.h.h.a.a.s.v.s.c.c.c.c.c.c.G G D Z Z 1XKXKXKXKXKXKXKXKXKXLXmX4X-X>XbXLXKXKXKXKXKXKXKX",
"KXKXKXKXHXGXGXHXKXKXKXKXKXKXKXKXKXKXKXKXKXKXLXIXU.`.Q.@X@XQ.E.E.Y.R.U.1XCXHXPXPXHXCXnXsX,Xg.F C C G S S {.T./.T.|.LXKXKXKXKXKXKXLXMX-X=X-X2X-X=X5XKXKXKXKXKXKXKX",
"KXKXKXKXKXKXKXKXKXKXKXKXKXKXKXKXKXKXKXKXKXKXKXmXU.Q.@X@X@XQ.^.`./.K.XXPXLXKXKXKXKXKXKXKXLXJXMXoXF S N N B Y.Y.T.'.MXKXKXKXKXKXKXmX;XL.=X=X=Xd.6 1 FXKXKXKXKXKXKX",
"KXKXKXKXKXKXKXKXKXKXKXKXKXKXKXKXKXKXKXKXKXKXKX1XB ^.E.Q.^.`./.U.}.J.UXLXKXKXKXKXKXKXKXKXKXKXKXPXXXN N N W.W.E.T.].|.IXKXKXKXKXLXbX<X;XL.L.v 4 3 8 JXKXKXKXKXKXKX",
"KXKXKXKXKXKXKXKXKXKXKXKXKXKXKXKXKXKXKXKXKXKXPX2 > U.U.U.U.U.K.U.J.; MXKXKXKXKXKXKXKXKXKXKXKXKXKXSX{.U.Y.Y.E.^.T.'.2 H.IXKXKXJXbX<X2X6XL.4 4 4 -XFXKXKXKXKXKXKXKX",
"KXKXKXKXKXKXKXKXKXKXKXKXKXKXKXKXKXKXKXKXKXbX7 - > > > > > > ; ; ; - MXKXKXKXKXKXKXKXKXKXKXKXKXKXKXcXN Y.Y.^./.U.K.; ; 2 -X-X;X=X<X6X=X7 , 3 0XLXKXKXKXKXKXKXKXKX",
"KXKXKXKXKXKXKXKXKXKXKXKXKXKXKXKXKXKXKXKXGX6 < , % % % % = % = = = = 2XJXKXKXKXKXKXKXKXKXKXKXKXKXKXKXcXU.U.U.U.K.> ; = 9 9 9 3 L.=XL.7 3 7 mXKXKXKXKXKXKXKXKXKXKX",
"KXKXKXKXKXKXKXKXKXKXKXKXKXKXKXKXKXKXKXKXJXb 4 9 , - - - - 0 0 0 , , 6 3XmXIXJXKXKXKXKXKXKXKXKXKXKXKXKXcX].XX|.J.; ; ; J.2 5 8 6 v 6 3 =XFXKXKXKXKXKXKXKXKXKXKXKX",
"KXKXKXKXKXKXKXKXKXKXKXKXKXKXKXKXKXKXKXKXKX:X4 4 1 3 5 3 6 5 H.5 6 v :X<X2X3XqXLXKXKXKXKXKXKXKXKXKXKXKXKXKXKXKXmX3 3 6 H.H.6 6 v b b MXKXKXKXKXKXKXKXKXKXKXKXKXKX",
"KXKXKXKXKXKXKXKXKXKXKXKXKXKXKXKXKXKXKXKXKXLXMXb 8 7 7 6 7 6 5 5 v =X>X3X3XqXqXJXKXKXKXKXKXKXKXKXKXKXKXKXKXKXKXKXL.4 6 6 4 v 6 b <XIXKXKXKXKXKXKXKXKXKXKXKXKXKXKX",
"KXKXKXKXKXKXKXKXKXKXKXKXKXKXKXKXKXKXKXKXKXKXKXmX2X=X8 7 7 8 8 8 v d.-X2X2X2X0XKXKXKXKXKXKXKXKXKXKXKXKXKXKXKXKXLX-X3 3 , , < 4 2XLXKXKXKXKXKXKXKXKXKXKXKXKXKXKXKX",
"KXKXKXKXKXKXKXKXKXKXKXKXKXKXKXKXKXKXKXKXKXKXKXKXKXHXbX2X>X>X;X>X>X>X>X2X3XBXKXKXKXKXKXKXKXKXKXKXKXKXKXKXKXKXKXKXFXmXVXMXmXFXLXKXKXKXKXKXKXKXKXKXKXKXKXKXKXKXKXKX",
"KXKXKXKXKXKXKXKXKXKXKXKXKXKXKXKXKXKXKXKXKXKXKXKXKXKXKXKXKXKXKXKXKXKXKXKXKXKXKXKXKXKXKXKXKXKXKXKXKXKXKXKXKXKXKXKXKXKXKXKXKXKXKXKXKXKXKXKXKXKXKXKXKXKXKXKXKXKXKXKX",
"KXKXKXKXKXKXKXKXKXKXKXKXKXKXKXKXKXKXKXKXKXKXKXKXKXKXKXKXKXKXKXKXKXKXKXKXKXKXKXKXKXKXKXKXKXKXKXKXKXKXKXKXKXKXKXKXKXKXKXKXKXKXKXKXKXKXKXKXKXKXKXKXKXKXKXKXKXKXKXKX",
"KXKXKXKXKXKXKXKXKXKXKXKXKXKXKXKXKXKXKXKXKXKXKXKXKXKXKXKXKXKXKXKXKXKXKXKXKXKXKXKXKXKXKXKXKXKXKXKXKXKXKXKXKXKXKXKXKXKXKXKXKXKXKXKXKXKXKXKXKXKXKXKXKXKXKXKXKXKXKXKX",
"KXKXKXKXKXKXKXKXKXKXKXKXKXKXKXKXKXKXKXKXKXKXKXKXKXKXKXKXKXKXKXKXKXKXKXKXKXKXKXKXKXKXKXKXKXKXKXKXKXKXKXKXKXKXKXKXKXKXKXKXKXKXKXKXKXKXKXKXKXKXKXKXKXKXKXKXKXKXKXKX",
"KXKXKXKXKXKXKXKXKXKXKXKXKXKXKXKXKXKXKXKXKXKXKXKXKXKXKXKXKXKXKXKXKXKXKXKXKXKXKXKXKXKXKXKXKXKXKXKXKXKXKXKXKXKXKXKXKXKXKXKXKXKXKXKXKXKXKXKXKXKXKXKXKXKXKXKXKXKXKXKX",
"KXKXKXKXKXKXKXKXKXKXKXKXKXKXKXKXKXKXKXKXKXKXKXKXKXKXKXKXKXKXKXKXKXKXKXKXKXKXKXKXKXKXKXKXKXKXKXKXKXKXKXKXKXKXKXKXKXKXKXKXKXKXKXKXKXKXKXKXKXKXKXKXKXKXKXKXKXKXKXKX"
};
