/* XPM */
static char *result[] = {
/* columns rows colors chars-per-pixel */
"80 80 256 2 ",
"   c #190801",
".  c #161204",
"X  c #270903",
"o  c #340603",
"O  c #330B03",
"+  c #3B0B04",
"@  c #2A1604",
"#  c #381605",
"$  c #2C1717",
"%  c #372809",
"&  c #2F2911",
"*  c #321D22",
"=  c #352924",
"-  c #470D05",
";  c #471507",
":  c #4E180E",
">  c #581608",
",  c #561E12",
"<  c #69170B",
"1  c #761A0E",
"2  c #7D1D10",
"3  c #45270A",
"4  c #55240C",
"5  c #54340E",
"6  c #4B3011",
"7  c #573816",
"8  c #682917",
"9  c #782B17",
"0  c #7D2B1B",
"q  c #6A3112",
"w  c #793717",
"e  c #54362D",
"r  c #692C22",
"t  c #7A2E24",
"y  c #6B3428",
"u  c #783527",
"i  c #7C352C",
"p  c #663830",
"a  c #783B34",
"s  c #594716",
"d  c #524B16",
"f  c #794918",
"g  c #6B5118",
"h  c #76621E",
"j  c #56512A",
"k  c #674727",
"l  c #74482A",
"z  c #6D552F",
"x  c #794639",
"c  c #766B24",
"v  c #73692E",
"b  c #787439",
"n  c #5E5641",
"m  c #7A4A45",
"M  c #6F524E",
"N  c #79724C",
"B  c #831B0F",
"V  c #851D11",
"C  c #842514",
"Z  c #8C2515",
"A  c #842A16",
"S  c #8C2A16",
"D  c #8B271A",
"F  c #842B1B",
"G  c #8C2B1B",
"H  c #9D2616",
"J  c #932A16",
"K  c #9C2A16",
"L  c #962718",
"P  c #932A1B",
"I  c #9B2A1A",
"U  c #89341A",
"Y  c #93341C",
"T  c #983619",
"R  c #A22617",
"E  c #A32A17",
"W  c #A92917",
"Q  c #A52718",
"!  c #AB2719",
"~  c #A42A1A",
"^  c #AC2A1A",
"/  c #B1271A",
"(  c #B1291A",
")  c #A3331B",
"_  c #A7361B",
"`  c #842C23",
"'  c #8C2D22",
"]  c #842F2A",
"[  c #942D21",
"{  c #8B3424",
"}  c #873927",
"|  c #85352B",
" . c #8B352A",
".. c #923323",
"X. c #973A28",
"o. c #873A31",
"O. c #943E31",
"+. c #A53523",
"@. c #AB3422",
"#. c #AC3124",
"$. c #A73928",
"%. c #884519",
"&. c #97481B",
"*. c #89551C",
"=. c #98571E",
"-. c #A5471D",
";. c #A3571F",
":. c #82641F",
">. c #884426",
",. c #98452B",
"<. c #89572F",
"1. c #985927",
"2. c #884637",
"3. c #984737",
"4. c #944B3C",
"5. c #9B4A3C",
"6. c #985538",
"7. c #A94529",
"8. c #A85826",
"9. c #B45026",
"0. c #A84A37",
"q. c #AD4C3B",
"w. c #B54938",
"e. c #B44C3B",
"r. c #A8563A",
"t. c #B3563B",
"y. c #9C6627",
"u. c #887928",
"i. c #987A29",
"p. c #8B6E32",
"a. c #986539",
"s. c #A76726",
"d. c #A8782A",
"f. c #B5762C",
"g. c #AA6437",
"h. c #B27032",
"j. c #C56E3A",
"k. c #884C45",
"l. c #934B44",
"z. c #9B4C42",
"x. c #944C49",
"c. c #885448",
"v. c #995548",
"b. c #9C5B4C",
"n. c #895B56",
"m. c #945B54",
"M. c #995B57",
"N. c #9C5C54",
"B. c #A64C42",
"V. c #B24D41",
"C. c #A45444",
"Z. c #AA5544",
"A. c #A45B44",
"S. c #AC5944",
"D. c #A4554B",
"F. c #AC564B",
"G. c #A45A4C",
"H. c #AC5A4C",
"J. c #B45443",
"K. c #B45A44",
"L. c #B35B4B",
"P. c #BA584A",
"I. c #A35B53",
"U. c #AA5B54",
"Y. c #B45A55",
"T. c #BC5C53",
"R. c #896748",
"E. c #996448",
"W. c #8B764E",
"Q. c #8B635A",
"!. c #996458",
"~. c #A86547",
"^. c #B9634A",
"/. c #B1794D",
"(. c #A8655A",
"). c #BB6254",
"_. c #B56458",
"`. c #936B62",
"'. c #996964",
"]. c #A66B65",
"[. c #B36C65",
"{. c #A8716A",
"}. c #B4736B",
"|. c #C15C4C",
" X c #C36E4E",
".X c #92862C",
"XX c #8C8439",
"oX c #958936",
"OX c #9C9336",
"+X c #B7862E",
"@X c #A98936",
"#X c #B68834",
"$X c #A79837",
"%X c #B89837",
"&X c #ACA338",
"*X c #B4A939",
"=X c #BBB13B",
"-X c #C68B39",
";X c #C59939",
":X c #D09A3E",
">X c #C9A73B",
",X c #C4BA3E",
"<X c #D3B03E",
"1X c #C9C13F",
"2X c #948747",
"3X c #999349",
"4X c #928D50",
"5X c #B18F4F",
"6X c #A69847",
"7X c #AAA349",
"8X c #B7A947",
"9X c #BCB445",
"0X c #ADA958",
"qX c #B5AA57",
"wX c #BCB554",
"eX c #9B9262",
"rX c #A48D62",
"tX c #B7AB6A",
"yX c #CD8F4F",
"uX c #C89846",
"iX c #C8A845",
"pX c #D4A845",
"aX c #C6B848",
"sX c #D8B948",
"dX c #C5AD55",
"fX c #D8A657",
"gX c #C7BA55",
"hX c #D9B954",
"jX c #E1BC5F",
"kX c #D29264",
"lX c #DAA567",
"zX c #D1B369",
"xX c #E1B466",
"cX c #CCC345",
"vX c #D4CB44",
"bX c #D9C849",
"nX c #DCD146",
"mX c #DCD44C",
"MX c #DED84B",
"NX c #CBC457",
"BX c #DEC355",
"VX c #D8C957",
"CX c #DCD454",
"ZX c #DBD35A",
"AX c #E1CA4B",
"SX c #E2D547",
"DX c #E2D54B",
"FX c #E3D94A",
"GX c #E1CA57",
"HX c #E2D553",
"JX c #E3DA53",
"KX c #E2D75C",
"LX c #D7C866",
"PX c #D2C76A",
"IX c #E2CA69",
"UX c #E3D666",
/* pixels */
"X + > i D.Y.T.|.|.|.|.|.T.|.T.|.T.P.T.T.Y.Y.U.].U.U.].{.[.[.Y.Y.T.T.T.|.Y.T.T.T.T.T.|.T.T.).)._._.].(.].{.}.}.}._.).^.P.|. X^.|.|.t.|.t.|.|.P.^.^.~.(.(.(.(.{.{.",
"+ : 8 o.G.Y.).).|.|.|.|.T.T.T.[.T.T.).)._.(.(.].].].{.}.[.[.[.Y.[.T.T.Y.T.T.T.T.T.T.).).)._._.[._.].].'.{.{.}.}._._._.^.^.).^.^.^.L.|. X|. X^.).)._.(.(.].].{.{.",
", r a o.z.D.F.F.Y.J.F.F.F.F.F.F.F.F.F.F.D.N.M.x.M.'.'.{.].].U.U.Y.F.V.F.F.V.Y.Y.D.F.C.C.Z.A.G.~.!.M.n.m.].{.{.{.(.E.A.A.r.r.r.r.r.r.r.r.0.r.r.C.G.N.b.N.m.M.'.'.",
"m m 2.2.4.3.3.0.5.z.z.z.5.5.4.5.z.O.z.z.l.l.k.k.m n.'.'.].'.x.x.x.x.x.O.x.x.x.O.5.3.3.3.4.3.4.4.4.k.m c.Q.!.(.!.E.4.6.3.6.3.3.,.4.,.O.,.,.,.,.3.4.2.2.k.m k.n.'.",
"n.n.x.l. . . ...X. . . . . . . .] ]  .] ] a a a a m n.'.M.M.x.] | | ] | ] ] ] ]  .] { } } } } >.u a a m c.n.!.!.2.>.%.U >.>. .} } } U U F F F F w u t y y a n.M.",
"M.I.D.z. .' P I G P P G D P G G D ' [ ' ] t i i ] m M.'.U.M.O.] ` F A D D ' ' [ ` D F F 0 0 0 0 0 r y a c.E.E.b.>.w %.&.1.r.,.X.G U A 0 0 A C A 0 9 r r r a k.M.",
"'.U.I.z.X.[ L [ I I P I I P I P [ [ [ [ ] ] ] ] ] m x.M.U.M.O.] G G D D D D ' ' ' D D S F G F F 0 9 u x c.E.E.<.f U =.s.yX Xr.,.Y G A F A J L D D 0 t t t a x.M.",
"I.[.U.B.+.[ Q Q ~ ~ ~ I ~ ~ ~ ~ Q Q Q Q [ [ ] ] ] m M.Y.U.D.#.[ Y P L D D L D D D D D Z A F A F 0 t u o.v.g.r.1.%.%.s.j.kXkX^.7...S J Z S L I L [ ' ` ` t o.x.M.",
"U.Y.V.V.$.~ #.( ~ ^ ^ ~ ^ ~ ^ ~ ~ ~ #.#.[ [ ] ]  .2.v.(.H.q.X.L I J L S Z Z Z C B B B 2 2 2 C D 0 F u o.6.A.s.1.%.%.s.-XfXkX Xw.T Z C C Z L H Q L ' ' ` ] o.x.I.",
"U.Y.Y.V.$.@.( ( ^ ^ ^ _ ^ ^ ^ ( / ! ! Q [ [ [ ] ] O.D.U.L.q.) J J J J S S C 2 1 1 < < < < 1 1 9 0 t i >.6.a.1.=.%.=.f.-XxXlX Xw.U C 2 2 V Z H R L L ' ' `  .z.U.",
"Y.[.T.V.#.#.#.( ^ ( ^ ^ ^ ^ ( ( #.( / ! ! [ [ [ [ O.C.^.L.q.X.K J J S Z A A 2 < < > < > > < < 9 9 t u o.6.6.1.y.*.=.+X:XxXlX X6.A 1 1 1 B H H R H [ [ ' '  .z.U.",
"Y.Y.|.V.#./ ( ( ( ( ( ( ( ( ( ( / / / ( ! [ [ [ [ O.C.L.K.t.) K T T T T T U w q < > > - - > < < 8 9 9 i 6.s.y.y.=.y.+X:XxXlX/.6.0 < < < B V H R Q H [ [ '  .z.H.",
"Y.Y.T.V.#.( ( ( ( ( ( ( ( ( ( ( ( / ( ( ! I P P [ X.K.L.K.9.T T -.9.j.t.g.8.<.>.q 8 : ; - - - > > 8 8 0 <.y.g.s.y.d.+X>XxXlX5X4.9 < > < 2 V R Q [ H [ [ [ ..z.U.",
"Y.Y.T.V.#.#.( ( ( ( ( ( ( ( ( ( / / ( / Q I I P Y X.S.K.t.9.T &.8.h. XyXyX/.~.a.z q 7 ; + + o - - > q w 1.y.d.+X+X+X>X>XxXlX/.4.8 > > < 1 V H ~ Q I L [ '  .B.H.",
"T.T.T.w.#.( ( ( ( ( ( ( ( ( ( ( ( / / ! Q I J S J X.r.t.8.8.&.&.h.-XlXxXlXkX5XW.W.x s # O X X o + 4 q l y.d.+X%X%X;X<XsXxXzXW.<.8 > > > 1 V H Q Q I [ D G ..B.F.",
"Y.T.V.w.@.( ( ( ( ( ( ( ( ( ( ( / / ( ! Q I J S T 7.r.g.8.;.%.&.f.yXxXIXzXdX0X2X2Xb j & .       # 4 w *.a.@X;X>X<X,XsXbXLXzXW.x < - - > 1 V Q ~ ~ I I D D  .0.F.",
"Y.T.V.w./ / / / ( ( ( ( ( ( ( ( ( ( ( ( W K J J T ,.8.t.s.=.%.*.f.uXxXIXzXdX7X3X2Xb d &         # 5 f a.5XuXfXhXBXbXAXGXLXzXR.y 4 - - > < B H ! R I P P P ..B.Z.",
"Y.T.T.w./ / / / ( ( ( W ( ( ( ( / ( ( W W K J J J &.9.g.s.8.=.=.+X:XGXGXhXiX8X6XOXb c d & @ @ % 5 g i.6X8XhXBXGXGXGXGXGXLXtXp.7 ; - + - < B R Q R K P G D  .z.F.",
"Y.T.V.w.w./ / / ( ( ( ( ( ( ( ( / / W ( E K J J J &.8.g.h.f.s.d.;X<XGXGXBXaX=X*X7XOXc c d s s g c u.@X8XdXBXIXIXUXGXGXVXzX5Xz 6 - o - - < B R ! K K J P D ..B.F.",
"Y.T.T.w./ / / / ( ( ( / ( ( ( ( / / ( W E K J S T T 8.h.f.+X%X%X<XsXAXDXbXsXaXaX9X7X&XOX.X.X.X.X@X%X=XpXVXGXUXUXUXUXGXgXqX2Xk 3 o o + > < B R ! ~ I J G D  .z.F.",
"Y.T.T.w.#./ / / / / ^ ( ( ( ( ( W / W W E K S S U &.;.f.j.:X<XsXAXAXSXSXDXDXHXBXCXVXNXNXNXgXNXNXNXbXVXGXKXUXUXUXUXIXhXwX6Xp.k ; O o + - < B K W K I P G S  .z.F.",
"V.T.T.w.#./ / / ! W W W W ^ W ( ( W ( W K K S A U &.;.f.;X:XAXAXAXSXSXSXFXJXHXJXCXJXJXCXKXZXKXUXKXUXKXKXUXUXUXUXIXPXwX7Xp.v 6 # O o - - < B L E I J J U S  .z.F.",
"Y.Y.Y.V.#.Q #./ R R E E E W W ^ W W E E T J C A U &.f.-X>X<XAXSXFXFXSXFXFXFXFXFXFXFXMXJXJXJXJXFXKXKXJXCXKXUXUXIXIXzX5Xp.h 5 # O o + - > < C K K T P Y G A { 3.D.",
"Y.Y.Y.V.[ [ Q Q E E K K W W W ( W ( W E J S A U %.=.+X:X<XAXAXSXFXFXFXFXFXFXFXFXFXFXFXMXMXFXFXSXMXMXmXCXZXZXLXPXzXtX2Xz 5 ; O o + ; > 8 9 S Y ) T Y U U U } 5.D.",
"Y.Y.Y.B.X.+.[ ~ ~ I T K ) ) _ ( _ @._ _ Y U T *.=.s.%XsXAXAXDXSXFXFXFXFXFXFXFXFXSXSXSXnXnXnXnXnXvXvXvXCXZXZXPXwXtX4Xb 7 % O + ; ; 4 q w } Y T T T ,.,.} } O.v.D.",
"U.Y.Y.U.0.7.$.$.$.7.7.$._ 7.$.7.9.7.7.7.&.=.=.y.d.+XpXsXAXSXFXFXFXFXFXFXFXFXFXFXSXSXnXvXvX1X1X,X1X1XwXwXNXtX0X0X2XN g 3 + O ; 4 q y x 2.4.,.,.7.,.,.,.3.2.4.v.(.",
"].[.[.Y.U.K.K.J.J.J.t.t.t.t.t.t.t.t.t.t.8.s.f.#X;XpXbXAXSXFXSXSXFXFXFXFXFXFXFXFXSXSXvXvX1X=X*X&X&X7X7X7X0XeX3Xb j d % # O ; 7 u 2.6.v.~.~.H.r.r.~.S.A.E.b.!.(.{.",
"{.{.[.]._.U.^.L.^.L.~.~.r.^.t.~.g.g.~.h.h.#X;X>XsXAXAXFXSXSXSXSXFXFXFXFXFXFXSXFXSXAXvXcX,X*X&XOXOXXX2Xb 4X4XN j 6 % X X O : k x c.E.!.(.~.~.A.S.A.~.E.!.E.(.'.{.",
"{.{.].].D.D.r.C.r.C.6.r.r.6.r.1.6.8.y.g.#X5XiXsXbXAXDXFXSXSXnXnXSXSXFXFXFXFXFXFXFXMXnXcX1X9X&XOXXXb c j j z j d # @ X O ; > w l 6.v.b.A.A.A.r.6.6.6.v.R.c.!.!.{.",
"'.'.U.U.z.z.0.3.3.,.,.,.,.,.&.=.>.*.y.d.%XpXsXGXHXFXDXFXnXvXvXvXSXSXSXSXFXFXFXFXFXMXMXvXcX1X&XOXu.c d d d d % % @ O O - ; q u >.>.4.3.6.0.,.,.,.,.2.2.2.2.c.!.'.",
"M.].M.D.o.] ..Y Y U U U w w U w f f :.@XiXhXGXHXHXJXJXDXvXvX,X,XvXnXSXSXFXFXFXFXFXFXJXCXNXNX9X&X.Xd d . @ @ @ @ O + - > 8 9 9 w U G X.X.X.U T U } U w y y a c.!.",
"n.M.M.x.' D S S S A A A 9 9 q w f *.i.%XaXGXHXJXJXFXFXDXvX,X=X=X1X1XSXSXFXFXFXFXFXJXJXJXCXCXNX7XOXc d & & % # # - - > < 9 A C C A S S P U P J A 0 9 q q r y c.M.",
"m.(.I.z.U C S S S S A A A q w *.y..X$X,XbXVXHXJXJXJXMXMX1X,X*X&X,X1XbXDXFXFXFXJXMXFXJXJXJXCXVXgX7X3Xb z j k e 8 4 < 1 1 C A Z S J J L I P J J S A A 9 9 8 a k.!.",
"N.(.F.0.T J J K T J S S U %.%.*.d.%X>X<XbXDXDXJXJXMXCXvX1X=X$X&X=X1XCXJXJXJXJXMXMXMXFXJXJXJXVXbXdX7X3XXXb p.v l q 9 9 C S J J L J K K K K ~ K K J A 0 9 9 i l.N.",
"G.H.F.0.T J K K K J J T &.&.;.s.+X,XvXnXmXDXMXCXCXMXMX1X=X&X.X.X&X,XmXUXKXKXCXmXvXnXMXMXMXCXFXCXvXwX7X7X6X2Xa.<.U U S K K K E K H E E W Q W W E I S A 0 0 ] l.I.",
"F.P.J.7.K H K W E E E _ ;.;.s.-X>X<XAXFXSXDXMXmXMXNX1X,X&X.Xc c .X,XVXUXUXKXVXvX1X1X1XnXMXMXFXDXCXcXNXwXqX5Xd.y.&.T K ) W W W ! W W W ^ ^ ( ^ ^ E K S G F ' z.F.",
"Z.L.J.7.T K H H K H K -.9.f.;X<X<XvXSXSXMXMXMXCXCXNX9X&X.Xc d g .X7XPXUXUXZXvXaX=X=X1X1XMXMXMXMXmXCXNXNXgXiX#Xs.&.T E E W W W W ! ^ / ( ( ( ( / W I J Z S  .z.F.",
"C.L.t.7.T T J T T &.-.;.f.-X<XAXnXAXSXSXmXvXCXZXNXwX7XOXc g % d c &XLXUXUXCXcX=X&X&X=X1XvXCXMXMXCXCXZXVXNXdX5Xh.;.&.&.) ) E W W ^ ^ / ( ( ( ( / ! I P L D X.B.F.",
"C.K.r.-.S S -.-.;.;.s.f.-X>XhXBXGXDXAXAXvXNXNXwX0X7XXXv g 6 % 6 c $XNXUXZXCXvX=X&X&X&X*X9XcXMXZXCXZXZXVXBXhXiX%Xf.s.-._ ) ) _ W W ^ ( ( ( ( ( ( W I I D D ..B.U.",
"A.~.8.=.T %.-.f.f.+X-X:XpXsXGXKXGXVXVXbXNXwX0X0X0X4Xv d 3 % @ 3 h $XVXUXKXCXvX1X&X&X&X&X&X9XNXZXZXZXZXZXVXBXhXfX;Xj.s.-.&.) ) W W ! ^ ( ( ( ( ^ Q I L L D ..0.F.",
"r.~.8.1.%.*.s.-X-X:XpXsXAXBXGXGXGXVXNXgXwX6X3X4X2Xv d & @ @ O 3 h $XBXUXKXCXnXcX=X&X$XOX&X&XwXNXVXZXKXKXIXGXGXhX:X;Xf.;.-._ _ W W ^ ^ ( ^ ^ ! ^ Q I I P D [ 0.H.",
"g.~.h.s.8.s.+X:XpXsXAXjXBXjXBXVXhXgXwXqX6X2Xb v v j & @ X X O 5 :.$XbXKXHXJXnXvX=X=X&XOXOXOX7XwXNXNXVXGXZXGXGXBXhXpX-Xj.;.-._ _ W _ ^ ^ ^ ^ ( ! Q I L D D { z.F.",
"a././. Xj.:XpXpXhXBXGXGXBXsXhXdXqX5X6Xp.c d d d 6 % @ .   X # 7 u.%XhXCXHXDXMXnXcX9X&XOXOXoX3X7XqX9XaXNXVXGXGXGXBXhXpXj.f.;.-._ W W ^ ^ ^ ^ ! ! Q L L S F ..5.Z.",
"6.~.5XyXyXfXfXhXhXjXAXGXsXpXiX%X6XoXu.v d % @ @ @ @ . X X # 3 s u.$XsXHXMXFXMXMXCXcX*X$XoXXXXXOX3X&X&X,XaXcXbXGXGXhXsXpX:Xj.-._ W W ^ ( ! / / ^ Q I D Z Z { 5.Z.",
"6.g./.yXyXuXfXhXhXhXsXpXiX%X@X.Xp.c h s % X           @ # 3 5 g i.%XsXDXDXDXFXMXCXNXwX3XoXXXu.b c .X.XOX*X,XsXVXAXBXsXsX:Xj.j.( ~ W ^ ^ ! ! ( ( Q I D D Z { 5.Z.",
"v.~././.yXyXyXyXyXpXpXuX%Xi.y.*.f g 7 3 @ X       X # 3 5 s q f i.%XbXAXDXDXMXFXCXZX0X7XXXv j c g j h c .X$X=XsXBXGXGXhXfX:Xj.9.) W ^ ( ! ! ( ( Q I L D F G 3.Z.",
"v.E.~.6.1.8.h.j.yX5X5X@Xy.*.q 5 4 3 ; # O X     X # e k g f f f i.%XcXSXAXnXSXMXCXNX0X3Xb c & & % % % d h u.$XdXhXGXGXjXxXfXj.( _ ! ^ ( ( ! #.^ Q I L D A ..5.A.",
"v.b.6.3.U U 7.8.^.h.^.g.>.w > ; - - + + O O o o + 3 k z <.:.f f d.%X<XAXmXAXSXMXCXNX0X3Xb j & .   . @ % s h i.%XiXBXAXGXjXfXj.9.+.~ ( / / #.( ( ~ I L F F U 5.S.",
"m.I.G.4.{ U X.,.8.r.6.,.>.w , > > - - : - + + $ - , k m p.<.f *.d.;XsXAXnXMXMXMXZXNX0X4XN j & . . . @ % 6 s h i.@X=XaXhXjXlXj.9._ E _ ( ( @.( ( +.I G D F { 3.r.",
"m.N.b.5.{ F X.,.X.,.,.} U w 8 4 , , , , , , : : , p x R.a.<.f f d.;XsXAXnXMXFXMXZXZX0X4Xb j & . . X # 3 % 6 g h i.@XiXiXxXlX X9._ E ^ ( @.( _ ( I I { G A } 3.b.",
"M.!.b.4.o.` ..X.X. .} } } t 0 r r y y y p p p e p z R.R.a.<.*.*.d.;XsXAXnXSXMXFXZXNX0X4Xb j & . . % 3 6 ; 3 5 g :.i.%XfXlXlX X9._ E _ ( _ #.( ^ I Y ..{ { } 6.b.",
"M.!.N.v.O.O.O.O.3. .O.,.2.2.o.2.2.2.m m M m M m m m Q.E.a.a.*.1.@XuXsXAXbXAXMXMXZXNX0X4XN j = . & = e s 5 5 7 q :.i.@X8XlXfX X9.9._ $.$.$.7.$.$.$.$.O.,.>.4.c.E.",
"{.{.].U.M.D.U.F.U.D.D.D.D.v.b.m.M.M.M.n.n.n.n.n.Q.Q.W.].E.d.1.y.+XuXpXsXvXMXMXMXZXNX0XeXN j = . = e M M M m z h p.i.@X5XyXkX Xt.t.9.t.t.t.e.e.e.J.Z.C.G.v.E.!.].",
"'.{.].'.I.U.U.Y.U.U.I.I.I.I.I.N.I.M.M.'.'.Q.Q.n.Q.Q.`.'.!.E.a.s.d.%XiXiXcXvXMXMXZXNX0XeXN n = & = e M N n.R.R.a.E.a.W./.5X/./.^.L.K.P.P.P.K.J.K.L.~.~.(.(.!.'.{.",
"{.{.{.'.M.I.U.U.D.D.x.D.D.N.v.N.x.M.M.M.M.n.n.n.Q.Q.'.'./.E.a.1.y.d.#X*X1XvXMXMXPXNX0XeXN n * $ = e M M Q.Q.`.!.E.a.E.E.E.~.A.A.A.A.A.H.K.r.Z.r.A.E.b.b.!.!.'.'.",
"`.'.'.'.x.x.x.z.l.x.l.l.x.l.l.l.x.k.x.x.x.x.c.c.c.Q.`.'.`.R.<.*.*.y.d.+X1XNXMXCXZXPX0X4XN n = $ * e n M `.`.`.!.c.k.<.2.4.c.4.l.4.l.6.5.5.5.4.6.l.l.c.c.c.M `.`.",
"Q.'.M.x.o.| o. .] ] ] o.o.o.| o.] ] o.o.o.a a x x c.Q.Q.Q.6.%.f f f *..X>XvXSXSXUXPXtXeXN n = $ $ * e M n.`.M.m.k.a i i o.i i | i } } } } } } U l u a a k x n.Q.",
"M.M.m.l.] t D ' ' ` ' ` ' ] ` ' ` ` ' ` ] t u u l 2.c.!.b.4.U A 9 w %.i.+X<XvXSXUXPXtXeXeXn = $ $ $ e m n.M.M.x.o.t t 0 0 t 0 0 F F 0 F A 0 A A A 9 8 r r a m m.",
"M.M.M.3. .F [ G D D [ ' ' ' D D D ' ' D ` ` t t i x c.!.b.6.X.A A A %.;.+X>X<XSXIXPXtXeXN n = X o : r p c.M.I.D. .' D F F F F F F S S S S G S A F 0 9 9 r a k.M.",
"x.D.D.0.[ D P P L [ L [ P L [ L D L L D D ` 0 t t 2.v.!.G.0.T J S U %.=.+X;X<XAXIXPXtXrXN n = @ o * e a k.M.H.C.X.[ P P L L L P P P P L J J J S A A 0 0 t | l.N.",
"D.D.D.B.X.I I ~ I I I I I I I I I I I I P F F F t >.v.b.Z.0.X.K S S &.;.s.+X>X1XLXPXtXrXQ.j * @ + : p m l.G.H.V.$.I I I L L L I I I I I K L L J J S A F 0 | l.N.",
"D.F.V.q.$.I ~ ~ Q I ~ ~ R ~ Q H R ~ I I I Z A F U o.v.G.r.0.) K J S T &.;.+X%X<XIXPXtXrXW.z 3 O + , p x l.G.L.Z.X.[ Q [ I I I I R I ~ I K K K K L G F F F | l.D.",
"D.L.J.q.$.~ ~ ^ W W W Q Q Q R Q Q Q Q ~ I L A A U  .z.G.t.0._ H J J J %.=.;.+X;XxXzXtXrXR.k : # # : r a l.D.L.V.$.~ ~ Q R H H H R R ~ R E K K K P P G F F  .z.D.",
"B.L.J.w.$.~ ^ ^ ^ ^ ^ ! ^ ! ! ! W ! ! ! I K S F G ,.z.A.r.9._ H J J J J %.=.s.+XzXzXkXrXR.x 3 ; : : r y l.D.J.V.$.~ ! ! Q Q Q Q Q Q Q Q ! Q W K K P P G F  .5.F.",
"Z.P.t.w.@.^ ^ ^ / / ( / ( W / ( W ! / W ~ L Z S G X.v.S.J.w._ W E K T T U &.s.-XpXlXkXrXE.x 7 , , , r i l.B.F.V.$._ ^ ^ ^ ^ ^ ^ ! ^ ^ ^ ! Q W ~ I P P ' D  .z.F.",
"Z.L.t.w.@.~ ^ ( ! / ^ ^ ( / / W ! / ! W R K J S U O.r.H.K.e._ E K E K T S T ;.f.yXlXkXrX!.4.u r 8 8 r i l.D.P.V.$.~ ^ ^ ^ ^ ^ ^ ^ ^ ( ^ W ^ ~ Q Q I P G G  .z.F.",
"Z.L.J.w.) Q _ ( ! ! ! ! ^ ( ^ / ! ! ! ! E L J J Y X.C.S.K.e.@.~ E K E T T T ;.s.yXlX}. X(.G.2.i i y t a z.D.L.V.$.~ ! ^ ( ( #.^ ( #.( ( ( ^ W Q I L D G D  .z.D.",
"S.L.J.w.+.R W ! ! ! ! W ^ / ^ ^ ! ! ! Q K L P G G ,.C.H.P.e.@.~ E K ~ K K T -.9. X X X XF.B.l.o.o.i t o.z.F.F.V.$.~ Q W ^ ( ^ ( ( ( ( ( ( ^ W ~ I I L D F ' z.D.",
"S.L.V.w.~ H ! ! ! ! ! ! ^ / ! / ! ! ! Q K I P G G ,.r.L.K.e._ W R R R K E T _ $.9.j.r.q.0.3. .] ] ] t o.v.F.Y.V.$.~ ~ ^ ( ^ ( ^ ( / ( / ^ W W Q R I D S F  .z.D.",
"S.P.J.7.~ K Q ! W W ! ! ^ ^ ^ ^ ! ! ! W R I P Y { X.C.H.P.w.( ! R I R ~ E E E +.@.@.7._ $...' ' ` ] t o.C.F.F.J.$.~ ^ ( ^ ^ ^ ^ ^ ^ / ^ W ! ! Q L I P D F { z.D.",
"Z.L.J.w.~ I W ! ^ ! ! ^ ^ ! ^ ! ! ! ! ! Q I P P ..,.Z.L.P.w.@.Q Q ~ Q K E K H L W ) K K Y P G ' ` ` t o.z.F.L.V.$.#.^ ^ ^ ^ ^ ^ ! ! ( ^ W Q W R I L L S D ' 5.C.",
"Z.P.J.w.) ~ ! W W ^ / ^ ! ^ ^ W W ! ! ^ ~ ~ I Y ..X.r.K.J.w.@.Q ^ W Q W E E H L E E K K K L P [ ' ` ] o.B.F.L.e.$.@.^ ( ^ ! ( ^ ^ ( ^ W W Q W ~ K L F F F ] 4.C.",
"Z.P.J.w.~ ~ Q ^ ^ ^ ^ ^ ^ ^ ^ ^ ! ! ! ! ~ [ I Y ..$.Z.F.P.w.( / ! Q ! ! Q Q H Q ~ ~ E I I I I +.[ ' | o.z.F.F.e.$.#.! ! ^ ^ ( ( ( ( ^ ^ ~ ^ ~ ~ I J P U F { 3.C.",
"r.L.t.7.) ~ W ^ ^ ^ ^ ^ ^ ^ W ^ Q ! ! W ^ ~ I P ..X.r.F.P.w.@.! ! Q #.Q Q Q Q H ~ Q ~ I I I [ [ ..{ ] O.B.F.J.e.$.~ ^ ! ^ ^ ^ ^ ^ ^ ^ ^ ^ ^ ^ ~ I P P G G  .5.S.",
"Z.L.J.w.~ I ~ ^ _ ^ ^ ^ ^ ^ W W ! ! ! ! #.~ ~ [ Y ,.C.J.|.w.#./ ! #.#./ #.Q #.Q ~ Q ~ I ~ I [ [ G { F  .z.Z.F.q.$.~ ^ ! ^ ^ W ^ ^ ^ W W Q W ~ ~ I I G G F  .5.D.",
"r.K.e.7.) E _ ^ ^ ^ ^ ^ ^ ^ W W ^ ! ^ W ~ +.[ [ [ $.B.L.V.w.#.^ / / #.#.Q ! Q #.~ ~ ~ ~ I I [ [ ' F `  .0.F.J.e.$.#.^ ! ^ ^ ^ ^ ^ ^ ~ ^ ^ ^ ~ ~ I I Y G G X.5.C.",
"S.L.Z.7.I I ~ ~ W W _ W W W ~ W Q R Q Q ~ [ [ [ [ O.B.F.P.$.#.#.#.#.#.#.#.Q #.~ +.~ ~ ~ I [ [ [ { G F } 5.F.F.e.$.#.( _ ^ ~ _ ~ _ Q ) ^ ~ ~ K ~ I P G U G  .z.G.",
"G.~.S.r.$.X.+.+.+._ +._ +.) ) ) +.+.+.+.$.X.X.X.O.3.G.U.F.V.$.$.$.$.#.$.$.+.$.+.$.$.$.X.X.X.$.O.O.o.o.2.v.G.H.Z.q.7.$.@.@.$._ $.+.@._ _ @._ _ +.X.X.X. . .2.x.G.",
"(.(._.^.r.q.q.t.t.e.q.e.q.e.q.w.q.e.q.q.B.Z.C.v.l.v.I.].U.U.F.V.V.F.V.V.B.B.q.q.V.V.B.q.0.B.B.B.v.v.v.v.(.(.(._.F.Z.V.e.e.e.q.q.e.e.t.w.e.q.w.q.q.B.z.v.v.v.!.].",
"(.].(.(.H.H.L.L.L.S.S.S.S.S.S.S.Z.F.J.F.U.D.N.b.m.N.M.].].U.U.D.U.U.U.F.F.V.F.F.F.F.B.F.D.D.G.I.I.!.!.!.(.].(.(.U.F.P.P.K.K.S.t.t.r.t.t.t.K.t.S.S.A.b.b.m.!.'.]."
};
