/* XPM */
static char *result[] = {
/* columns rows colors chars-per-pixel */
"80 80 246 2 ",
"   c #060F10",
".  c #091819",
"X  c #1A201E",
"o  c #0D1E21",
"O  c #0C2529",
"+  c #13282A",
"@  c #0E2B37",
"#  c #142E36",
"$  c #153336",
"%  c #1D3335",
"&  c #12323C",
"*  c #1C353A",
"=  c #153A3E",
"-  c #1D393C",
";  c #262D2B",
":  c #243638",
">  c #2F393C",
",  c #313736",
"<  c #323B3B",
"1  c #36403E",
"2  c #122E42",
"3  c #133543",
"4  c #153A44",
"5  c #163A4A",
"6  c #163B4B",
"7  c #153B52",
"8  c #173D53",
"9  c #233242",
"0  c #313E41",
"q  c #1C464B",
"w  c #1A434C",
"e  c #1A4353",
"r  c #1E4B54",
"t  c #1B455A",
"y  c #1E4B5B",
"u  c #22454A",
"i  c #254B4D",
"p  c #264952",
"a  c #244C53",
"s  c #214F5B",
"d  c #225255",
"f  c #23535B",
"g  c #2B555B",
"h  c #265A5E",
"j  c #1F4D62",
"k  c #1F5160",
"l  c #214E63",
"z  c #235464",
"x  c #265A64",
"c  c #295C63",
"v  c #23556A",
"b  c #255B6B",
"n  c #295E6C",
"m  c #265B72",
"M  c #275B72",
"N  c #2B636C",
"B  c #2C676D",
"V  c #35686C",
"C  c #33706F",
"Z  c #2B6373",
"A  c #2D6A74",
"S  c #2C6679",
"D  c #2D6A7B",
"F  c #336C74",
"G  c #386974",
"H  c #316D7B",
"J  c #32737D",
"K  c #3C737B",
"L  c #3D767B",
"P  c #456C75",
"I  c #427376",
"U  c #43747D",
"Y  c #44787C",
"T  c #2E6C83",
"R  c #336E82",
"E  c #337484",
"W  c #377586",
"Q  c #357A84",
"!  c #3A7C85",
"~  c #367B8B",
"^  c #3C7D8B",
"/  c #367C92",
"(  c #387D94",
")  c #437382",
"_  c #467C87",
"`  c #507D87",
"'  c #687F8A",
"]  c #3C8588",
"[  c #3B828C",
"{  c #3C8392",
"}  c #3B8698",
"|  c #3E8A9B",
" . c #3D8BA3",
".. c #45868B",
"X. c #43828C",
"o. c #5D858A",
"O. c #5D878B",
"+. c #438592",
"@. c #498B97",
"#. c #438D9C",
"$. c #578B96",
"%. c #439498",
"&. c #42929C",
"*. c #4C929D",
"=. c #55949B",
"-. c #52949C",
";. c #638387",
":. c #658F96",
">. c #468EA2",
",. c #4394A3",
"<. c #4C93A2",
"1. c #459BA6",
"2. c #4C9BA5",
"3. c #4496AB",
"4. c #469BAB",
"5. c #4A9CAB",
"6. c #5395A2",
"7. c #549BA7",
"8. c #469CB3",
"9. c #479BB4",
"0. c #539EB0",
"q. c #6B98A6",
"w. c #49A2A6",
"e. c #4BA2AC",
"r. c #56A2AB",
"t. c #4CA3B4",
"y. c #4DAAB5",
"u. c #4BA5BA",
"i. c #4EABBC",
"p. c #53A4B4",
"a. c #5CA5B3",
"s. c #53ABB4",
"d. c #5BA8B6",
"f. c #53A5BA",
"g. c #52ABBC",
"h. c #5BADBC",
"j. c #4FB0B7",
"k. c #4FB0BC",
"l. c #56B5BA",
"z. c #51B2BD",
"x. c #5BB1BD",
"c. c #64A9B6",
"v. c #70A8B1",
"b. c #74ABB5",
"n. c #64B2BC",
"m. c #4EADC3",
"M. c #4DABC7",
"N. c #51AEC3",
"B. c #53AEC6",
"V. c #4FB0C4",
"C. c #4FB1CA",
"Z. c #51B3C4",
"A. c #5AB4C2",
"S. c #58B9C5",
"D. c #51B3CA",
"F. c #56BACB",
"G. c #5BBCCC",
"H. c #57BBD3",
"J. c #66B9C8",
"K. c #6CB9CC",
"L. c #78B7C5",
"P. c #5BC3CB",
"I. c #5CC5D5",
"U. c #5DC9D6",
"Y. c #5DC6DB",
"T. c #5ECADC",
"R. c #67C4CA",
"E. c #62C3CD",
"W. c #79C3CE",
"Q. c #62C4D4",
"!. c #6BC7D7",
"~. c #64CBD5",
"^. c #62C6DA",
"/. c #63CBDB",
"(. c #77CAD8",
"). c #64D4DC",
"_. c #69D4DC",
"`. c #77D3DC",
"'. c #5ECBE3",
"]. c #5CC8E9",
"[. c #5FD0E9",
"{. c #63CDE2",
"}. c #60CFEB",
"|. c #72CFE2",
" X c #63D3E5",
".X c #6BD3E5",
"XX c #66DAE4",
"oX c #6ADAE5",
"OX c #63D5EB",
"+X c #6BD6EA",
"@X c #66DBED",
"#X c #6BDBEC",
"$X c #76D7E5",
"%X c #7ADDEC",
"&X c #66DBF6",
"*X c #66DEF4",
"=X c #6ADEF3",
"-X c #7BDEF1",
";X c #67E0EB",
":X c #69E2EE",
">X c #78E1ED",
",X c #67E0F5",
"<X c #69E2F5",
"1X c #69E4F8",
"2X c #6AE5FB",
"3X c #6CE9FB",
"4X c #74E5F6",
"5X c #7CE4F3",
"6X c #7DEAFA",
"7X c #92B5BC",
"8X c #A1B9BE",
"9X c #85BDC3",
"0X c #8BBDC3",
"qX c #84BECF",
"wX c #96BAC4",
"eX c #86C1CA",
"rX c #89C2CA",
"tX c #83CBD5",
"yX c #89C9D6",
"uX c #84CCD9",
"iX c #96CBD5",
"pX c #87D3DC",
"aX c #ADCFD9",
"sX c #86DBE6",
"dX c #9ADCE6",
"fX c #A7DCE5",
"gX c #B5D9E6",
"hX c #9AE3EA",
"jX c #9AE3EC",
"kX c #86E9F6",
"lX c #8AEBF6",
"zX c #93EBF5",
"xX c #99E9F3",
"cX c #91ECFA",
"vX c #9BEEFB",
"bX c #96F2FC",
"nX c #9CF2FC",
"mX c #A7E4EB",
"MX c #B8E4EB",
"NX c #A8EDF5",
"BX c #A3EEFB",
"VX c #B9EAF4",
"CX c #A3F2FC",
"ZX c #A8F2F9",
"AX c #B6F4FC",
"SX c #C4F3F7",
/* pixels */
"  O 4 y z j z b Z m m m b b b b b b b v x b v z v b b b x b x x x x x x k z z k h h h z z z z z z z z z v v b z v z b b x z z x z b N b b N N b x f e w * o . ; ",
". = g G ) ) ^ _ +.[ _ +.[ X.^ [ ^ ^ ^ ^ ^ ^ ^ ^ ^ ^ [ ^ [ ] [ [ [ ! ! ] ] Q ! ! Y ] ] ! ! ] ! ] [ [ ^ [ ^ ~ ^ ^ ^ ^ ( _ ^ ~ ^ ^ ^ { [ [ [ [ { { ^ Q F h 8 @ o X ",
"+ P :.7XyXrXyXyXyXuXuXyXpXuXuXuXuXyXyXyXyXyXtXuXtXyXuXuXtXtXtX(.tXW.tXtXtXyXyXiXiXtXrXtXtXtXtXtXtXtXuXuXuXuXuXuXuXuXuXuXuXuXtXuXpXpXsXpX`.`.`.(.W.W.v.$.P 0 +   ",
"+ P 7XfXVXVXNXBXBXBXBXBXBXBXZXCXBXBXBXBXBXvXvXBXBXBXCXBXCXZXNXCXNXNXNXNXNXmXmXfXmXMXNXNXNXCXNXCXCXCXCXnXCXCXCXCXCXCXBXCXCXBXBXCXnXCXnXnXCXnXvXcXlXhXrXv.` p ;   ",
"; ' 8XVXSXAXZXCXCXnXvXvXBXvXvXBXnXnXnXvXvXvXvXvXvXvXvXvXCXCXZXZXZXNXNXAXNXfXiXrXiXfXmXmXNXNXZXZXvXnXnXnXnXnXnXnXvXvXvXvXvXvXnXnXnXnXbXbXbXbXbXcXlXsXtXv.` p O   ",
"$ ;.rXSXSXAXCXbXcXcXcXcXcXcXcXcXcXzXcXcXcXcXcXcXlXcXzXcXzXvXvXxXxXxXmXNXfX0Xb.q.v.0XdXhXhXxXzXzXzXzXzXzXzXbXcXcXcXcXcXcXcXcXcXcXcXcXbXbXbXlXkXkXkXsXW.q.Y p + X ",
"% ;.7XNXSXnXlX5X5X-X-X-X%X%X%X%X%X%X%X%X%X%X%X%X%X%X%X%X$XsXsXsXpXpXpXiX7X$.I V C v.R.eXpXsXpX`.`.$XsX>X>X>X>X%X-X-X-XkX-X-X-X5X-X5X5X5X3X4X-X4X+X(.J.7.Y p % , ",
"% ;.7XmXAXbXsX%X=X#X#X#X#X#X+X+X#X+X+X+X.X+XoX#X+X$X.X`.`.$X`.(.(.W.W.b.-.G r $ i Y =.v.R._.`.`._._.oXoX;X;XoX%X+X+X+X$X+X+X=X=X%X#X=X=X:X:X=X=X.X!.n.6.Y p * 0 ",
"% ;.rXmXZXkX5X=X=X:X=X=X%X,X#X#X*X#X@X#X@X#X+X#X#X#XoXoX$X$X|.(.W.b.c...G y 3 @ & f H %.j.R._._._._.oXoX#X#X*X*X&X&X=X=X&X+X+X&X*X*X*X&X=X*X=X=XOXQ.J.6.) p # > ",
": O.0XmXCXkX%X<X=X2X2X<X,X,X1X1X*X*X<X,X,X,X,X:X<X#X:X#X$X$X|.!.R.c.-.V t 5 @ @ @ 3 y J  .l.~.~._.).XX;X;X#X*X*X=X=X=X=X=X=X&X*X&X1X*X*X*X*X2X=XOXI.h.6.U p # : ",
": O.9XhXnX6X-X1X2X2X2X2X1X1X1X1X1X1X1X1X,X,X1X,X:X#X;X#X#X$X|.K.a.<.R y 3 3 & # @ @ w x ] e.S.P.U.).XX#X:X,X*X*X=X&X2X&X*X*X*X2X&X2X2X&X2X2X2X2XOX^.g.6.K 8 * > ",
"- O.eXhXnX5X<X2X2X2X2X2X2X2X1X1X2X2X1X2X1X1X,X,X,X#X#X#X$X|.K.a.>.W b 3 @ 5 6 w 6 & 4 y B ] w.l.P.).XX@X:X,X1X1X2X=X&X2X&X2X&X2X2X&X2X2X2X2X2X2X&XY.h.<.K u $ > ",
": O.9XhXbX6X2X2X2X2X2X2X2X2X2X2X2X2X3X3X1X1X<X<X,X@X#X#X$X|.A.>.D v t 2 2 t z N c w 4 w r x J | j.U.XX@X*X1X2X2X2X2X2X2X2X&X2X2X2X2X2X2X2X2X2X2X&XY.N.6.L i - > ",
"- O.eXhXbX6X4X2X2X2X3X2X2X2X2X2X2X2X2X3X3X1X*X*X*X#X+X.X^.J.0.R l t 7 5 e b F Y K f w 6 w w f ] w.P.T.@X*X1X2X3X3X2X2X2X2X2X2X2X3X2X2X2X2X2X2X2X&X'.A.<.L d = > ",
"= O.eXhXbX6X2X3X3X3X3X2X2X2X2X3X2X2X2X2X1X*X=X=X=X=X.XI.N.3./ M j 8 t l z J _ @.X.B f a w w e C [ e.F.'.&X*X2X3X3X3X2X2X2X2X2X2X2X2X2X3X2X2X2X2X&X'.N.<.L d = 0 ",
"- O.eXhXbX6X2X2X3X2X2X2X3X2X2X2X2X2X2X2X1X*X=X=X#X+X!.p.>.W M t 7 j v M W +.,.<.*.! F n y 4 w f A { 4.H.[.&X2X2X3X2X2X2X2X2X2X2X3X3X2X2X2X2X2X1X&XY.A.-.L d = 1 ",
"- O.eXhXbX6X3X1X3X2X2X2X2X3X2X2X2X2X2X2X2X2X*X=X+X|.J.+.M l 7 7 8 l D | 5.5.e.t.p.2.#.H z w 4 4 r N { M.].].*X1X1X1X1X2X2X2X2X3X3X3X2X2X2X3X2X2X&XI.m.<.L d - 1 ",
"- O.eXxXbX6X3X3X2X3X2X2X2X2X3X2X3X2X2X3X3X2X=X+X!.K.0.S t 5 3 7 j M / 9.f.y.g.g.g.g.7.[ A d 6 3 4 t Z  .M.].[.&X1X1X1X2X3X2X3X3X3X3X2X2X2X2X2X2X&X].Z.-.Y i - 1 ",
"- O.eXhXbX6X3X1X1X2X3X1X2X2X3X2X2X2X3X3X2X2X+X^.B.>.W z 8 5 8 z D ~ | y.B.N.i.m.y.g.p.*.X.H x q w 7 j T  .8.I.&X1X1X1X3X3X2X2X3X3X3X1X3X3X2X2X&X&XI.x.-.L d - 1 ",
"- O.eXhXbX6X3X3X3X3X3X1X3X2X3X2X2X3X2X3X2X2X+XH.t.[ Z r 6 6 y D ~  .3.m.N.N.N.N.m.g.f.0.6._ G d w 6 t m }  .C.OX1X1X1X1X2X2X3X3X3X3X3X3X3X1X2X2X&XT.A.-.I d - , ",
"- O.rXxXbX6X3X3X3X2X2X1X2X2X2X2X2X3X3X3X2X=X{.G.e.{ Z r w w k E | 8.u.m.C.C.M.N.N.i.f.d.a.=...h q w k D } 8.D.[.,X1X1X,X1X2X3X3X3X3X3X3X2X2X1X1X}.Y.x.-.Y d - 1 ",
"* O.eXjXbX6X3X3X3X2X3X1X4X3X3X2X3X3X3X3X2X=X{.J.f.&.! f w w f ~ ,.u.m.C.C.C.C.B.m.N.f.A.c.a.$.V d r x [  .k.U.OX,X1X,X,X1X2X3X3X3X3X3X1X2X2X2X,XOXY.l.-.Y i : 1 ",
"* ;.rXjXbX6X3X3X3X1X1X1X1X3X3X3X3X2X=X&X=X=X+X|.R.L.7.F d r k E  .u.m.C.D.C.C.C.N.N.N.c.c.a.@.V d h A  .P.U.[.,X2X&X,X,X,X3X3X3X3X3X1X3X1X2X,X,XOX^.x.-.I i : , ",
": $.rXxXbX6X4X3X3X3X1X1X1X3X3X3X2X&X}.].{.}.|.|.`.tXn.] N y v ~ ,.u.C.C.D.C.C.N.N.N.N.f.c.a.=.F h x ] y.U.[.;X,X,X[.[.[.[.1X3X3X3X1X1X1X1X1X3X,XOX^.x.*.L i - , ",
"* $.rXxXbX6X3X3X3X2X2X2X2X2X2X2X&X].H.M.M.H.^.|.$XuXK._ S z Z } 3.M.C.C.C.C.C.C.V.i.g.f.p.a.-.F x b [ V.'.OX*X@X[.D.C.C.].].&X&X3X1X,X1X3X:X1X,XOXQ.l.%.L i - , ",
"* ;.rXjXbX6X3X3X3X3X2X2X2X2X&X&X}.H.9. . .u.H.K.|.uXK.#.S v m }  .M.C.C.C.C.D.D.Z.k.y.f.a.7.*.F x b Q k.'.OXOX[.H.M.9. .M.H.[.&X,X,X1X3X3X3X1X,X@X~.x.=.I i : , ",
"* :.rXxXbX6X3X3X2X2X&X2X=X&X&XOX].9. .T T  .t.G.K.K.a./ m v m  .8.M.M.M.D.C.D.Z.Z.k.i.g.p.d.*.F x b T u.I.U.'.I.M. .} /  .M.Y.[.@X,X:X1X:X:X3X,X@XU.l.=.L i : , ",
"* O.rXjXnXkX4X3X2X2X&X1X=X}.{.F.9.( T v v T #.4.0.0.@.R v j v ( 8.M.M.M.C.D.D.Z.z.k.i.g.f.d.#.H b x S | 8.u.u.8. .~ T v T  .u.P.T.;X;X,X3X3X1X3X@XQ.l.=.I i : , ",
"* O.qXmXbXkX4X2X2X&X&X+X{.^.N.| T m y 6 e z Z A R S M l t t m ( 3.M.C.C.D.D.Z.Z.Z.z.z.z.j.j. .D v t j Z T T T S m j t e t b Q 4.Z.).;X,X4X2X2X2X*XI.h.*.K i : , ",
"5 O.qXxXnXkX3X2X2X&X}.{.G.h.>.D j 8 5 4 5 r s f l s t t t j m ( 3.u.m.D.D.D.Z.Z.z.z.k.z.k.j. .E b k j j v k k t e e 3 3 3 5 k [ w.P.).@X<X2X2X2X@XY.h.-.I i % , ",
": O.qXNXCXlX3X2X&X=X+XJ.f.>.E s 7 w w q r f z z l l z v v m T  .9.M.V.C.D.Z.Z.S.Z.z.k.z.k.y. .} T m v m b b v j t t w & & & q B [ e.S.U.XX@X*X1XOX^.x.*.U p : < ",
"* o.wXBXCXlX6X2X&X&X{.f.#.R b e 5 e f N A A A D S S D T E ~ ( 9.u.M.V.D.D.V.Z.V.Z.z.Z.z.Z.y.8.} / [ T E T T T T S m x q w & = k B ~ 1.S.T.OX*X*X+XQ.A.-.P p : < ",
": ;.0XmXVXkXkX&X&X|.J.| D k 7 5 w z F ..*.<.<.>.>.>.>.<.3.3.t.i.m.V.C.C.N.N.Z.Z.Z.k.k.k.j.i.t.4.3.3.3.1.3.,.<.>.<.*...F h w & 6 e x Q t.I. X<X4X+XQ.d.6.P p 9 < ",
": ;.0XmXBXkXsX+X{.H.t.E k 7 3 6 y B [ 2.a.0.f.0.f.f.f.f.f.M.m.C.D.D.D.C.D.C.Z.N.V.k.k.V.k.j.y.y.u.y.f.y.y.y.f.f.a.a.-.X.F d w 4 5 e m } y.Q..X=X+XQ.d.*.` p 0 < ",
"% ;.wXfXVXdXsXH.N.<.~ m t e r k N E } w.p.f.f.f.f.N.B.N.m.m.V.C.D.D.D.C.C.N.D.N.Z.Z.z.Z.V.j.i.i.i.i.y.i.i.i.i.j.f.r.2.%.! F x e 6 6 y T } t.F. X|.H.c.6.) p 9 0 ",
"; ;.wXgXNXdXqXh.>.W Z j t y v A Q } 3.t.i.y.f.M.M.B.C.N.N.D.V.C.V.D.D.D.C.C.C.Z.Z.Z.D.Z.V.V.V.V.V.k.i.g.k.i.j.j.y.p.e.<.%...J x e 8 8 j S ~ 4.G.^.K.a.6.) 8 : , ",
"; ;.8XSXSXiXL.>.W j t 8 r k Z [ | 1.i.m.C.M.B.M.M.B.C.B.V.V.C.C.C.C.D.C.D.B.D.D.Z.C.Z.D.D.C.Z.Z.Z.Z.z.z.z.z.z.k.j.j.y.e.e.2.@.F x e 6 5 e m W t.A.A.a.' R 8 % > ",
"; ;.8XgXgXwXq.) v 7 5 j x Z E | t.i.V.C.C.C.C.C.M.B.C.C.C.V.C.C.D.C.D.D.D.C.D.D.C.C.C.D.D.Z.Z.C.Z.Z.S.z.z.z.z.j.l.j.j.s.y.s.-.] F z a 2 2 8 M } 3.0.0.>.) p % , ",
", ' 8XgXaX:.G j 5 2 7 l D ~ | 1.y.V.V.C.H.C.C.C.H.C.C.C.V.C.C.C.C.D.D.C.C.C.D.C.C.Z.C.C.D.D.C.C.S.Z.S.S.S.k.j.z.z.z.k.k.y.s.2.*._ W M 7 2 3 e Z W _ >.` ) p 9 , ",
", Y 8XaXaX:.Z t 2 2 5 v J { ,.e.i.k.V.C.D.C.C.C.C.D.C.D.V.C.C.C.C.C.C.C.D.D.D.Z.D.Z.D.V.V.P.P.D.V.Z.Z.l.z.P.z.z.k.k.k.k.y.e.e.-.@._ A t 2 3 e b R / _ >.) 8 > , ",
", ' wXgXaXq.R v 8 3 3 y N W | 1.y.k.V.Z.D.Z.Z.Z.P.Z.V.C.C.C.C.V.D.C.D.C.D.D.Z.Z.Z.D.D.D.D.P.C.C.D.Z.Z.Z.Z.V.k.V.z.g.i.y.i.y.0.*.X.H x 6 3 6 y T ( | @.@.) p * , ",
"9 ' wXgXgXqX' R l 5 2 6 k Z [ &.e.i.k.V.Z.Z.Z.S.z.D.V.C.C.C.C.V.C.D.C.D.D.Z.D.F.D.D.D.D.D.D.D.D.D.D.F.Z.Z.V.V.V.V.V.m.m.u.y.5.+.J z e 4 4 e N } 1.3.6.-.) p * , ",
"9 ' 8XgXVXaXL.>.D e 2 @ 3 y S { 1.y.j.k.j.P.z.z.z.Z.C.V.Z.C.C.V.m.C.N.D.D.Z.V.V.P.Z.D.Z.D.D.C.C.C.D.Z.Z.Z.V.V.m.m.m.i.u.t.y.<.R x 6 2 & 6 x ^ y.S.x.d.-.) i % , ",
"9 ' wXVXVXmXyXB.| Z e & & w z J {  .e.y.j.z.z.z.k.k.j.j.k.k.V.V.V.m.Z.V.V.Z.Z.S.k.Z.Z.Z.Z.D.D.V.Z.D.Z.Z.Z.V.V.i.i.i.y.t.4.<.+.n e 3 & w z J &.P./.E.c.6.` i * , ",
"* ` wXVXVXjX|.H.y.#.T y 3 w e k B ] | w.y.y.j.j.k.j.j.y.i.k.k.V.V.V.V.V.V.V.Z.z.k.V.V.V.V.V.V.k.k.k.Z.Z.k.V.k.k.g.g.s.2.#.Q Z d w 3 w N [ ,.j.~._.E.n.7.) a : , ",
"# ' 0XgXAXjXsX!.H.g.#.Z e w w w d B Q %.w.w.w.y.j.w.w.w.w.e.i.i.m.m.m.V.V.V.k.z.k.k.k.m.m.k.j.y.j.y.y.j.y.i.y.t.t.p.2.%.E n s e 6 w x ~ 1.z.P.).).E.x.=.Y p * , ",
"% ' 0XfXBXjX-X}./.Q.y.[ b k w & w d B ] | | | w.| %.| | | w.5.t.u.u.m.V.V.k.k.z.k.j.k.V.m.u.y.w.| | | w.1.1.1.,.&.&.{ J N a 4 4 w z J 4.S.I.).;XXXE.x.=.Y p : , ",
"# ' 0XfXNXkXsX+X@X XP.w.[ A r w w w h C J J J ] Q ] ] J ] ] } 3.t.t.u.V.V.k.k.j.k.k.k.V.u.y.4.| ] ] ] ] [ ] ] ! Q Q F h q 4 4 e x T ,.Z.~.).;X;X_.P.x.6.) p 3 > ",
"# o.0XfXNXsX>X:X:X;X~.E.s.%.J s 4 4 6 e r d l z l f s f v n R }  .t.i.m.Z.i.z.j.z.i.i.i.i.y.,.Q A x h x h h f h f d q = = $ q N ] 4.C.T. X XXX;X).~.x.6.) s * < ",
"% o.9XmXNXkX>X:X;X;XoX_.E.s.#.A r w 4 & 3 7 t s t e e 8 8 8 v /  .8.u.m.V.z.z.z.j.k.i.m.y.p.*.H h q q r d r q q q w = + $ = k Q  .F.).[.@X@X+X;XoX~.x.6.) p 2 < ",
"% o.0XmXnXlX5X:X:X;X;XoX_.E.s.{ A z w 3 3 y v M M T v s 8 7 l / 3.t.u.m.Z.z.z.j.j.z.y.i.f.f.*.F k q q h B B N N h q q = q h J | i.I.[.*X,X*X,X:XoXQ.A.7.W p * > ",
"% o.0XhXnXkX4X:X:X;X;XoXXX_.E.y.| J x e e n R _ $.` _ v j 7 l /  .t.i.m.Z.z.z.k.j.i.i.g.f.p.@.Z d q k J ] { ] ..J N d d h ] | k.I. X&X&X1X*X,X:XXX~.A.<.) p 9 0 ",
"% o.9XhXxXkX:X:X,X:X;X@XXXoX).Q.z.&.E x v ^ 6.v.L.L.q.R l t l /  .u.i.V.N.V.i.z.z.i.i.g.N.a.<.n r r B | j.l.J.x.w.] B B J w.z.U.[.@X&X*X*X,X*X,XXXI.x.7.W p 2 < ",
"* ;.0XhXzX5X:X3X:X,X:X;X@X@X#XoX~.y.| E W 7.n.qXqXqXqX) M t v ( t.u.i.V.Z.V.V.z.i.i.g.g.f.a.<.M y k D e.E.`.`.!.z. .[ [ | Z.T.OX&X&X*X*X*X,X,X@X XI.A.6.) p * > ",
": o.9XdXvX5X:X:X1X,X,X,X,X@XXX@X).Z.y.1.5.h.K.tXiXiXL.` v t v (  .u.m.V.Z.m.m.i.m.i.y.f.f.c.-.Z y k A y.E._.$X(.P.k.8.e.j.U.;X,X*X2X&X*X1X1X<X@X XI.h.6.) a * 0 ",
": ;.0XdXzX5X4X:X1X:X,X1X,X:X@X@XXXU.P.l.S.E.(.W.yXqXb.) v 8 l _ w.u.M.m.V.m.N.m.i.u.y.f.0.a.*.Z k r A  .G.~._._.).I.F.P.U. X,X,X2X*X2X&X*X1X*X&X XI.h.<.Y a = > ",
": ;.0XjXvXkX<X<X1X,X,X1X1X<X,X:X;XXX).).U.).!.!.L.c.$.Z y 7 j /  .m.m.M.M.M.m.m.u.g.y.t.7.a.@.B y t b } y.F.T.). X X X XOX@X,X*X*X*X*X*X*X1X1X=X XI.x.6.Y i - 0 ",
": ' 0XfXvXkX:X<X1X1X1X1X1X1X,X,X:X:X:X;XXX)./.J.a.<.W j 7 7 j ~  .u.m.M.M.m.M.m.N.y.t.p.r.7.$.N r e j T  .u.F.'.XX@X,X1X1X,X,X*X*X*X*X*X*X<X*X*XOXU.x.6.Y d - 1 ",
": ' 0XdXxX5X=X1X1X1X,X,X,X<X1X<X:X1X:X:X;XXX).S.3.R j 7 3 5 j ~  .u.m.M.m.m.u.m.i.y.s.r.r.r.=.V r 6 e v T  .i.T.@X*X,X1X1X1X,X,X<X*X*X*X<X*X*X*X[.I.h.-.Y a : 1 ",
"% ' 0XdXvX5X4X1X,X,X,X*X,X1X<X,X1X:X:X:X;X;X~.S.9.T j 7 2 5 y D }  .4.u.u.u.M.u.y.p.w.w.-.=...h w 6 e b T  .i.'.,X,X1X1X1X,X*X,X*X*X2X<X*X<X1X*X XI.x.=.) a - 1 ",
"% ;.0XdXvX5X4X1X*X1X*X*X<X<X1X*X,X<X,X:X:X;X XH.f. .T l 7 6 7 k Z ~ #.3.t.u.N.u.t.t.2...] J N r 5 w k T  .t.D.[.<X*X1X1X1X,X,X,X*X2X=X<X2X*X*X*XOXI.h.6.Y a * > ",
"% ` 0XhXbX5X=X*X*X*X1X1X<X,X*X1X1X,X,X;X@X#XOX'.H.f.>.D j e 6 e t Z W #.4.t.f.u.y.e.@.X.C h q 4 5 t S  .t.F.T.OX1X<X<X1X1X,X1X,X1X*X1X2X1X1X*X1X&XY.x.6.Y i * > ",
"# o.9XdXvX5X=X1X*X2X*X*X*X1X*X*X,X*X,X@X,X@X@XOX{.!.N._ Z y 6 3 4 y Z [ <.5.f.f.e.2.%.C d = & 3 w N ~ t.H.'.OX*X1X*X1X*X1X,X*X,X*X2X1X1X1X*X1X*XOXY.A.-.I a - > ",
"$ o.9XjXvX6X4X*X2X*X2X*X*X*X*X1X,X,X,X:X*X,X=X&X=X+XQ.9.[ S y 5 3 w z H [ @.<.5.<.%.L h q $ & w z Q  .D. X@X<X1X1X*X*X<X*X*X*X,X*X1X*X*X1X1X*X*X@XY.A.-.U i * > ",
"% o.9XhXbX5X:X3X,X,X,X*X*X1X1X*X1X*X2X*X*X&X1X&X&XOX/.G.p.%.E z e 6 w k N T X.#.+.J x q = & 4 x Q ,.k.U.XX,X,X,X,X,X,X1X*X*X,X,X,X,X<X<X*X*X1X*XOXT.x.-.U i * < ",
"% o.9XhXzX6X4X1X1X1X1X1X*X*X*X1X*X1X*X*X1X*X*X&X&X@X.X/.J.s.#.A y w 5 3 r x J ! E x e 4 = 6 f E &.k.I. X;X,X,X,X,X,X1X,X,X,X,X,X,X,X<X<X*X<X*X*X@XQ.x.-.U i - > ",
"% ;.7XhXbX5X:X3X1X,X1X,X*X*X1X,X1X1X1X*X*X,X*X*X&X@X X).~.J.p.[ Z y 5 & & r f B N e 4 4 6 f D &.k.I.XXXX;X:X,X,X1X,X1X,X,X*X*X@X,X,X,X,X*X*X1X*X@XY.x.=.I i * > ",
"% ` b.xXzX5X:X1X1X,X*X*X1X1X*X,X*X1X*X1X,X*X*X*X@X@XoXXX_.~.S.5.[ A d 4 @ 4 w s s 4 4 e b E ,.y.P. X;X:X,X,X,X,X,X,X,X,X,X*X*X*X*X,X*X*X,X*X*X1XOX/.x.-.I i : > ",
"* ;.9XhXbX5X:X:X1X1X*X1X,X<X<X<X1X*X,X1X,X,X*X*X;X;X;XXX;X_.~.P.s.%.C q & $ & & & @ 6 b / t.G.I. X;X1X,X,X1X1X:X,X,X,X,X*X*X*X*X*X*X<X*X*X*X*X1XOXY.A.-.I i % 1 ",
"% O.eXdXzX5X<X1X*X,X,X,X<X,X<X<X,X,X,X,X,X:X,X;X;X;X;X;XXXXX_.~.R.s.] N w = @ @ @ 3 j E 4.F. XXX;X,X,X,X1X1X1X,X,X,X,X,X,X*X*X*X,X,X*X*X*X*X*X*XOXT.h.=.I i % , ",
"- O.9XdXzX5X:X*X*X*X*X*X,X,X*X*X*X,X;X,X:X,X;X,X;X;X;XXXXX_._._.R.S.w.[ B s 4 @ & f E ,.Z./.@X*X,X,X*X*X*X,X,X1X1X1X,X,X,X*X,X,X*X,X*X*X*X&X*X*XOX^.s.=.I i % , ",
"% o.9XdXxX%X#X&XOX&X&X@X@X@XOXOX@X@X@X@XXX@X@X@X;XXXXX).).).)._.~.J.n.7...B d 4 e J #.g.H..X X+X@X@X@X&XOX*X@X;X@X,X,X*X*XOXOX@X@X&X&XOX@X&XOX&X XR.x.=.I i % , ",
"% ` 7XsXcX-X}.}.}.&X&X}.OXOXOXOXOXOXOXOXOXOXOXOXXX).).).).).~.~.~.R.K.n.r._ N r x ..p.G.!./.{. XOX@X@XOXOXOXOX X@X X XOX X X X X X X X[. X{. X X/.Q.c.=.I 0 % , ",
"$ Y b.iXjX|.{.}.].].{.{.Y.{.{.Y.^.'.T.^.T.'.T.^.U.U.U.P.P.P.P.P.E.J.R.n.d.@.L B J *.x.J.Q.Q.I.^.T.T.{.{.{.^.T.T.T.U.T.U.U.I.I.I.U.I.U.Y.T.Q.Y.T.Q.A.a.$.I i % , ",
"% I v.eXuX!.H.H.H.H.C.H.G.F.F.F.F.F.G.D.F.F.F.D.P.D.P.z.l.l.l.l.A.x.n.n.a.-.%...@.7.a.h.A.A.A.F.G.F.F.H.G.H.G.G.S.G.S.S.S.A.Z.S.A.S.S.S.S.S.l.P.x.s.r.O.I i % , ",
"+ P $.v.b.a.f.9.9.9.9.3.9.5.9.5.9.4.5.4.3.4.4.4.4.1.1.1.w.w.2.w.<.2.7.7.=.=.@.$.$.=.6.7.2.4.5.9.t.f.9.t.9.t.t.9.e.e.e.e.e.w.1.w.e.w.5.5.2.w.e.w.w.-.....V - % , ",
"O i V ..O.^ ^ / / T W W E W Q W W Q Q Q Q Q Q Q Q Q Q ! ! ] Q Q Q ! ! ) W ! K K K R ! ! W ~ / / ( ( / / / / / W ^ ! ! ! ! ] ] L ! ! ] L ! Q Q Q L L C V g $ + , ",
". $ u g c z z v M v z z z z z z z f h z f f x h x h c c c x x b v x z x c z c f f x x z v v v M M M M M M M M M x x f h h h h N h h h h h h h h h h d r 4 O X , ",
". O O @ $ & 3 5 7 2 5 5 4 4 4 4 = 4 = = = = = = = = 4 4 4 5 4 3 3 3 3 3 3 3 4 = 3 3 5 5 5 5 7 7 7 7 7 7 7 7 2 2 3 3 = = = = 4 = = = = = = = = = 4 = = # O . . ; ",
". O $ q i a y z l s s s f s a d s d d a d d d s d d f s f f s f s s s s a p a a a s p s l l l z j v l l j j j j s s d s d d d f f d d d d h h d d d q = # . o + "
};
