/* XPM */
static char *result[] = {
/* columns rows colors chars-per-pixel */
"80 80 231 2 ",
"   c #7C2E1D",
".  c #7B3628",
"X  c #7D3C34",
"o  c #7D4237",
"O  c #8E2C17",
"+  c #842D1C",
"@  c #8C2D1B",
"#  c #9F2D17",
"$  c #932D1B",
"%  c #9B2D1B",
"&  c #85311F",
"*  c #8D311E",
"=  c #94321D",
"-  c #9C321D",
";  c #95381F",
":  c #A52B17",
">  c #A32D1B",
",  c #AC2D1B",
"<  c #B42C1A",
"1  c #BC2D1B",
"2  c #A3311D",
"3  c #AC311D",
"4  c #B4321D",
"5  c #BC311D",
"6  c #B7381F",
"7  c #842E23",
"8  c #8C2E22",
"9  c #952E21",
"0  c #9B2E21",
"q  c #853224",
"w  c #8D3423",
"e  c #83362A",
"r  c #8C3529",
"t  c #84392B",
"y  c #8C3B2C",
"u  c #953323",
"i  c #9C3423",
"p  c #963924",
"a  c #9C3A24",
"s  c #93352A",
"d  c #993529",
"f  c #933A2B",
"g  c #9D3B2A",
"h  c #833B32",
"j  c #933D33",
"k  c #9D3E32",
"l  c #9E3F39",
"z  c #A02F21",
"x  c #A23422",
"c  c #AC3523",
"v  c #A33B25",
"b  c #A23C2C",
"n  c #AB3928",
"m  c #B43522",
"M  c #BA3521",
"N  c #B43A24",
"B  c #BB3A24",
"V  c #B73D29",
"C  c #A63E32",
"Z  c #C22E1C",
"A  c #C92F1D",
"S  c #C4311D",
"D  c #C9311E",
"F  c #C43220",
"G  c #C23C25",
"H  c #C33E29",
"J  c #C83F2B",
"K  c #9B422D",
"L  c #884539",
"P  c #954134",
"I  c #9B4334",
"U  c #93443A",
"Y  c #9C443B",
"T  c #974A3B",
"R  c #9C4A3C",
"E  c #9B503F",
"W  c #A4422D",
"Q  c #AA422E",
"!  c #AC4B2F",
"~  c #B4422D",
"^  c #BB442D",
"/  c #BC472C",
"(  c #A34434",
")  c #AB4432",
"_  c #A44936",
"`  c #AC4A33",
"'  c #A2463A",
"]  c #AB4539",
"[  c #A34B3B",
"{  c #AC4A3A",
"}  c #B54532",
"|  c #BA4532",
" . c #B24B35",
".. c #BD4A34",
"X. c #B34D3C",
"o. c #BC4C3B",
"O. c #A6513F",
"+. c #AB513C",
"@. c #B5523D",
"#. c #BC533E",
"$. c #C74125",
"%. c #C4422C",
"&. c #C94329",
"*. c #C24633",
"=. c #C34B35",
"-. c #CA4B36",
";. c #C44D3A",
":. c #C94E3A",
">. c #C4513B",
",. c #CB5538",
"<. c #CB523D",
"1. c #D0553B",
"2. c #844C44",
"3. c #8B4C43",
"4. c #894B49",
"5. c #974B43",
"6. c #885249",
"7. c #995548",
"8. c #885954",
"9. c #965E57",
"0. c #9C5C53",
"q. c #A94E42",
"w. c #B44C41",
"e. c #A45345",
"r. c #AB5344",
"t. c #AD5946",
"y. c #A3544A",
"u. c #AB534A",
"i. c #A45A4C",
"p. c #AB5B4C",
"a. c #B45443",
"s. c #BC5543",
"d. c #B55945",
"f. c #BC5A45",
"g. c #B4554D",
"h. c #BD5749",
"j. c #B35C4B",
"k. c #BD5C4B",
"l. c #A35B53",
"z. c #A75852",
"x. c #AC5D52",
"c. c #B55E52",
"v. c #BC5E52",
"b. c #9A6256",
"n. c #9B645C",
"m. c #B3604F",
"M. c #BD614D",
"N. c #A56254",
"B. c #AC6153",
"V. c #A46857",
"C. c #A4645B",
"Z. c #AA655C",
"A. c #A56B5D",
"S. c #AC6B5C",
"D. c #B46252",
"F. c #BB6454",
"G. c #B46957",
"H. c #BD6957",
"J. c #B3655A",
"K. c #BB655A",
"L. c #B36A5C",
"P. c #BC6B5C",
"I. c #BA705E",
"U. c #986A66",
"Y. c #9C6A64",
"T. c #976F6F",
"R. c #A76864",
"E. c #A46C64",
"W. c #AB6C63",
"Q. c #A46F69",
"!. c #B36C63",
"~. c #BB6D62",
"^. c #B86F68",
"/. c #AB7265",
"(. c #A4726B",
"). c #AD726A",
"_. c #AC786E",
"`. c #B47265",
"'. c #BC7264",
"]. c #B3756B",
"[. c #BB756B",
"{. c #B4796C",
"}. c #BB7A6C",
"|. c #AB7973",
" X c #B27B76",
".X c #B57D75",
"XX c #BC7D74",
"oX c #C04C40",
"OX c #C25543",
"+X c #CD5442",
"@X c #C35A44",
"#X c #CA5942",
"$X c #C35C4A",
"%X c #CB5D4C",
"&X c #C35F52",
"*X c #C06047",
"=X c #C4624C",
"-X c #CA624D",
";X c #D3634E",
":X c #C46453",
">X c #CB6554",
",X c #C66955",
"<X c #CD6955",
"1X c #C46659",
"2X c #CB665A",
"3X c #C46B5C",
"4X c #CB6B5B",
"5X c #D26554",
"6X c #D36955",
"7X c #D96C56",
"8X c #D26659",
"9X c #D36B5B",
"0X c #D96E59",
"qX c #C2705F",
"wX c #D4715C",
"eX c #C36D62",
"rX c #CD6C61",
"tX c #C27364",
"yX c #CB7566",
"uX c #C17669",
"iX c #C3796C",
"pX c #D17161",
"aX c #C57E72",
"sX c #BF8274",
"dX c #B5837B",
"fX c #BC837B",
"gX c #C38274",
"hX c #CA8277",
"jX c #C3847A",
"kX c #B58680",
"lX c #C28981",
/* pixels */
"jXjXuX1X1X1X<X2X>X%X&X%X:X:X&X&X&Xv.K.K.!.Z.A.A./.sXsXsXtX3X=X=X=X,X=X=X*X*X*X=X=X=X=X=XF.H.L.!.A.E.U.(.dX}.'.H.H.M.=X=X=X=XM.f.k.@X*X$X=X:X:XF.K.Z.Z.R.R.].XXlX",
"fXaX~.v.v.k.$X%X$XOXOXs.OXh.h.g.g.g.g.x.x.l.b.n.A.{.sXsX'.F.M.#.#.M.f.f.f.s.s.s.f.s.f.s.d.j.p.B.N.b.n.Q.sX}.I.G.m.d.f.@XM.f.#.#.@.#.s.f.s.h.h.d.p.z.0.b.R.W.aXlX",
"].^.x.q.] ] ) } C ) } ) C ] ] C C l l l U L L L 7.V.sXsXB.+.` ! ! ! ! Q ! Q Q Q W n Q W ( I T U L 3.8.n.{.}.D.t.! Q ! ) Q ! W W Q Q ) Q ( ] ( C l U L 3.7.C.].XX",
").!.u.' b i x x x c x x x x i d d s 8 s r e . L E V./.I.p._ v v v 2 v a a 2 a - - - - = u p w t t L 6.n.{.'.m.O.K ; v v v v - - i x i g d x i u r e X X 4.9.^.].",
"^.!.u.C x z 2 2 2 2 2 x x x 0 0 0 9 9 8 & &   L L V.'.I.t.! 2 2 2 - # # % % - - # # $ - = = * & q h 3.9.[.uXj._ a - 2 2 2 2 - # x % x x 0 0 0 9 8 7 . X 4.y.^.^.",
"~.3Xs.C c > > , , , , > , > > > % % $ 9 = +   t T i.I.qX@.! 3 : : 2 : : : : : : : : : # # = O O 7 y T l.uXyXf. .v 2 3 : 3 > > : > > > > > > : % 9 7 7 e j 5.^.eX",
"eX2Xs.V c , , < < 3 < 4 3 < , 3 > > > > = = O w _ t.qXqXf.~ 4 , , , , , : : , : : : , : : 2 # = $ s T x.yXpX@X} 4 3 , < < , , , , , , 3 , , : : % $ 8 8 l q.eXrX",
"4X<X;.B < < 1 1 1 1 1 1 1 < 5 < < , , > % % $ ; ! d.qXwX#./ 4 < < 1 < < < < < < < < < < , , 2 # $ a ' j.wXwX#X/ 4 < 1 < 1 1 < < < 1 < < < < < < > 0 8 9 l q.rXrX",
"<X;X,.S 1 < 1 1 1 1 Z 1 1 1 1 1 < < < , : % $ ; ` f.4X<X>.H 1 1 1 1 < < < < < < < 1 < 1 < 4 3 2 - x _ d.wX0X#X$.6 < 1 1 1 1 1 < 1 < 1 1 < < < < , % $ u b w.2X9X",
"<X;X-.6 1 1 1 1 Z 1 1 Z 1 1 1 < < < < : > % = a ` f.6X6X>.G 5 1 1 1 1 1 1 1 1 1 1 < 1 < < , : : # ; _ t.wX0X,.$.5 < 1 1 1 1 1 1 1 1 1 < < 1 1 < , > % i b X.<X8X",
"<X;X-.$.1 1 1 Z Z Z Z Z Z 1 1 1 < < < , > % $ ; ` f.wX6X<.$.S 1 1 1 1 1 1 1 1 S 1 1 1 1 < 4 : : - i _ d.wXwX1.,.5 5 1 Z Z Z 1 1 1 1 5 1 Z 1 1 < , % $ i ( @.>X6X",
"6X;X-.S 1 1 Z Z Z Z Z A Z Z 1 1 < < < , > % $ p _ f.wX0X<.%.S Z Z 1 Z Z S S S 1 Z 1 Z 1 < < , : % a _ t.wX7X1.$.5 5 S Z Z Z 1 1 Z 5 Z S 1 Z 1 < , > % i Q #.<X5X",
"<X;X:.G 5 1 S S Z S A A S Z Z 1 1 < < , : = = ; ! f.wX0X+X&.F Z Z Z Z Z Z Z Z S Z 1 1 1 1 < : : # i ( t.wX7X,.$.S 1 S S S Z Z Z 1 1 1 1 Z 1 1 < , > $ z C #.<X6X",
"6X6X-.G 5 1 S A A A A D S Z 1 1 1 < < : : # O ; ! f.wX0X1.&.F A Z Z Z Z A A Z Z 1 Z 1 1 1 : : : % p ( t.wX7X1.$.S 1 S A S Z Z Z Z 1 Z 1 1 1 Z 5 < > % i Q #.<X6X",
"7X;X1.G 5 S Z S A A D D A A Z 1 1 < < , : = O ; ! s.4X7X:.J D S A Z A A A A Z Z Z 1 1 1 < < : : % i ( a.<X7X,.$.5 1 S S S S S S S Z Z 1 Z 1 Z 5 < z 0 i b w.2X6X",
"6X;X-.G S 1 A A A A D A S Z Z 1 1 1 1 , : # O * W #.6X6X,.$.D S A Z A Z A A A A Z Z 1 1 1 : : : % a I t.;X7X1.$.S S S S A S S Z Z Z Z Z 1 Z 1 5 < , z i C o.<X8X",
"<X;X=.G 5 5 D D A D D D A Z S 1 1 1 1 < : # O ; W @.<X6X-.S S D D A D D D D A D Z Z Z 1 1 3 : 2 % i I r.<X;X,.$.D S S A S A S S Z Z Z 1 Z 1 Z 5 3 , 0 d n X.>X5X",
"-X;X&.$.5 S S D S A A A S Z S 1 1 1 1 4 3 # O ; ! #.-X;X=.$.D D A A A D D D A A Z S S S < 4 3 2 % p I r.<X;X,.$.S 5 Z S S A Z Z F Z Z S Z Z 1 1 4 3 z d C X.&X5X",
"<X;X-.G 1 1 S D D A S S S Z S S S 1 5 4 4 2 # ; ! @.<X;X-.S D D D D D D D D A D A Z Z 1 5 4 3 2 - g I t.<X7X,.$.5 1 S S S S A A F A F A Z 1 Z 5 < c > i b @.>X<X",
"-X;X-.$.5 1 A D D S S S S Z S S S 1 5 5 4 2 - ; ! #.<X;X-.$.D D A A D D D A A A A A A 1 < , : 2 - p R t.<X7X,.$.5 1 1 S A A S S A A F A Z 1 1 1 , 3 - i Q X.>X6X",
"<X;X=.6 < < 1 Z S S S S Z 1 1 Z 1 1 1 < 2 # ; ; ! @.<X6X:.$.S Z Z Z Z D S Z Z A Z S Z 1 < : > : $ p T t.4XwX,.G 5 < 1 S S S 1 1 1 F Z Z 1 < < < , > % a C X.>X<X",
",X-X>.6 < < < 1 1 5 5 5 M 5 5 < < < , , : - O ; ! m.4X<X>.B 5 1 1 1 1 1 1 1 1 1 1 1 1 < 3 : 2 = = w T p.qX<X=./ < < < 5 1 1 < < 1 1 1 M 1 < < , > 0 9 p ( r.F.2X",
",X,Xo.~ 3 , < 4 < 5 5 4 < < < < < , , : - O O w ( +.,X,X#.N 4 < < 1 1 < 1 1 < 1 1 1 < : > : # = @ r L 7.H.<X#./ 3 : < 5 < 6 1 < < < < < < < < , > 9 8 s f [ F.:X",
"qX4Xs./ 6 6 6 6 N B N N B B M m m m c c v p K P E p.qXqXf.| B 6 6 6 6 6 6 6 5 6 6 6 5 6 6 2 v K f P 5.l.I.3Xf.| 6 6 6 6 6 6 6 6 M m M m < < m c n k s j R u.P.~.",
"aXyX1X$X#.o.;.=.=.;...>.;.;.;.*.o.o.o.w.w.u.7.y.i.L.iXiX,Xf.=.=.,.>.>.>.:.=.;.=.=.=.=...o.@.@.r.e.7.0.R.}.qXF.>.#...;.;.OX>.>.;.;.=.;.=.o.;.oXh.g.u.y.y.z.Z.uXaX",
"hXhXeX:Xv.k.$X%X*X@X@X@X$X$X$X$XOX$X$X&Xc.J.B.C.S.`.gXhXqXF.=X@X-X=X-X=X-X-X%X%X$X#X#X$Xf.M.D.D.N.C.Y.(.}.gXqXH.M.M.$X=X%X%X%X$X$X@X$X$XOXOX&X&XK.K.R.A.R.].aXaX",
"lXjX[.~.K.F.:X:X=XF.F.k.1X:X&X&X&X1Xv.~.!.!.R.E./.sXjXhXiX3X:X:X=X,X,X,X,X:X>X:X,X:X=X:XH.G.P.S.A.E.T.|.fXgX'.I.M.M.,X,X:X:XF.:XM.:X:X:X1X1XK.~.!.!.E.(.).|.kXlX",
"kXfX].Z.B.B.D.D.j.c.j.j.c.c.v.v.c.c.c.x.l.C.n.U.Y._.dXfX`.G.D.D.M.F.M.D.c.F.c.c.k.D.j.m.D.B.V.C.9.U.T.T.dXdX`.S.N.p.p.D.D.m.m.p.p.j.j.c.x.c.c.x.B.Y.U.U.U.(.kXkX",
"|.|.0.0.5.5.' [ R ' ' ' ' ' q.l q.l l l 4.4.4.4.9.n._.{.N.y.[ { { [ [ [ [ [ [ ' ' ( ( ( R T 5.4.2.4.8.T.|.|.V.i.E T [ [ _ R R I I _ _ [ [ R ' 5.3.3.2.6.8.9.(.|.",
").!.z.q.C d g g v g g b b v b b d k l s r r h o 6.b.)./.i._ K v W W K g v g b b g d g g g f r e X o 8.8.).`.i.R I K g g g g a a g g g b g g k f y h X o 4.7.(.).",
"^.^.g.q.k 0 x x x x x x x c x c z z z 0 8 7 7 h E l.`.'.t.( x x - a i - i z z x x > > i i u 8 7 e h 4.9.].~.t._ a a 2 x 2 - 2 - i 2 x x i 0 i 9 w e . X 4.7.R.^.",
"^.eXg.C n z z 3 z , c > z , 3 z z z z z 9 8 7 h T B.'.P.a.( x > 2 2 > > > > 3 z > > > > > % 9 8 7 r 4.9.'.tXd.` 2 2 2 > > 2 2 > > > > , z > 0 % 9 8 q . j u.^.^.",
"rXrXoX] < z , , , , < < , < < , , z , z 0 9 + r R j.~.eXs.] c , 3 : : , , , , 4 < , , : z z 0 0 8 s 4.z.^.rXg.C c , z < 3 3 , , z 1 z z z < z z 0 8 8 s l q.^.eX",
"rXrXoX| c < < < < < , < , , , < , , , > z 9 8 s ' g.3X4XOXV m , 4 4 < , , , 3 < < < < , , , > 0 9 s l z.rXrXoXV 3 , < < M < < , < z 1 < z < < z z 0 7 s l u.K.2X",
"1X2XoXH 1 < 1 1 1 < < < < < < < < < , , > i 8 s ' k.rX4XOXV m 1 < 1 < < < < 1 < < < < < , z z 0 d d l z.rXrXoXJ m < 1 M 1 < < < < 1 1 < < < < < z 0 8 s l ] rXrX",
"2X8XoXV 1 1 1 1 1 1 1 1 1 1 1 < < < < , > % 9 d ] h.4X8X+XJ F 1 1 1 < < < 1 1 1 1 1 1 < < , , 0 0 d l z.rXrX+X-.1 < 1 1 1 1 1 1 1 1 1 1 1 < < z , 0 8 d l w.2X8X",
"8X5XJ J 1 1 Z Z Z Z Z Z Z 1 1 1 < < < < : 0 $ d ] s.8X6X<.J A Z Z 1 1 1 1 1 1 Z 1 1 1 < < , : 0 0 9 l g.rXrX+XJ 1 1 Z Z Z Z 1 1 Z 1 Z Z 1 1 Z z z 0 0 0 d w.2X8X",
"8X+XoXF 1 1 Z Z Z 1 Z Z 1 1 1 1 < < < , > % $ 9 ( f.9X6X+XJ Z Z Z Z 1 1 Z Z Z 1 Z 1 1 1 < < : : 0 d l g.rX8X+XJ 1 1 Z Z Z 1 Z 1 Z Z Z 1 1 1 1 1 , > 8 9 l w.8X8X",
"8X5XJ J 1 1 Z Z Z Z 1 1 Z 1 1 1 < < < , : $ $ u ) s.8X8X<.J Z Z Z Z Z Z Z Z Z Z 1 1 1 < < , : 0 0 0 l z.rX9X;XJ 1 1 Z Z Z Z 1 1 Z Z Z Z 1 1 < z : 0 8 0 z w.8X8X",
"8X8XJ J 1 1 Z Z Z Z Z Z 1 Z 1 1 1 < < : : % $ u ) a.8X7X+XJ F Z Z Z Z Z Z A Z Z Z 1 1 < < < : > 9 0 l g.rX8X+XJ Z < 1 Z Z Z Z Z Z C Z Z 1 1 1 1 , 0 0 0 C w.2X8X",
"%X5XJ H 1 1 1 Z Z A Z Z Z Z Z 1 1 < < : : % 8 9 Q s.8X7X:.J F A Z Z A A Z A A Z Z Z Z 1 < , z > 0 d l u.rX8X+XJ 1 1 Z Z F F Z 1 1 Z Z Z Z 1 1 z , > 0 d C w.8X9X",
"8X5X-.G M 1 Z Z Z A Z Z Z Z Z 1 1 < < , : 0 $ 8 ( #.<X5X<.J F Z Z A Z A A A Z Z Z Z 1 1 < , , z 9 0 l g.8X8X+XJ F < 1 Z Z Z Z 1 1 1 Z Z 1 1 1 < , z 0 0 C w.rX8X",
"&X%X-.H M 1 Z Z Z Z Z Z Z Z 1 1 1 < < , : $ $ $ ` a.6X5X:.J F Z Z Z Z Z Z Z Z Z Z Z 1 1 < < , z 0 0 l u.rX8X+XoXM 1 1 Z 1 F Z Z 1 1 F 1 1 Z 1 < , z 0 d b X.2X8X",
"%X5X-.B Z 1 Z Z Z Z Z Z Z Z Z 1 < < < < : : $ 8 W #.>X5X:.&.F Z Z Z Z 1 Z Z Z Z Z Z 1 1 < , , z 0 0 l w.2X8XoXJ M < 1 Z 1 Z 1 1 F 1 1 F 1 C 1 < , z 0 z d X.&X8X",
"&X%XoXH M 1 M Z Z F Z Z F 1 Z Z 1 1 < < > 0 9 9 ) a.>X;X:.G S S Z Z Z Z 1 Z Z Z 1 Z Z 1 c z , z 0 0 l u.2X8XoXJ 1 1 Z Z F 1 C Z 1 1 M 1 M 1 1 , , z 0 0 b ] &X8X",
"&X&XJ M 1 1 Z Z Z F Z Z Z F Z 1 1 < M c , 0 9 9 ) a.>X5X=.^ F 1 Z Z 1 Z Z Z Z Z Z 1 M 1 1 < , z 0 9 l u.&X8XoXJ C < Z Z 1 F Z Z F 1 F 1 1 1 < < , z 9 d b w.2X8X",
"&X%X*.M 1 < 1 Z Z Z 1 Z Z 1 F 1 1 1 5 < z x 9 9 ( a.>X5X<.H F 1 1 1 1 1 Z Z Z Z Z 1 1 1 < 1 z z 0 s l y.2X8XoX] Z 1 C Z F F Z Z 1 F M 1 1 M 1 < , z 9 0 k { &X8X",
"8X%XoXV < 1 1 1 Z M Z 1 Z Z 1 1 1 < 1 3 , 0 9 d ( w.:X>X;.^ M 1 1 1 1 1 Z Z Z Z F 1 M 1 c z , z 0 s l y.2X8XoXoX1 1 1 F 1 Z Z Z F F F F 1 1 < < , 0 9 d C q.&X&X",
"&X&XV V 4 < < 1 < 5 < < 5 1 1 < < , < , > 9 + w I t.:X>XOX^ 5 1 4 1 < 1 1 1 Z M 5 5 5 < , > > % 9 s l 5.K.1X;.V m < 1 1 5 1 5 5 M 1 F 1 M < < , z 0 9 s k { v.1X",
"&X&XoXC v 6 6 6 6 6 6 6 6 6 4 4 4 3 3 c x g K P [ t.P.1Xs...V M M m M m m M B M M M m m c c v g s j 4.z.K.1Xs.o.V m N M N B M N B B B V M m M c c d s j Y y.K.K.",
"'.eX&Xw.! ....=./ / / / / / / / | }  . .{ e.7.e.i.G.'.qXM.f.#...;...*./ *.*...=.o.....| X.X.{ u.q.z.z.R.~.eXM.f.X.........=.o...o.=.=.;.w.oXo.w.w.u.y.y.z.B.~.tX",
"iXuXK.&Xf.f.*X*X*X,.f.#.#.#.#.#.s.f.f.f.p.B.N.V.S.I.}.}.I.=X*X,.%X@X@X@XOXOX#X@XOXOXs.s.k.k.c.D.z.z.R.R.[.uXP.M.k.f.@X@X@Xf.>.@X@X$XOX#X%XOXOXv.g.x.l.C.Z.!.[.iX",
"jXgXtX,XM.M.=X=X=X=X=X=X=X*X*X=XM.=XH.F.I./.A./.{.{.sXsXqX,X,X<X-X<X<X<X-X-X-X>X>X:X:X:X1XP.P.~.R.^.Q. XXXaXtX3X,X,X-X-X=X=X*X=X=X-X=X>X>X:X2X1XeX!.`./.).{.sXjX",
"gXgXtXG.M.M.M.=X*X*X*XM.M.*XM.*XM.M.M.D.G.V.A.A./.{.sXsXI.H.=X-X-X-X-X=X@X@X*X=X&X:X$X$XF.H.G.J.R.R.Q.|.XXaXtXH.H.*X*X*X*XM.*X*XM.@X@X*X$Xk.:X:XK.!.A.E.W.].sXgX",
"{.`.D.t.O._ +.!  .!  . .` ` ! ! W _ _ T E E 2.6.9.A.dXsXG.t.+.!  . .!  .! !  .{  .X.{ { [ [ O.5.5.4.9.Y. X[.J.j.! ! ! ! ! ! ! ! `  . .X.{ { { ] R 5.5.7.0.V.{.}.",
"/.W.i.[ K K K W W W v v v a v g K ; K K K o o o L V./.`.G.+.! v W v v v W v W v W W v g p p y h h 2.8.9.W.^.B.O.K K ; v v ; v v a v v b v v d 9 f h o o 3.9././.",
"/.S.t.( ; ; # # - - 2 # ; ; - = = = = @ q . . . L b.`.`.p._ v 2 2 2 - - 2 - - - 0 z % $ $ @ 7 7 . X 2.9.).'.p._ ; ; # - # ; # ; O : % 0 0 0 0 $ * q . o L 7.W.`.",
"L.P.+.W v # # : # # # # : # 2 : # $ $ $ + +   . T i.'.'.t.! 3 : : : 2 : 2 : : : : : > % $ @ O + 7 . 2.0.!.~.t.) ; # # # # # # # : : : # % : % 9 @ +   q L 7.L.'.",
"qX1X@.! 3 # : : : : , : : : : : : : # # O + + q T i.eX3X@.n 3 , 3 : : : : : 3 : : : : : % $ O O 7 e L l.~.eXh.) v : 3 3 , : : : : : : : , : : > $ $ * e P 7.L.qX",
"qX<X,.6 6 : : < < , 4 < < , < : : : : : # O + * I t.3X4X#.V < < 4 < < < < < < < < , < < , : % $ @ w U i.eXrXOXV 3 3 < < 4 < < 4 < < < < , < , , % $ * w I +.1X3X",
"4X6X=.^ < < < < < < < < < < < < , , , : # = + * I a.4X<X#./ 1 1 < < < < 1 1 1 1 < < < < , : # % $ r j z.tX9XOXV 1 < < 1 1 < < 1 < < < < < < < , > % $ p I w.1X2X",
"4X6X=.B < < < 1 1 < 1 < < < < < < , < : : O O * K a.4X<X>.6 1 < Z 1 1 < 1 1 1 1 1 1 1 < , : # $ $ 9 U u.3X9X#X| < : < 1 1 1 1 1 < 1 1 < < < < , > % $ u g a.:X2X",
"<X5X:.B 1 < < 1 1 < < 1 < < < < < < , 3 : $ O * W @.<X6X,.$.1 1 1 1 1 1 1 1 Z 1 1 < 1 < , , > % $ u I y.4X9X,.$.6 < 1 1 1 S < 1 < < 1 1 1 < 1 4 , % $ p C { >X>X",
"<X5X;.G < < Z 1 1 1 1 1 1 < 1 < < < < , # # O ; W @.<X6X&.S Z Z 1 Z Z 1 Z 1 Z Z 1 1 1 < , : > % $ u j u.3X4X,.$.1 < 1 S S Z 1 Z 1 1 1 1 1 1 < 4 , > $ u v X.:X>X",
">X-X:.G 5 5 1 5 1 1 1 1 1 1 1 < < < < : # # O ; W @.<X6X,.G S 1 Z Z 1 1 Z Z Z Z Z 1 1 < , : : % $ 9 I u.,X8X<.%.5 < Z Z 1 Z 1 1 1 Z 1 1 1 1 < < > % $ 0 b X.>X5X",
">X-X=.B 5 < 5 Z S 1 1 1 1 5 5 < < < 1 : # # = ; W @.,X6X-.$.S Z 1 Z 1 Z 1 1 Z Z 1 1 Z < < , : # $ 9 j r.1X6X<.%.< < 1 Z Z 1 S 1 1 1 Z 1 1 < 1 : : : % $ b X.&X>X",
">X-X-.B 4 1 1 S 1 1 1 1 5 1 1 1 1 < < : # # O ; ( @.4X6X>.G 5 Z 1 1 1 1 Z Z Z Z Z 1 1 < , : : $ $ u j e.1X8X<.H 5 1 1 Z Z 1 1 1 S 1 Z Z Z < 1 < , % $ i b X.&X5X",
":X%X%.$.5 1 1 1 1 1 1 1 5 5 5 1 < < < : # # O ; W @.<X<X>.G 5 1 1 1 1 1 1 Z Z Z Z Z 1 1 < : : # $ 9 P u.,X8X;.H < < 1 1 1 Z S 1 Z S S 1 1 1 1 < , > % u v { :X2X",
"=X-X&.6 < < 1 1 1 1 1 1 1 1 5 < < < < : # # O - W @.<X<X=.B M Z 1 Z 1 Z Z S Z Z 1 1 Z < < : : # $ u j e.:X5X;.H 5 < 1 Z 1 S 1 1 1 Z Z Z 1 1 1 < , 2 % % i ] &X>X",
"<X-X=.$.5 < 1 1 S 1 1 1 1 1 1 5 < < 4 : # # O ; K @.>X6X=.$.S 1 1 1 Z Z S Z 1 1 Z 1 Z < < : : # $ u k q.1X5X;.H < < 1 1 1 5 1 S Z 1 Z 1 1 < < < , 2 $ u i ) &X>X",
"=X;X=.6 < < 1 1 1 5 1 1 5 1 1 < < < : < # ; O ; W @.:X-X=.B 1 1 1 S 1 S Z 1 Z 1 1 1 1 1 < < : : % u k u.2X5X:.H 5 < 1 1 1 Z 1 5 1 Z Z Z 1 < < < 3 > % = g ` %X>X",
"-X#X$.5 < < 1 1 1 5 1 1 < 5 1 < < < 4 : 3 # O ; K X.>X-X=.G 5 Z 1 Z S Z S Z 1 1 1 1 1 < < : : : % d I u.2X8X:.H 5 < 1 1 1 5 1 Z 1 Z Z Z 1 < < < , 2 % u x  .=X-X",
"=X-X%.6 < , 1 < 1 1 1 1 1 < < < < < , 3 > - * ; W @.:X;X>.B 5 1 1 5 Z 1 1 1 1 1 1 1 1 < 3 , > % $ 0 l u.2X<X:.H 4 < 1 1 5 5 5 1 1 S 1 1 < < < , 3 2 % u g ` =X>X",
",X*X/ 6 < , < < < < < < < 4 < < , , , , 2 ; * * K +.,X,X>.^ 5 < < 1 1 5 1 < < < < < < < , 3 > % 9 s l y.1X2X;.^ m < < 1 1 4 < < < 1 < 1 < < < , z x = = g _ k.=X",
"M.f...N 3 , , , 4 : : < , , , , , : > > # = + * K t.:X:X#.N 4 < < < < < < , < , < , < , 3 , % $ 9 9 U y.v.:Xo.~ 4 3 4 < < , < , < , < < , , , > > - @ w f ( j.k.",
"F.M. .~ c 3 4 4 4 4 4 4 4 4 6 4 3 , 3 2 v p * K _ t.H.,X#./ 6 4 4 6 4 6 4 4 4 4 3 < c m n n x i s j 5.z.K.1Xs.o.N c N 4 6 6 3 3 4 < 6 6 m m c c v d f f I [ c.F.",
"P.F.f.X.} ..| / / / / / ~ / | | ~ ~ } ) ` [ R 5.i.B.P.3Xk.s...%./ %./ / ^ ^ ^ ^ V V V o.o.X.] ' Y 5.y.z.^.K.&Xs.@.} | / | ^ / / / / | ..| | } } { [ q.5.e.p.L.P.",
"[.'.D.f.d.s.s.s.#.>.#.#.#.#.s.s.s.a.a.a.p.x.N.V.B.S.[.tXH.=X@XOX@XOX@X#.o.X.o.o.h.s.s.h.g.k.j.p.z.l.n.R.^.^.K.v.f.f.#.#.#.#.#.#.#.#.OXOXh.OXh.h.g.x.l.C.C.Z.!.[.",
"XXaX'.G.G.:X:X,X,X=X=X=X=X:X,X,X:XK.K.K.L.!./././.].XXXXuXeX1X>X<X,X=XM.M.M.M.F.v.1X&X2X~.~.~.!.R.R.Q.Q.|.[.^.eXH.1X:X:X:X,XM.H.=X=X<X2X2X1X2XeX~.^.).).)._..XXX",
" X.XW.L.J.G.J.H.H.m.G.D.D.D.H.J.J.J.J.J.W.E.(.(.(._.dX.X[.~.H.K.H.F.F.M.m.j.c.D.F.K.K.v.K.K.!.R.E.Y.T.T.|. X^.!.L.J.G.F.D.D.D.M.H.D.G.K.K.~.K.~.!.W.Q.Q.(.(. X.X"
};
