/* XPM */
static char *_643813045785[] = {
/* columns rows colors chars-per-pixel */
"80 80 256 2 ",
"   c #040302",
".  c #0B0302",
"X  c #070609",
"o  c #130201",
"O  c #170706",
"+  c #181505",
"@  c #0A0F11",
"#  c #181818",
"$  c #260503",
"%  c #370807",
"&  c #271A0F",
"*  c #14271A",
"=  c #2F2C14",
"-  c #192629",
";  c #312F2E",
":  c #4D1110",
">  c #661816",
",  c #781B1A",
"<  c #67211C",
"1  c #782E18",
"2  c #503232",
"3  c #7A2926",
"4  c #6B302C",
"5  c #793938",
"6  c #2B493A",
"7  c #54501C",
"8  c #544F2D",
"9  c #6C5123",
"0  c #734B34",
"q  c #726D33",
"w  c #3F3C41",
"e  c #673D44",
"r  c #2F4E4B",
"t  c #2D554D",
"y  c #534E4D",
"u  c #784846",
"i  c #705252",
"p  c #6F6C52",
"a  c #4D6F6C",
"s  c #676061",
"d  c #6A6769",
"f  c #747170",
"g  c #831E1C",
"h  c #85251C",
"j  c #8B231E",
"k  c #95231D",
"l  c #9C231D",
"z  c #992818",
"x  c #92381B",
"c  c #A3241C",
"v  c #AC241C",
"b  c #A52819",
"n  c #B3251C",
"m  c #BA271C",
"M  c #B42A1D",
"N  c #A7351B",
"B  c #B6361D",
"V  c #8B2522",
"C  c #872926",
"Z  c #8C2923",
"A  c #942422",
"S  c #9B2421",
"D  c #952A27",
"F  c #8A352C",
"G  c #96332C",
"H  c #8C3533",
"J  c #883A3A",
"K  c #973937",
"L  c #A32521",
"P  c #A82924",
"I  c #B62923",
"U  c #A73429",
"Y  c #B4342A",
"T  c #A63B38",
"R  c #BB3B39",
"E  c #C2341E",
"W  c #CA3626",
"Q  c #904E1C",
"!  c #A8451D",
"~  c #83611F",
"^  c #8D502B",
"/  c #89433A",
"(  c #97443C",
")  c #AC4F2D",
"_  c #B44524",
"`  c #936D2A",
"'  c #AE702E",
"]  c #A56A39",
"[  c #CB512B",
"{  c #CD6F36",
"}  c #E76D3C",
"|  c #8C3D43",
" . c #A93F44",
".. c #C13C42",
"X. c #874948",
"o. c #974646",
"O. c #8A5350",
"+. c #985858",
"@. c #A74A46",
"#. c #B74B49",
"$. c #A8574B",
"%. c #B54E52",
"&. c #A55453",
"*. c #A95656",
"=. c #B45755",
"-. c #916E52",
";. c #B16F52",
":. c #995C63",
">. c #866A69",
",. c #966666",
"<. c #977769",
"1. c #8A7070",
"2. c #8A7677",
"3. c #977777",
"4. c #B96866",
"5. c #BB696B",
"6. c #A86F70",
"7. c #C74646",
"8. c #CA754B",
"9. c #D06C6F",
"0. c #77984A",
"q. c #66935F",
"w. c #6D9176",
"e. c #71B474",
"r. c #AC852F",
"t. c #B58935",
"y. c #AB9B38",
"u. c #B99539",
"i. c #C88738",
"p. c #D38638",
"a. c #C79839",
"s. c #E68F3E",
"d. c #C8A83D",
"f. c #958C4F",
"g. c #B5914E",
"h. c #92AF51",
"j. c #AFAC4F",
"k. c #8B8B71",
"l. c #B29369",
"z. c #BB9375",
"x. c #8FB46D",
"c. c #BAB967",
"v. c #B0AC71",
"b. c #C39747",
"n. c #D1924D",
"m. c #EA954A",
"M. c #C9A748",
"N. c #D6A947",
"B. c #C9B848",
"V. c #D7B648",
"C. c #CFB256",
"Z. c #EBB54E",
"A. c #D2946C",
"S. c #CBB16B",
"D. c #E8B76E",
"F. c #99C75A",
"G. c #B3CF54",
"H. c #92C96F",
"J. c #B1D269",
"K. c #B8E36A",
"L. c #CCCE4F",
"P. c #D8C64A",
"I. c #D9C755",
"U. c #D8D852",
"Y. c #E2C54B",
"T. c #E2D34B",
"R. c #EECA56",
"E. c #E9D955",
"W. c #F4D958",
"Q. c #D8EB5A",
"!. c #E9E857",
"~. c #E8EF56",
"^. c #F6E758",
"/. c #FAEC5B",
"(. c #F6F456",
"). c #FBFC56",
"_. c #F4F55B",
"`. c #FBF45B",
"'. c #F4FA5B",
"]. c #FBFA5A",
"[. c #CFCC6F",
"{. c #ECD56E",
"}. c #F4D865",
"|. c #D4EC68",
" X c #E9E767",
".X c #F8EA65",
"XX c #EAF766",
"oX c #F8F767",
"OX c #E8E877",
"+X c #F2EF77",
"@X c #F7F878",
"#X c #5F7580",
"$X c #6A7E84",
"%X c #747E82",
"&X c #8C7C85",
"*X c #53918A",
"=X c #678485",
"-X c #6E928E",
";X c #5EAE9B",
":X c #71AF8C",
">X c #68B788",
",X c #64A899",
"<X c #64B697",
"1X c #619EA7",
"2X c #5DAAA6",
"3X c #5DB7A9",
"4X c #5BAEB4",
"5X c #5DB9B7",
"6X c #64A7A4",
"7X c #63B5A6",
"8X c #71B2AA",
"9X c #61B7B9",
"0X c #73C59F",
"qX c #5FC1BC",
"wX c #5EBEC3",
"eX c #60BEC2",
"rX c #5FC1C3",
"tX c #6AC6C6",
"yX c #978586",
"uX c #938C8C",
"iX c #AD9796",
"pX c #86B787",
"aX c #B2B38C",
"sX c #9EA2A5",
"dX c #B1ABA7",
"fX c #D1B3A4",
"gX c #8FCB89",
"hX c #AFD794",
"jX c #B1D3A5",
"kX c #D4D290",
"lX c #E4D68D",
"zX c #DAE592",
"xX c #E6E588",
"cX c #EFED8E",
"vX c #FAFB89",
"bX c #FAFA98",
"nX c #D9D7A5",
"mX c #D2CBB3",
"MX c #E5D7AC",
"NX c #D2EFB1",
"BX c #EAEBAC",
"VX c #FBFBA6",
"CX c #FDFDB9",
"ZX c #C8BFC0",
"AX c #89CED0",
"SX c #A6E4E3",
"DX c #D1CCC9",
"FX c #EBCFCA",
"GX c #EEE9CE",
"HX c #FDFCC4",
"JX c #ECE4D3",
"KX c #FDFDD8",
"LX c #CFFBF8",
"PX c #EEEFE9",
"IX c #FCF9E9",
"UX c #FBFAF4",
/* pixels */
"c l A H &.4.4.=.T c c v n n n n n n n n n n n n m m n n c L ) #.o.D S L I n n n v n v v n v v v v v v v b l h 3 K #.7.I I m m m n v n n n n n n n n n v v c S A ",
"c l k H $.4.4.#.T z c v n n n n n n n n n n m n n n n v c c  .@.o.Z A L L L L v v c v c c c c c v c v b l k h 3 G #.7.I I I n n v v n v n n n n v n n n c S A g ",
"c l j F $.4.4.=.T S l v n n n n n n n n m m n n n n n v N G @.=.o.H D D S L L L S S S S c S l S S l c l k j 3 4 K #.7.Y m m m v v v v n v n n n n n n n v S A V ",
"c z j / +.;.4.=.T z c v m n n n n m n n n n n m n I Y R $.*.4.3.,.X.u 5 | | | | | | | | J | / 5 J / | J J e 5 u O.&.#.Y I m n v b b v v n n n n n n n n v c A g ",
"c l Z H &.4.4.$.T k l v n n n n n n n n n n n m c U 9.fXfXfXDXZXsX&X$X$X#X$X$X$X$X$X$X$X$X=Xf =X=X$X$X$X$X$X%Xf &X:.%.P v m I n v v n v n n m n n n n n v c k g ",
"c l Z H +.4.4.=.K A l v n n n n n n n n n n n m S K iXDXPXPXLXLXAXtX4X4XwX4X9XwX4X5XwX4X5X5X5X5X5X5XwXwXeXeX4X1X%X&X:.T P m n n b v n n n n n n n v n n c c l k ",
"c S V H $.4.4.=.T A l v m n n n n n n n n n P L V X.iXDXPXLXLXSXAXtXwXwXwXwXwXwXwXrXwXrX5XrXqXrXwXrXrXtXwX9X9X4X$X&X&.D I m n n v n n n n m n n n n n n v c k g ",
"c S V H &.4.5.=.T k l v n n n n n n n n n v L D o.&XsXSXSXSXSXtXtXtXwXwXwXwXwXwXwXwXwXqXqXrXqXqXrXrXrXrXwXwXwX4X1X&X:.D L I m n n n n m m m m n n n n n v c l g ",
"L S A H *.5.5.%.K A S L I n n v P n v v v L D | &XjXAXAXtXqXqXqXtXwXwXwX5XwXwX5XwXqX5XqX5XqXqXqXqXqXqXqXqXqXqXqX1X&X:.K L I I I n n m n m m m m n n n n v c l V ",
"L A g H :.5.5.*. .V A A S S S S S S S c l A C i sXNXAXtX0XqXqXqXtXwX4XwX5X4X4X4X4X4X5X4X4X3X3XqXqXqXqX3X3XqX3X3X1X&X:.| L I m I v P n n n n I P P I v v v l k V ",
"L D | | *.&X5.4.o.H C D D H D D G D D D D H 5 i sXAXtXtXqXqX3X3X3XqX4X4X2X3X2X2X2X2X2X2X2X2X3X2X3X3X3X3X3X3XqX3X1X%X>.| I I I I P Y P v I m I I I I I I P L D Z ",
" . .| &.:.9.6.6.+.X.X.O.O.O.X.O.O.u O.X.X.i s $X1XAXtXqXqXqXqXqX<X7X7X,X,X,X1X1X1X,X1X,X,X,X>X;X<X>X<X<X>X<X3X<X8XuX1.+.........R .._ R R R R W ..R ..R R T @.o.",
"&.+.O.:.,.&X6.3.>.f f $X$X$X$X$X$X$Xf $Xf *X*X*X1X9XeX9XqX3X3X<X<X<X:X:X-Xw.w.w.w.%X%X%X=X-Xe.e.>Xe.>X>X>X>X0X>X,XuX%X:.:.%.%.%.%.#.#.#.#.#.#.#.%.%.%.#.#.=.&.+.",
"| | u i >.3.&X3.d a #X1X1X1X1X1X1X2X2X2X2X2X4X3X8X4X5X9X3X3X<X<X0X>X:Xx.w.p p p p i d O.O.p q.0.e.F.e.H.e.gX0X0X<X-Xf :.| | |  . .o.( ( ( K o.K K  .@.( | X.X.u ",
"3 3 4 5 >.1.&Xf s t a 1X4X1X4X4X2X2X2X;X2X2X;X;X;X<X<X<Xe.>X>Xe.H.H.x.x.f.q 9 0 0 0 / | / 9 0.h.F.F.F.F.H.H.gXgXpXk.s e e C | C D Z Z Z Z j j j j j k V V 3 3 4 ",
"A 3 3 5 :.3.f f y a *X1X4XwXwXwX3X3X3X3X;X<X>Xe.>Xe.>Xe.e.e.e.h.h.F.v.c.f.` ~ ^ K K T U G 9 ` h.G.G.F.G.G.K.H.H.x.h.:.5 C C A A l l c l l l l l z k l l A V , 3 ",
"S A F J +.3.3.f s a w.;X3X5X9X7X3X7X<X<X<X>XpXe.e.e.H.H.e.F.e.h.h.G.L.C.g.g.' ' ) ) R R b Q r.j.Q.G.G.Q.Q.G.K.K.F.j.f.^ H K P P v v L v L v c c c c c c c A g 3 ",
"c A Z J :.3.k.3.f f *X-X6X7X6X7X<X<X>X>X:X>XgXH.hXgX0XH.H.H.H.J.L.|.[.I.P.Z.C.m.m.{ [ W N Q r.B.Q.Q.Q.Q.|.|.|.|.[.c.g.;.] ) R Y n v v v n v v v v v v v c S A V ",
"c k Z J *.6.&X6.1.d f f w.=X=Xw.:XpXpXgXgXgXhXhXhXhXhXjXhXhXK.|.OXOX X.X/.^.}.W.R.m.} [ B ! g.S.cX@XXXXXXXXXXXXX|.[.C.g.n.8.#.Y I n I I n n n v v n n v c S k k ",
"b S Z J +.6.6.6.O.0 e u e y y q.x.hXjXjXNXNXNXNXhXjXNXNXNXNXNXcXcXOXoX.X_..X/..X}.Z.} [ Y ! g.D.bXVXbXvX@X@X@XXXXX XE.C.n.8.{ [ m I m I n n v n n n n v v c k g ",
"L A V H *.6.5.:.o.C V V j 3 1 0 l.[.zXNXBXNXCXVXnXkXNXGXKXKXHXVXbX@XoXoX].`.`./..XR.m.W I ) z.MXHXHXCXbXbX@XXXXXXX XE.I.C.n.{ [ m M m m M n n n n v n n n b k g ",
"L A V H *.5.9.=.T S c v M b Q ` g.[.lXcXbXVXVXBXzXmXDXIXIXIXKXCXbXvXoX].oX].]./.W.Z.} } R @.iXMXIXKXKXCXVXvX@XoXoX.X!.P.B.b.{ R m m n n n n n n n n n m v c k k ",
"v S A | %.&X5.=.T S c v M N ) g.S.xXcXcXzXkXzXzXzXMXJXIXUXUXIXKXCXVXvX@X.X.X.XW.R.N.s.{ ' ;.fXJXIXIXKXHXCXVXvXvX@XoX!.P.B.d.i.{ E m n n v n n n n n m n v b z g ",
"c k A | %.5.5.4.T k c v n ! g.[.cXbXVXbXlXkX[.[.nXGXIXUXUXUXUXUXIXHXCXbXvXvX}.R.N.{ ' a.M.z.kXJXIXUXIXIXKXHXVXbXvX@X XL.P.d.m.n.{ _ b b b b n n m m n n v z z g ",
"c k V H *.5.5.=. .Z z b N ! j.lXcXVXVXVXkX[.c.[.MXGXIXUXUXUXUXUXIXKXHXVXbXcX}.}.n.' r.j.C.[.mXJXPXUXIXIXIXKXCXVXbX+X|.L.P.P.M.N.8._ N z b b v n m m m n v l k h ",
"v S A H &.4.5.*.K z x N ! ' C.xXVXVXVXbX[.[.J.aXMXHXJXDXDXDXDXDXJXKXHXVXbXvX}.}.N.u.u.C.[.kXjXmXDXDXmXDXJXHXHXVXbX+X XU.P.P.V.N.i.) ! N N b b v M m M n v z k h ",
"L S V H &.4.4.$.K x ! ' ' g.[.xXbXbXbXvX[.[.c.kXMXMXdX2.d f f k.dXGXCXVXbX@X}.}.R.Z.C.lXMXmXdXuXd d d 1.uXMXHXVXbXvXXX!.!.U.I.C.u.' ) ) _ U b v n n n n v z k j ",
"P S D H &.4.=.$.Q ! ' a.V.I. XvXbXvXvXvX|.L.[.[.zXmXk.; # @ @ ; k.nXCXVXbX@X+X+X.X+XcXCXKXGXiX8 & + + - p mXHXVXvX@X@X~._..X!.V.M.g.8.8.) U b b n n n n v c k j ",
"L L V H *.5.4.$.^ x i.Y.W. X@XvXvX@X@X+XOX{.[.zXBXnX1.; O     = q.nXCXVXvX@XoX+XoXvXbXHXKXGXsXw @ . . & i kXHXVXvX@XoXXX'.'.Q.L.B.M.n.n.{ B b b n n n n v b k j ",
"L S A H &.5.4.$.^ Q a.T.(.oX@XvX@XoXoXXX X XOXcXBXnXp ; + . . = -.nXCXVXvX@X@XoXXXcXVXHXKXGXuX8 O . O & p kXCXbXvX@XoXoX'.'.!.L.j.M.A.n.8.! z b n n m m v c k h ",
"L l j H &.5.4.;.^ Q d.E.].oXoX@XoXoX].'._.XX+X+XVXzXf.7 & = + 7 f.zXVXVXvX+X+X+X+X@XbXVXHXBXv.8 & + + = p [.bXvXvXoXoX'.'.'.!.L.B.C.C.m.8._ b b m m m m v c k V ",
"v l g H &.4.6.$.^ ~ d.^.].].oXoXoXoX].].'.'.XX+XvXxXv.q 7 7 7 q h.zXbXbXvXvXxXOXxXOXcXbXVXBXS.p 9 7 9 q f.xXvX@X@XoX].'.'.'.~.L.B.C.N.n.n._ b n m m m m n c k Z ",
"A C 3 | +.6.4.-.~ ~ j.E.`.oX/./.^.).(.(.(.(.`._.+XOX[.[.c.c.c.J.[.lXcXcXzXlXzXlXzXxXxXcXBXcXlX[.c.S.c.S.[.+X@XoXoXoX)./.^./.E.P.C.V.C.n.n.) x c L c P v l k C 3 ",
"| X.u i 1.3.3.<.-.` B.!.`./.Z.s.s.s.N.P.T.!.(.(.oXXXXXXXOXOX{.xXlXzXcXnXMXBXnXBXnXnXnXnXBXlXxXOXOXOX+X X+XoX].oXoX/.W.Z.s.N.a.a.u.M.C.S.g.O./ 0 / o.o./ / / 0 u ",
">.f f &X&X&X&X2.-.f.L. X`.R.s.} [ ' ' ' d.T.(.(.].].oXoXXX+X+XxXxXzXnXmXFXGXPXGXFXFXmXDXmXlX{. XoXoX].`.oX].'.`.`.}.Z.} [ [ [ ' ' g.S.v.v.k.-.-.>.>.>.>.>.f f >.",
"&X&X&X&X&XyX&Xl.f.h.L..X`.Z.} W B N N ` a.T.^.).].].].'.].oX+X+XlXnXmXFXJXPXIXUXJXDXZXDXmX[.OX.X`.].].].).].].)./.W.m.[ ! B B ! ) g.n.S.A.l.k.<.3.k.3.3.3.k.3.2.",
",.&X&X1.&X&X&Xk.f.f.L.~.^.Z.} W m B N ! u.T.(.).).).'.'.oXoX+XxXlXnXmXDXJXPXUXUXJXDXZXfXkX[.~.(.'.].).).).).).)./.W.Z.[ E E B ! ) t.n.S.S.l.<.k.<.,.<.<.3.1.2.1.",
"O.O.i i ,.&X&X6.-.` j.E.(.Z.} W E B B ` a.T.(.(.).).'.).].oXoXxXzXmXmXDXDXDXJXFXDXdXdXaXJ.L.U.~.).).).).).).).)./.W.m.[ E E N ! ' i.C.A.g.-.^ / O.O.O.X.X.X.O.i ",
"| C | | +.6.6.-.~ ~ d.!.^.Z.} W E B N ! a.Y.^.).).).).).].oX@XOXlXkXZXZXDXDXDXZXdXaXv.J.C.L.~.~.).).).).).).).)./.R.m.[ E E B ! ) p.N.n.8.( F F D D D G G F F C ",
"L A V | &.4.4.$.^ Q d.W.(.Z.} [ E B ! ' a.Y.E.(.).).).).].oXXX+XxXkXZXZXZXZXZXZXaXk.j.j.L.L.T.(.).).).).).].).)./.R.m.[ E E B ! ) n.m.m.8.) z z c v c c c z A j ",
"L L A | %.4.4.@.Q Q M.^.^.R.s.[ E ! ! ' a.d.P.T.~.(.).).).(..XoXOXxXkXkXkXmXkXhXv.j.j.L.L.U.~.(.).).).(.`.`.`.`.W.Z.s.{ [ _ _ ' ' n.m.m.8._ N c v n n n n v L A ",
"v L D D %.4.4.$.^ ~ a.E./.^.R.s.s.a.{ t.r.' r.r.V.!.(.(.).(.(.`.oX X{.OX[.[.[.S.B.j.L.U.T.!.~.).).).`././..X.XW.Z.p.' i.i.p.p.d.N.N.N.A.8._ z b v n n m v L S A ",
"c S A H &.4.4.$.^ Q u.P.E.^.^.W.T.Y.d.d.r.r.` ' r.d.T.^.(.).(.).].].oX.X!.E.U.U.U.U.T.~.(.(.(.(.).].(.^.R.I.d.d.u.r.y.d.V.Y.Y.Y.P.C.n.n.8._ S b n n m v v L A A ",
"c S A C &.9.5.$.^ Q t.V.Y.T.!.^.(.W.W.R.d.a.r.r.r.r.d.^.`./.(.`.`.oX.XoX.X.X!.!.!.!._.).`./././.`.oX.X}.Z.t.` ' ' r.d.T.W.W.T.T.C.M.i.;.' U z b v n v v c L A V ",
"c k Z H &.4.4.@.^ Q ' a.d.T.^.).`././.^.T.V.N.u.` ` y.T..X.X/..X.X.XoX.X.X.X.X.X.X.X}..X.X.XW..X.X}..X{.n.' 1 9 ` u.P.W.`./.W.I.M.b.;.8.' U l b v v v v c S A V ",
"c z j F &.9.4.=.! x ] i.N.P.T.).).`.oX/.E.Y.V.b.' ~ u.P.}.}.W.W.}.}.}.^.}.}.}.}.}.}.}.{.}.}.}.}.}.{.{.D.n.` 1 Q ` u.P.^././.}.Z.N.;.{ ' [ U b v n n v c c A V g ",
"b k j F +.4.5.=.( x ! ' i.a.L.'.`.].`.`.W.E.Y.V.a.r.r.u.a.b.b.b.M.b.b.g.n.g.g.b.b.b.b.b.n.g.i.u.u.g.b.n.t.' ! ' r.d.T.E.!.!.I.D.n.;.) ) T P c v v I n v c S A g ",
"c k j F &.4.9.=.! x x ! Q ' d.!.'.'.'.(.(./.W.E.V.d.t.' ' ` ' ] ;.] ] ;.;.] ] ] ] $.] ] ] ] ] ' ' ' Q ' { a.a.a.V.Y.E.T.P.P.C.S.n.] U z N v v v n n n n v l A j ",
"c k h F &.4.4.=.( z z z x Q y.G.Q.XX'.'.'.(.`.^.W.P.d.t.' ' g.l.z.z.z.z.z.z.z.A.A.iXz.z.A.A.l.n.g.g.' ' a.Z.Y.R.R.W.E.T.P.B.C.l.;.( x z z c v v n n n n v l k g ",
"c k V H &.4.4.$.K z z b z Q q F.K.|.XX'.(.(.).(./.^.Y.B.j.j.kXMXJXJXFXJXJXJXFXFXFXJXFXFXFXBXMXlX[.C.j.B.V.W.^.^.(.^.E.P.d.L.c.l.>.J h k c v I n n n n n v c k g ",
"L A C H &.6.4.$.T k l L x 7 q e.K.K.|.XX'.'.).).(.(.E.P.B.S.lXGXUXUXPXUXUXUXUXUXUXUXUXUXUXKXHXBXzXI.L.B.T.^.`.).(.^.T.P.L.C.v.k.f u 3 V l P M M n n n n v l k j ",
"L A V H &.5.4.*.( 3 F 5 u q q.e.H.hX|.|.XX~.'.).).(.!.T.B.D.{.MXFXFXFXFXFXFXFXMXFXFXFXFXMXMXlXkX[.I.B.P.T.^.(.).(.E.Q.G.x.x.pX:X=Xs u 5 H z l c n n n n v c l j ",
"L S D H %.5.4.*.| 5 s d #X*X*X<X0XH.H.K.|.Q.~.'.).).^.E.W.R.Z.9.9.9.9.9.9.9.9.9.9.9.9.9.9.8.g.g.u.M.V.P.T.^.`.(.~.|.K.H.x.0X8X8X1X$Xf O.X.Z j l v v n n v c k j ",
"l A D H *.5.9.:.X.y d =X1X2X2X;X>Xe.H.F.K.|.XX'.).).)././.W.s._ I Y T Y Y P U P I I Y I N z x Q ` a.d.V.T.!.`._.Q.[.gX>X<X7X8X7X9X-X-X&X-.0 1 x c v v v v l k j ",
"l k V J &.4.4.&.u y d -X6X7X,X,X:Xw.e.h.K.|.XX_.).).(./.}.}.p.! z b L l z z z z z b S S z h 1 x ` a.d.P.T.!./..X|.J.pX:X<X3X7X7X8X,X-Xk.p 0 1 C z z c v c k j h ",
"g j C J &.4.;.<.-.>.:XsX8XpX0X8Xw.q.q.q.h.F.G.L.E.(.(././.W.m.{ _ _ B P ! B _ _ B _ B Y ! Q Q ` ' d.T.T.T.E.!.E.J.x.q.w.*X*X,X<XgXpXpXx.f.f.^ ) U U z c l j h 1 ",
"C 3 3 u +.;.-.l.l.aXaXjXjXjXjXsXw.p 9 q q ` r.r.B.T.~.~.^.^.T.V.s.p.p.p.{ p.p.p.p.p.p.p.p.i.u.u.B.R.E. XU.L.B.j.f.y 6 6 6 6 a e.hXhXgXv.[.S.D.A.8.) j V D C 3 3 ",
"J | X.O.-.;.f.g.S.lXkXkXv.J.kX[.g.-.0 ^ / q ~ ` y.L.T.~.T.^.(.~.W.T.Y.V.Y.Y.Y.V.Y.Z.d.Y.P.P.P.L.I.U.I.I.C.f.-.-.8 = @ @ X * 8 H.zXx.h.k.v.[.lXD.A.( , F | | u u ",
":.:.:.,.<.f.f.j.S.[.S.b.g.M.D.D.A.8.;.$.$.$.-.-.r.y.y.L.T.L.Q.~.'.~.~.!.!.^.^.~.~.~.~.~.~.~.~.Q.Q.U.C.C.f.7 = = * O @ . . + 7 j.L.` 7 7 q j.OXlXv./ < / +.:.:.,.",
"5.6.6.<.<.f.f.g.[.kXS.g.g.n.A.D.A.8.8.4.;.6.;.<.f.h.h.G.G.G.G.Q.'.'._._.(.).(.(.'.).(.'.(.'.XXXX|.L.J.j.0.= + @ @ X X . . + 7 x.c.7 = & 7 y.OXlXv.0 = u ,.3.3.3.",
";.,.<.<.f.f.r.j.S.D.S.;.4.;.A.A.A.;.=.;.:.:.:.&Xf k.h.F.F.F.G.Q.Q.Q.~.(.(.(.~.~.(.(.~.~.~.|.|.|.|.G.F.x.q.8 * * # @ X   . + 7 f.l.7 + & 7 j.xXzXaX8 = y f ,.>.>.",
"o.X.O.O.-.f.f.g.D.fXA.$.o.$.;.8.$.o.o.O.+.i s d w.w.e.e.e.F.F.G.G.L.U.U.U.U.U.T.U.T.U.U.U.Q.|.K.J.x.x.x.q.a t t ; * X   . . # 8 8 = + & = j.kXkXv.8 & ; w 2 2 i ",
"C F ^ 0 O.-.f.l.A.A.$.( D G U U H 3 3 e e i a a w.-Xe.e.e.e.e.h.h.y.j.j.j.j.j.y.j.j.j.j.h.h.F.h.x.e.e.:X,X*X*X*Xa 6 * @ .   @ + & + O + 2 f.v.aXk.w O @ # & & 2 ",
"h 1 3 F -.;.;.;.;.$.( D k l l z g 4 4 2 i d #X*X*X,X<X>Xe.q.q.7 7 7 7 7 7 7 7 7 7 7 7 9 7 7 8 8 p q.>X,X;X;X;X2X*Xa 6 * X     .     X + * w p 8 8 = X   X O % = ",
"k h C / +.;.;.;.( x k z L L c z C < 4 y d $X-X1X2X2X3X;X;Xe.t * + + + + + + + + + + $ + + @ + * t q.*X<X3X3X;X3X1X*Xt - @ @       X X   X X + + @ X . X   O $ : ",
"z k Z F $.;.4.*.( k z l b c L D 3 4 2 8 d #X1X1X2X2X4X2X;X*Xt * O o X .           X . .   X @ * t w.,X2X3X3X2X;X1X1Xa - @ X X X                           O % : ",
"c k j F &.8.4.=.T l l c c c L D H e e i y a a #X*X*X*X4X6X-Xt ; O X X     X X X X X X X X X @ * 6 *X2X,X;X*X*X*Xa a t r - ; # @         X                 O % : ",
"c k j G &.4.4.=.T k l z b S A G | O.i s r r r r 6 t t *X-Xw.t * X . X     X X X X X X     X X # - a *X*Xa t 6 - r r r y a y w #                         . o % : ",
"c z k H &.4.9.$.T k z c L A V H +.:.&Xi w # @ @ @ # r d f w.y @ X               X X           @ ; s &X%Xt - @ @ @ @ w d %Xf y ; .     . .           . . X O $ : ",
"c z j F @.4.8.=.T k z l l C C 0 O.&X&X&Xw ; $ # X & e O.2.>.8 & O O o o o . o . o X .       . @ ; s f d r - @ @ @ # w d &X2.i ; X . . . . O o o o o o $ $ % % : ",
"l k Z H &.4.5.=.T k l z l Z 0 O.&X&XiX&X#Xi e e 2 4 5 X.o.O.5 2 = % % % % % $ $ $ O o .       X # w y y w w ; ; w y d uXuXuXf y ; $ o $ O $ $ % : : : : : : > > ",
"c k Z F &.5.5.=.T k k l k F X.1.&XiXdXdX&X&X&X&X:.| G K G H J J 4 4 > > : : : : % % $ .       . O # # - w w y s d &XsXsXdXiXuX>.e = % % % : : : : > , g , g , , ",
"c k V H &.4.4.=.T k k l l F O.1.uXiXsXiXiXdXiX&X6.@.L A A A K o./ 5 3 3 , > > > : : % o . . . . X X . O # 2 w y s &XsXiXiXiXiX3.i 2 : : : > > > g g k l A g g g ",
"l k Z H &.5.9.$.T k l z l F u <.3.&XyXk.yX9.&X6.o.G L c S S ( @.X.3 3 j j g g , 3 > : $ . . o . o o . . X O # # 2 s yXyXyX&X3.,.O.5 < , , g g g g c c c c S A g ",
"c k Z H &.5.5.=.T k k c c Z X.-.3.2.<.3.6.6.6.:. .D L c c L T @.J C g S S k A A C , : % $ $ $ $ $ $ $ O $ O O # ; i 1.3.6.6.6.:.+.| C g g g A S c c c v c S S g ",
"l l Z H &.5.5.*.T k z l c x / +.-.,.,.,.:.:.%. .T S L v c P _ @.o.C A L L c c S A V > : : % : % : % % : % % % # 2 i ,.,.:.*.=.*. .D A A S l c L c v v v v L A g ",
"c k V H &.5.5.%.K k k z c S F / ( ( / o.| T T T I L v v c L T %.o.Z S P v v n v L S g > < > > > : > > > : : : ; 4 O.+.o. . .T Y L S S L v v n n n n n n v L S g ",
"l k V H &.5.5.*.T A l b v l z j j Z h C g A S L L n n v c L ) @.| D A L I n n v P L A V g g g g g g g g g , < < e o.&.K S L L P P L v v n n m m n m m n v L S g ",
"c k j H &.4.*.%.T z l v v b c l l z l l c c c L n n n v c L  .@.| D A v L v n n v v L A S l c c c c l k A j , 4 J @.%.P L v n v v n n n n n m m m m m m v L S A ",
"l k V H &.4.4.&.T k l v v M b c v c c c L P v v v v n P c P ( %.| A A L L v L v v L v c c c v v v P P v L A g C K #.#.P L n v n v I n n n I n n n n n n v L A g "
};
