/* XPM */
static char *result[] = {
/* columns rows colors chars-per-pixel */
"80 80 216 2 ",
"   c #040204",
".  c #0A0508",
"X  c #0D0B0D",
"o  c #110C0F",
"O  c #110E11",
"+  c #161416",
"@  c #191617",
"#  c #161519",
"$  c #191619",
"%  c #171A1A",
"&  c #1B1B1B",
"*  c #301818",
"=  c #171F20",
"-  c #1C1D20",
";  c #251E21",
":  c #1B2121",
">  c #242424",
",  c #252629",
"<  c #25292A",
"1  c #2D2C2D",
"2  c #302E2F",
"3  c #2E2D31",
"4  c #332F32",
"5  c #3C2D32",
"6  c #2C3334",
"7  c #333334",
"8  c #393535",
"9  c #363638",
"0  c #393739",
"q  c #3B3A3C",
"w  c #48110C",
"e  c #5B221D",
"r  c #5B2F2C",
"t  c #53332C",
"y  c #5C322E",
"u  c #582E31",
"i  c #493534",
"p  c #652C28",
"a  c #64332C",
"s  c #6A332B",
"d  c #663631",
"f  c #3F3F42",
"g  c #413E40",
"h  c #454344",
"j  c #494547",
"k  c #454449",
"l  c #4E4C4E",
"z  c #524D4E",
"x  c #50504F",
"c  c #4F4F51",
"v  c #504F50",
"b  c #525153",
"n  c #5A5456",
"m  c #5C5B5D",
"M  c #6D4643",
"N  c #635757",
"B  c #625E61",
"V  c #666466",
"C  c #686668",
"Z  c #6B696B",
"A  c #726A6B",
"S  c #71716F",
"D  c #6E6E71",
"F  c #716F71",
"G  c #727172",
"H  c #797477",
"J  c #7D7B7D",
"K  c #863329",
"L  c #A43829",
"P  c #B83C27",
"I  c #C73B27",
"U  c #D73B26",
"Y  c #E03D27",
"T  c #BB432D",
"R  c #AD4635",
"E  c #B54735",
"W  c #D9422A",
"Q  c #D14B37",
"!  c #8E5651",
"~  c #B04E44",
"^  c #AC5346",
"/  c #B95949",
"(  c #AD5D57",
")  c #B45C55",
"_  c #A8625A",
"`  c #B9655C",
"'  c #8C6A68",
"]  c #857B7C",
"[  c #9A7D78",
"{  c #9D7E7C",
"}  c #A86E65",
"|  c #B56B65",
" . c #B6736A",
".. c #A47D77",
"X. c #BB7976",
"o. c #C75548",
"O. c #CB564C",
"+. c #E15445",
"@. c #C56558",
"#. c #DB6656",
"$. c #E46A56",
"%. c #C57569",
"&. c #D37469",
"*. c #E4796A",
"=. c #94837D",
"-. c #9C817D",
";. c #A1807D",
":. c #B8877E",
">. c #C6847B",
",. c #D8867B",
"<. c #E68474",
"1. c #7F7F80",
"2. c #847E81",
"3. c #957C80",
"4. c #848384",
"5. c #8A8586",
"6. c #878689",
"7. c #88878A",
"8. c #8D8C8D",
"9. c #968787",
"0. c #8E8E91",
"q. c #918F91",
"w. c #959294",
"e. c #989698",
"r. c #9C9B9C",
"t. c #B18985",
"y. c #BD928A",
"u. c #A49E9F",
"i. c #B89B97",
"p. c #9E9EA1",
"a. c #A09FA0",
"s. c #A3A2A3",
"d. c #A8A0A1",
"f. c #A9A5A7",
"g. c #ACABAC",
"h. c #B7A8A6",
"j. c #B1ADAD",
"k. c #AEAEB0",
"l. c #B1AFB1",
"z. c #AFB1B3",
"x. c #B4B3B4",
"c. c #BAB4B5",
"v. c #B6B6B9",
"b. c #B9B7B8",
"n. c #BDBCBD",
"m. c #C48A84",
"M. c #D48781",
"N. c #C7928B",
"B. c #D4948A",
"V. c #CA9996",
"C. c #D59C9A",
"Z. c #E68F83",
"A. c #E79789",
"S. c #CCA29B",
"D. c #D3A49A",
"F. c #E7A69A",
"G. c #CAA8A5",
"H. c #D3A5A3",
"J. c #D7A9A5",
"K. c #D5ACAB",
"L. c #C7B5AA",
"P. c #CCB3AC",
"I. c #D8B2AD",
"U. c #CCAEB0",
"Y. c #C4B5B4",
"T. c #CBB5B4",
"R. c #C8B8B7",
"E. c #CCB9B6",
"W. c #C1BEBE",
"Q. c #CCBCBC",
"!. c #D3B5B3",
"~. c #DAB5B3",
"^. c #D3BCBA",
"/. c #D8BAB8",
"(. c #E8ACA3",
"). c #E7B6AB",
"_. c #E5B6B2",
"`. c #BCC1BF",
"'. c #C3C2BE",
"]. c #CBC1BC",
"[. c #D5C1BE",
"{. c #EDC4B7",
"}. c #BEBEC1",
"|. c #BDBFCA",
" X c #C1BEC1",
".X c #CABDC2",
"XX c #C4BFC9",
"oX c #BEC1C1",
"OX c #BBC1C9",
"+X c #C2C2C4",
"@X c #CBC4C4",
"#X c #C6C9C4",
"$X c #C5C5C9",
"%X c #C8C8C9",
"&X c #CBCACC",
"*X c #D2C4C3",
"=X c #D3CDCE",
"-X c #DCCCCA",
";X c #D5D2CC",
":X c #CFCED1",
">X c #D2CFD1",
",X c #D5D4D6",
"<X c #DCD6D4",
"1X c #D8D7D8",
"2X c #DCDADC",
"3X c #E7D7D1",
"4X c #E4D5D4",
"5X c #E6D9D4",
"6X c #E9D8D3",
"7X c #E5DADA",
"8X c #EBDDDC",
"9X c #ECE2DD",
"0X c #E2DFE0",
"qX c #E5E2E2",
"wX c #ECE2E3",
"eX c #EEECED",
/* pixels */
"X . X & < 2 7 4 5 5 i i u u u u s s s s a a s s s s s s s d a y y y y y y y y a a a a a a a a a a a a s d d d s y t t t t t t t u r r u r a s s s s s p p e w * ",
"1 & < b Z J 4.4.5.] 2.3.3.3.3.{ ;.;.;.;.;.=.-.=.=.;.;.;.[ -.-.-.{ 9.-.=.9.-.-.{ -.{ { -.;.{ ;.-.-.;.;.;.t.3.3.9.-.9.=.=.=.=.=.=.[ [ [ [ 3...3...3.X...' ! M r w ",
"f 1 g J r.k.b.`.W.b.Y.Y.U.U.U.U.[.J.L.].S.L.L.L.L.L.D.L.L.L.L.].Y.R.R.R.R.T.Y.L.T.T.T.T.T.T.T.T.T.T.T.E.!.T.R.T.E.Y.`.'.R.L.c.L.Y.Y.Y.U.T.U.!.U.U.U.G.i.t.A M * ",
"j 7 j w.n.,X0X0X7X<X2X7X0X8X6X8X6X6X6X6X3X3X3X3X3X3X3X3X3X5X5X9X7X4X<X4X4X5X5X7X4X6X4X6X5X5X5X7X7X7X7X7X7X7X7X0X2X5X5X<X2X<X<X<X4X<X4X4X4X4X4X4X6X6X.X.Xd.[ N * ",
"l 7 c a.&XqXeXqXqXqXqXwXwX0XwXwXeX9X9X9X9X9X9X9X9X9X9X9X9X9X9X9XwX9X8X8X9X6X8X9X8X8X8X8X8XwXwXwXwXwXqXqXwXwX0XwXqXqXqXqX9X9X0XqX0X0X8X8X0X8X0X8X8X8X<X.Xf.3.N ; ",
"i < c p.&XqXqX1X&X:X>X&X>X-X=X4X;X;X;X;X;X;X;X;X;X;X;X;X;X;X5X;X-X-X-X-X-X-X-X-X-X3X3X{.-X-X4X4X,X,X,X,X>X,X>X>X,X:X:X:X:X:X:X:X>X>X>X=X-X>X-X>X=X=X.Xl.w.H j # ",
"q < c s.:X2X0X&X%X@X@X#X@X%XXX@X#X#X`.;X`.`.#X#X].#X#X#X#X;X].;X@X*X*X[.[.[.[.[.{..X{..X.X-X.X.X%X$X%X%X&X&X$X&X$X$X$X$X%X%X#X#X%X$X$X%XXX%X$X%XXX.Xb.s.8.Z k # ",
"q < b s.:X0X0X&X#X+X+X+X+X+X@XXX#X`.#X`.`.`.`.#X#X'.#X'.].'.'.].@XQ.E.[.E./././..X_..X_..X.X.X.X+X@XOX$XXX$XXX$XOX$X$X$XOXOX$X$X+X@X$X$XXX$XXX XXXXXv.s.7.D k # ",
"q < x s.&X2X0X:X+X+XoX+X+X`.'.'.oX`.oX`.`.`.`.`.`.`.`.`.n.'.R.].Q.T.!././.!.~.~.~.~.~././..X.X.X.X|.|.XXXXXX XXX$XOX+X+XXX+X+X$X+XXXoX}.+X|.|.|.|.|.|.p.1.C g # ",
"q 6 x s.:X2X0X&X@X+XoXoXoX+X+X+X+X+X+X'.'.+X`.oX`.`.`.`.'.'.].E.^./.~.!.I.!.I.I.)._._._.~.~..X.X.X.X XXXXXXXXXXX$X+XOX}.OX+XXX|.+X|.XX}.}.}.}.}.|.|.k.p.2.1.g - ",
"q 1 x s.&X0X2X&X+X+X+X#X+X'.+X+X+X+X+X+X+X].+X'.`.`.`.`.'.'.].^././.~.K.D.S.D.B.C.C.C.C.J.K.U..XQ. X X X.X.XXX X+X X}.XX+XXX+XXX+XXX}. X}.}.}.}.}.z.z.p.2.1.g - ",
"q < c s.&X2X0X&X+X+XoX+XoX+X`.+X+X+X+X+X+X+X+X'.`.`.`.`.'.].].^./.~.J.S.>.:.:.:.%.X.X.X.3.y.H.U.U..X.X X X.X.X X X}.}.XXXXXX+X+X+XXX$X|.}.}.}.}.}.|.z.e.1.1.g # ",
"0 1 c s.&X2X2X&X+XoXoX+X+X+X+X`.oX#X#X+X'.#X`.#X`.`.#X`.'.].].[.!.I.S.N.:.;._  .| ` ) ( | 3.V.C.U.!..X.XW.R. X X X}.}.|.oX+XXXOX+X$X$XXX X}.b.}.}.}.f.p.5.D g # ",
"0 1 b s.:X2X2X&X+X+X+XoXoXoX'.+X#XoXoX+X#X#X#X`.`.#X#X`.'.].].!.P.S.S.N.:.:.:.:.%.` ) ) ( &.X.V.G.U.R.U.Q.W. X X X}.}.oXoX+X X}.}.+X+X+X X}.}.}.z.}.k.p.5.Z k - ",
"q 3 b s.&X2X2X&X+X+XoX+XoXoXoXoX#XoX#XoXoXoX`.#X`.#X#X`.'.].E.T.G.y.:.y.:.:.N.,.M.&.@.~ ~ ) %.m.V.K.!..XR.W.}. XXXOXOX}. XOXoX}.}.+X X XXX}.|.b.}.c.z.p.6.Z k $ ",
"q 3 n s.:X2X2X&XoXoXoXoXoXoXoX`.`.`.`.#X`.oX`.#X`.#X`.`.].].E.U.V...} m.D.).{.).(.Z.*.O.~ ~ ) ( X.C.K.U.Q..X+X$X$X+X$X+XoXoX}.}.|. X X X|.}.}.b.}.|.k.p.6.Z k $ ",
"q 6 m s.:X2X2X$XoXoXoXoXoXn.n.`.`.oXoXoX`.oXoXoXoXoXOX`.'.].E.G.:.-.;.:.F.{.{.{.(.<.<./ R R ^ ^  .V.H.~.^..X.XXX Xn.v.z.z.z.z.}.|.}.}.}.}.}. Xn.b.n.l.a.6.Z j $ ",
"f 6 b f.:X2X2X&XoXoX}.}.oXoXoXoX`.oXoXoXoXoXoXoXoXoXOX`.Q.].U.G.:._ / ,.F.).).).<.<.$.Q P R R ^ | V.K.~./..X.Xn.x.f.e.0.7.0.p.p.f.}.z.}.|.}. X}.}.b.l.p.7.Z j $ ",
"q 3 b f.:X2X2X&XoXoXoXoXoXoXoXn.}.oXoXoXoXoXoXOXOXOX|.XXQ.Q.!.G.>.} _ ,.F.(.(.<.<.$.Q T P L R ^ | M.H.~./..XY.c.s.q.1.V B Z 1.7.p.k.z.}.}. XXX}.n.n.l.a.5.Z j $ ",
"f 3 b a.:X2X2X$XoXoXoXn.`.n.`.oXn.oXoXoXoX`.oXoXoXOX|.|..XQ.!.S.>._ ` ,.<.F.F.<.$.+.W P P T T ^ | N.H.K.!.U.c.h.q.H m 0 6 k m 1.0.a.z.z.}. X X}.c.n.l.u.7.Z g $ ",
"f 3 b f.:X2X2X$XoXoXoX}.}.oXn.oXoXoXoXoXoXoXoXOX|.|.|.XX.X.XU.V.>.` / ,.<.,.<.$.+.W W I P P E ^ | N.D.U.P.h.a.w.H m q = # , f m 1.w.k.}.}.@XXXn.n.n.l.a.2.Z j $ ",
"f 6 b f.&X2X2X&XoXoX}.oX`.oXoX`.n.oXoXoXn.oXoXoX|.|.|.XX.X.X.XH.>._ E / #.<.$.+.W W W I P P E ^ | N.H.G.G.d.9.A n f - O X # - 6 b 6.a.}. XXX X}.}.c.j.p.2.A j $ ",
"9 3 b p.&X2X2X$XoX}.n.oX}.oX}.n.`.}.oXv.oX`.}.oX|.|.XXXX.X.XT.H.m.` / o.+.+.+.W Y Y W I I T E / X.V.G.h.i.9.H n 0 ; X   . X = - j 2.a.v.}. X Xn.n.n.j.a.5.Z g $ ",
"9 3 b p.&X2X2X&XoXoX`.oXn.`.`.}.oXv.`.oXv.n.n.|.|.|.XXXX.X.XU.H.B.%./ o.Q Q W W W Y U I Q E / ` >.V.G.i.9.G n i ; .     . O - 3 v 2.a.c. X X X Xn.n.j.a.7.Z j $ ",
"f 3 b p.:X2X2X$X|.}.}.oXoXoX`.oXoXv.oXoXoXv.oX}.|.|.|.}..X.XU.K.C.M.&.@.O.I I I U U I P P ~ @.>.N.G.h.t.' n i * X       . $ 3 g B 5.a.n. X X}.W.n.`.j.a.4.Z h + ",
"9 3 b p.$X2X1X$X|.}.}.oXn.oXn.oX`.}.`.`.oXoXOXoX|.}.|.}. XQ.R.!.J.F.Z.&.O.o.P Q I I I P E O.>.B.D.J.h.9.A 0 $ o .       X 1 j B 2.p.l. X X.X.X XW.b.l.a.5.A h + ",
"f 3 b s.&X2X2X&X}.`.oX}.`.oXoXn.OXv.`.v.}.v.n.OX|.|.}.}. XW.Q./._.(.F.M.@.o.~ P P P P E / %.B.D.I.P.h.9.N ; .   .     o ; g B ] w.h.l.n. X X XW.n.b.l.a.5.Z h % ",
"0 4 b s.$X1X2X$X}.}.`.`.n.oXoX`.`.oXoXoXoXn.}.}.}.}.}.}.W.W.Q./._._.F.A.M.&.) R L L R ` %.N.D.J.I.].h.5.n *   .   . # , j B J w.a.x.b.n.}. X Xn.b.n.j.a.7.Z h % ",
"f 3 b s.XX2X2X$XoXoX`.oXn.+X}.}.`.`.oXn.oX}.}.}.}.}.}.}.Y. XW.^..X_.(.H.V.3.%.L K K ^ X.N.S.G.P.].].h.5.N ; . . o $ 1 j B J w.a.l.b.W.W.W.W.W.n.n.b.l.u.4.Z h % ",
"9 3 b p.XX2X2X$Xn.}.oX}.oXoX'.oXoX`.n.oXoXn.}.}.}.}. X}.c. X.XQ.^.E.!.!.H.V.3.M s d ! t.K.P.E.R.L.Q.h.5.N 4 @ @ ; 8 j V 2.w.f.l.b.n.W.W..XW.W.W.b.n.l.r.6.Z h % ",
"0 3 b p.:X1X1XXX+XoXoX}.n.+X`.oX}.}.n.}.}.}.n.n.}.}.}.n. XW.W..X.XQ.W.Q.n.h.9.M i i A u.R.W.W.Y.c.x.f.8.A n g g j m Z 2.w.f.l.c.W. X+X+XoX+Xn.n.n.n.l.r.4.C h + ",
"0 3 b p.&X2X1XXXn.+XoXW.+XoX'.}.`.}.n.oX`.n.n.oX}.b.n.n.}. XW. X X}. X Xn.g.0.c 8 g V u.n.'.].b.l.f.r.q.6.2.2.2.2.6.q.u.f.l.l.n.n.W.W.n.+Xn.'.W.n.n.l.r.=.Z h + ",
"q 1 b p.%X1X1X%X}.oXoX+X}.+X'.oX X`.}.+XoXn.}.n.n.}.n. X}.'.'.n. X X X+Xb.g.8.b 0 j C a.n.W.n.x.g.u.e.e.r.a.a.a.a.f.g.j.x.c.b.n.n.+XW. XW.W.W.'.n.n.x.r.5.Z j % ",
"q 1 b u.%X1X1X$XW. XoXn.n.oX}.oXn.}.n.n. X X`.n.}.W.oXn.n.W. X+XW.+X XW.c.g.8.b f k C s.b.c.x.g.g.a.a.f.g.l.c.c.c.c.c.b.n.n.W.W. XoXW.W.+Xn.W.W.n.b.g.r.4.Z h % ",
"q 2 b r.%X1X1X#XoX+X`. X+Xn.+Xn.oX}.oXW.`. Xn.+X+Xn. XW. X X+X X+X+Xn.n.c.g.8.n i k V p.b.j.g.f.s.f.f.l.c.n.W. X Xn.W.W.`.Q.W.+X'.n.n.'.W.'.W.W.n.b.z.r.5.Z j + ",
"q 1 b u.%X1X1X$X+Xn.+Xn.`.oXoXoX`.n.oXn.}.n.+Xn.n.+X}.'.}. XW. XW.'. Xn.x.g.8.v 0 g V r.x.s.u.r.a.g.l.b.n.W.n.W. XW.W.W.+X+X+X'.'.W.'.`.W.n.W.`.n.n.g.r.4.C j % ",
"q 2 c a.%X,X1X#Xn.n.oXn.n.oXoXn.W.n.}.n.W.}.n.n.W.n.+Xn.W.W.}. XW. XW.n.c.g.8.z 0 g N e.g.a.r.u.a.j.c.n.W.n.n.W.n.n.n.].+X].+Xn.'.R.`.R.n.W.n.'.n.n.g.r.4.Z j + ",
"q 2 x a.%X1X1X$XoX+X}.oXn.+Xn.oXoXn.n.oXn.}.W.+Xn.+XoXW.+XW.W.W. XW.n.n.x.g.8.n 0 g m 7.a.a.a.g.j.c.c.b.n.}.W.n.'.b.n.`.W.W.n.n.b.n.`.n.R.W.W.n.n.b.g.e.4.Z j % ",
"q 2 b a.%X1X,X@Xn.+X'.n.}.n.`.}.`.}.oXn.n.`.n. X+Xn. Xn.n. XW. Xn.W.n.n.c.g.8.n 0 q n 2.u.a.g.l.c.b.b.n.W.W. XW.n.b.n.R.W.n.b.b.b.W.n.n.`.`.n.W.n.b.g.r.4.Z j % ",
"q 2 x a.#X,X1X@X+XoXoX}.`.}.n.oXn.n.oXn.n.n.+X Xn.}.W.+X X XW.n. Xn.n. Xb.j.q.v 0 f n 2.r.a.g.c.n.n.n.n.n.W.n.W.`.R.n.W.W.`.n.Y.b.n.'.R.`.n.W.'.n.b.g.r.4.Z j % ",
"q 1 b a.%X1X1X@Xn.+XoXn.oXn.n.n.n.oXn.oXn.+Xn. X'.}.n. X Xn.W.+XW.n. X Xn.k.q.v 8 g m 4.u.f.l.n.W.n.n.W. Xn.W.W.n.W.W.'.W.n.W.n.n.'.n.`.`.n.W.n.`.b.g.r.4.Z j % ",
"q 2 x a.#X1X,X+XW.`.oX}.`.}.oXn.n.}.n.oXoXn.n.+X}.n.+Xn.n.+X}.}. Xn.W.n.b.g.8.v 8 g B w.j.x.b.n.n.n.n.W.W. XW. X'.n.n.W.W.'.W.n.n.`.W.R.'.n.n.`.b.x.g.r.4.Z j % ",
"q 2 b a.#X,X,X+X}. XoXoXn.oXn.}.n.n.n.n.n.+Xn.+XW.+X+XW.'. Xn.'. Xn.n. Xb.k.q.m j v F r.c.b.n.n.n.n.n. X XW. Xn.n.W.W.W.W.'.'.W.n.R.W.n.n.n.`.`.`.c.g.r.4.Z j % ",
"q < b a.#X,X,X#Xn.`.n.n.}.n.n.n.n.oX}.n.n.n.W.n.}.n.n.}.}.n.+Xn.n.n.n.n.b.x.r.G V F 4.g.b.b.n.n.b.n.n.n.W.n. Xn.W.n.n.'.W.W.W.n.n.'.n.W.R.`.n.R.b.x.g.r.4.Z j % ",
"q 1 b r.%X,X,X+Xn.n.}.+Xn.n.n.n.n.n.n.n.n.n.W.n.W.n.}.W. Xn.}.n. Xn.n.n.b.b.g.8.5.8.r.l.n.n.n.n.W.W.n.n.W.n.+X'.W.W.n.W.W.'.n.n.W.n.n.W.n.n.n.n.`.c.g.r.4.C j + ",
"0 1 b p.$X,X,X+Xn.}.n.n.n.n.oXn.oXn.n.oX`.n.n.n.n.}.W.n.n.n.W.W.W.n.n.W.n.n.c.l.g.l.x.n.W.n.n.n.n.n.n.W.n.}.n.n.n.n.n. Xn.W.n.W.n.n.n.n.n.`.n.n.b.b.g.r.4.C h % ",
"0 7 v p.+X,X,X+Xn.n.n.}.n.oX}.n.n.n.n.n.n.}.W.n.n.n.n.n.n.W.n.n.n.W.n.n.}.n.W.W.W. Xn.}.n.W.n.n.n.n.n.n.W.n.W.n.n.n.n.n.n.n.`.W.'.n.n.'.W.n.`.n.`.v.g.e.1.C h + ",
"0 1 c p.+X,X,X@Xn.+Xn.n.n.n.W.n.n.n.W.n.n.n.n.}.W.n.}.n.n.W.W.n.W.n.W.n.W.W.n.n.n.n.n.n.n.n.n.n. Xn.n.W.}.W.}.W.}.}.n.}.'.+Xn.W.n.n.n.n.n.n.n.`.b.x.g.e.4.C f % ",
"0 2 b r.%X,X,X+Xn.`. Xn.n.oXn.n.}.n.n.oXn.W.n.n. Xn.n.+Xn.W.n.W.n.}.W.n.n.n.n.n.n.}.n.n.}.n.n.n.n.n.n. Xn.n.}.}.n.n.n.}.n.n.W.}.}.n.n.}.n.}.n.}.b.v.g.r.1.C f % ",
"q 1 c a.+X,X,X].n.n.n.n.n.n.n.n.n.n.n.n.n.n.n.n.n.n.n.n.n.n.n.n.n.n.n.n.n.n.n.n.n.n.n.n.n.n.n.n.n.n.n.n.}.n.n.n.n.W.n.n.}.n.n.n.n.n.n.n.n.n.n.n.n.x.g.e.1.V f % ",
"0 1 c r.+X,X,X+Xn.n.n.n.n.n.n.n.n.n.n.n.n.n.n.}.n.n.n.n.n.n.n.n.n.n.n.n.n.n.n.n.n.n.n.n.n.n.n.n.n.n.n.n.n.n.b.n.n.}.n.}.n.}.n.n.n.n.n.n.n.n.b.n.b.x.g.e.=.V h + ",
"q 1 b r.+X,X,X+Xn.n.}.n.}.n.n.n.n.n.n.n.n.n.n.n.n.n.n.n.n.n.n.n.W.n.W.n.n.n.n.n.b.n.b.n.n.n.n.n.b.n.b.n.}.b.n.}.n.b.b.n.b.b.n.b.n.n.v.n.n.n.n.n.b.x.g.r.4.C f + ",
"9 2 b r.+X1X1X+Xn.n.n.W.n.W.n.}.+Xn.n.W.}.n.W.n.n.n.n.n.n.n.n.n.n.n.n.n.n.n.n.n.n.n.n.n.n.n.n.n.}.b.b.n.b.n.n.b.}.b.b.n.}.b.n.b.n.n.n.n.v.n.n.n.b.b.g.e.4.V f + ",
"9 1 x r.+X,X,X+Xn.W.`.n.n.n.n.n.n.n.n.n.n.n.n.n.n.n.n.n.n.n.n.n.n.n.n.n.n.n.n.n.n.n.n.b.n.n.b.n.n.}.n.n.n.n.n.b.n.n.n.n.n.n.n.}.n.n.n.b.n.n.n.n.b.v.g.e.6.V h + ",
"q 2 c r.+X,X,X+Xn.n.}.n.oXn.n.oXn.n.n.n.n.`.n.oXn.n.n.W.}.n.n.+Xn.W.n.}.}.n.n.n.n.n.n.n.n.n.n.n.n.n.}.n.n.n.n.n.n.n.n.n.n.n.n.n.n.n.n.n.n.n.n.n.b.x.g.r.1.C h % ",
"9 1 c r.+X,X,X+Xn.}.n.W.n.n.n.W.}.n.W.}.n.W.n. X+Xn.n.n.n.n.n.n.n.n.n.n.n.n.n.n.n.n.n.n.n.b.n.n.n.b.n.n.n.n.n.n.n.n.n.n.n.b.n.n.b.n.n.n.n.n.b.n.n.v.g.r.4.V f + ",
"9 1 c r.+X,X1X+Xn.n.n.W.n.+Xn.n.n.W.n.}.n.'.n.n.n.n.n.n.n.n.n.n.n.n.n.n.n.n.n.n.n.n.n.n.n.b.n.n.n.n.n.n.n.n.n.n.b.n.n.b.n.b.}.b.n.n.n.n.n.n.n.n.`.x.f.r.4.C f + ",
"0 1 c r.+X,X,X+Xn.W.}.n.n.n.n.n.n.n.n.n.n.n.n.n.n.n.n.n.n.n.n.n.n.n.n.n.n.n.n.n.n.n.n.b.n.n.n.n.n.b.n.n.n.n.b.n.n.n.n.n.n.n.n.n.n.n.b.n.b.n.n.n.b.z.g.e.4.C f + ",
"0 1 c r.#X1X,X$Xn.}.W.n.n.n.n.'.+Xn. Xn.n.n.}.'.n.n.n.n.n.n.n.n.n.n.n.n.n.n.n.n.n.n.n.n.n.n.n.n.n.n.n.n.n.n.n.n.n.n.n.n.n.n.}.n.W.n.n.n.n.n.n.n.b.x.g.r.4.V h % ",
"q 1 c r.+X,X,X@X}.n.n.n.}.}.n.n.n.n.n.n.}.n.n.n.n.n.n.n.n.n.n.n.n.n.n.n.n.n.n.n.n.n.n.n.n.n.n.n.n.n.n.n.n.n.n.n.n.n.n.n.n.n.n.n.n.n.n.n.n.n.n.}.`.b.g.r.4.C f + ",
"q 3 c r.@X,X,X#X}.n.n.n.n.n.n.`.n.n.n.W.W.n.n.`.n.n.n.n.n.n.n.n.n.n.n.n.n.n.n.n.n.}.n.}.+Xn.n.n.n.n.n.}.n. Xn.}.}.n.n. X}.n.n. Xn.n.'.n.n.W.n.n.b.v.g.r.4.C f % ",
"q 2 b r.+X,X1X$X Xn.n.n.n.n.n.n.}.n.n.`.n.n.W.n.n.+Xn.n.n.n. Xn.n.W.}.n.n.n.n.W.n.W.'.n.n.n. XW.n.}.n.n.n. Xn.'.n.W.n.n.n.W.n.n.n.W.n.}.n.n.`.n.b.c.g.r.4.C h % ",
"q 1 c r.@X,X1X%Xn.n.n.n.n.n.n.n.n.n.n.n.n.n.n.n.}.n.n.n.n.}.n.n.n.}.n.n.n.n.n.W.n.n.n.n.n.n.}.n.n.n.n.n.n.n.n.n.n.n.n.n. Xn.n.n.n.n.`.n.n.n.n.n.`.x.s.r.1.V f + ",
"q 2 b a.+X1X1X$Xn.n.n.n.n.n.n.n.n.n.n.b.n.n.n.b.n.b.n.n.n.b.n.n.b.n.n.n.n.n.n.n.n.n.n.n.n.n.n.n.n.n.n.W.n.n.n.W.n.n.n.n.n.n.n.n.n.n.W.n.n.n.`.`.b.v.s.e.=.C f + ",
"q 2 x a.#X,X,X+Xn.n.n.n.n.n.n.b.n.b.`.b.n.v.b.b.n.b.n.v.b.b.b.n.n.b.n.n.n.b.b.n.n.`.n.n.n.n.n.b.n.n.n.n.n.n.n.n.n.n.n.`.n.n.n.n.n.n.n.b.n.n.n.n.b.v.g.e.4.V h + ",
"q 2 x a.$X,X1X+Xn.n.n.n.n.n.b.n.n.n.b.n.v.n.n.v.n.b.b.v.`.v.n.b.b.b.b.b.n.b.n.b.b.b.b.n.b.n.n.n.n.n.n.n.v.n.v.n.n.b.b.b.n.b.b.n.b.n.n.n.n.n.n.b.b.v.g.r.6.Z j & ",
"q 2 b a.@X,X,X+Xn.n.n.`.n.b.n.n.b.n.n.n.b.b.n.b.v.v.n.n.v.n.v.b.b.n.n.b.b.`.b.n.b.b.n.n.n.n.n.n.n.n.b.n.n.n.n.n.'.n.n.n.n.n.n.n.n.n.n.n.n.n.n.n.n.b.k.r.6.Z j = ",
"q 2 b a.#X1X1X+Xb.n.n.b.b.n.n.n.n.n.n.b.`.b.b.b.b.n.b.b.b.b.b.n.b.n.b.b.b.b.n.b.n.n.`.b.n.b.n.b.b.n.n.b.b.n.n.b.b.n.b.b.n.b.b.n.n.b.b.n.b.n.n.b.b.x.g.e.1.C h % ",
"q 1 b a.#X1X1XoXb.n.b.n.b.`.b.`.n.n.`.n.b.n.b.n.n.v.n.b.`.b.n.b.b.n.b.b.`.b.b.b.b.n.n.n.n.n.n.n.n.n.n.b.n.n.n.n.n.n.n.n.`.c.`.`.n.n.n.n.n.n.n.n.n.x.g.e.1.V g $ ",
"q 4 b a.#X,X,X+X`.b.n.n.`.b.b.b.n.b.b.b.b.b.n.n.b.n.n.n.n.n.n.`.n.`.`.n.n.b.`.`.n.n.n.n.n.n.n.`.n.n.n.`.n.n.n.n.n.`.n.n.`.`.c.x.n.n.n.`.n.n.n.n.b.v.g.e.1.V g $ ",
"0 1 v a.$X,X,X}.`.v.b.b.b.b.x.`.b.b.b.b.b.b.b.b.n.b.n.n.b.n.b.b.b.b.`.b.b.b.`.b.n.n.n.`.b.`.n.n.n.n.n.n.n.n.n.b.`.b.`.b.c.`.`.`.n.b.n.b.`.b.b.n.n.v.g.e.1.B f $ ",
"0 1 v a.%X1X,X+Xb.b.b.c.c.b.x.`.b.b.b.`.`.b.b.n.b.v.b.v.b.v.b.b.c.b.b.b.b.b.b.`.b.b.b.b.b.b.b.b.b.v.n.b.v.v.n.b.b.b.c.`.c.c.`.`.n.b.n.b.b.n.b.b.v.v.g.e.4.C g # ",
"9 > j r. X=X&Xb.l.l.j.g.z.g.z.z.l.l.l.z.z.l.z.l.z.z.z.z.z.g.x.z.k.k.k.k.k.x.k.k.j.x.x.x.l.l.l.l.z.z.x.x.x.l.x.l.x.l.l.l.`.g.`.j.z.l.l.x.x.x.l.x.g.g.s.w.2.C g - ",
"7 > g 8.x.n.}.g.s.r.s.p.p.p.r.p.a.a.a.a.a.a.a.a.s.s.s.p.s.p.a.s.s.s.a.a.s.s.a.a.a.s.s.s.s.s.s.f.s.s.s.s.s.s.s.s.a.f.s.s.s.s.r.r.s.s.s.s.s.s.s.s.s.r.w.8.1.B f O ",
"7 & 8 J a.g.g.e.8.8.8.8.0.7.7.7.8.8.8.8.8.8.0.8.8.8.0.8.8.8.7.8.8.8.8.8.8.8.8.8.8.8.8.q.8.8.8.8.8.8.8.8.q.8.8.8.8.q.8.8.8.8.w.=.q.q.8.8.q.8.8.8.7.6.4.1.H B q o ",
"1 % 2 Z 5.8.8.J H G G G G G G G F F D H D D D D D D D D D D D G S S S S S S S S S S S S S S S G G S G G S S S S S S S S S S S S S S S S G G G S G H H G B b 9 + ",
"> + > l V Z Z B n b b b b b x b b c b c v b b b c c c x c c c c x x x x x x x x x x x x l x x x x x x x x x x x x x z z z x x x x x x x x x c b b b n b c f , O ",
"X o + > 2 q 0 3 < 1 1 1 < 6 < < , , < < , , , , < , < > , , : , > > > : > : > > > : > > > > > > < < > > > > > > > > > ; > > > > > > > > > > > > , < , > ; & + . ",
"+ % @ + + & & & & ; ; > : : : = = = = = = - - - = & = = = : & & : % & % @ @ & & & % % % % & & - & % & & & % & & & & & & & & & & & & & & % = = % % # # # $ $ $ # ",
"2 < > @ + + - 1 7 7 7 7 9 6 6 6 6 6 6 6 7 9 9 9 6 9 9 7 7 6 7 9 7 2 8 2 7 2 8 2 2 2 2 2 7 7 7 9 8 8 8 8 8 8 8 8 i 8 8 8 8 8 8 8 8 7 7 7 7 7 7 6 6 6 3 7 7 4 5 4 "
};
